<?xml version='1.0' encoding='utf-8'?>
<mlt LC_NUMERIC="C" producer="main_bin" root="/home/ansinitro/Desktop/History Final" version="7.37.0">
 <profile colorspace="709" description="HD 1080p 30 fps" display_aspect_den="9" display_aspect_num="16" frame_rate_den="1" frame_rate_num="30" height="1080" progressive="1" sample_aspect_den="1" sample_aspect_num="1" width="1920"/>
 <chain id="chain20" out="00:00:07.967">
  <property name="length">240</property>
  <property name="eof">pause</property>
  <property name="resource">additional-3-videos/Futuristic laboratory with holographic.mp4</property>
  <property name="mlt_service">avformat-novalidate</property>
  <property name="meta.media.nb_streams">2</property>
  <property name="meta.media.0.stream.type">video</property>
  <property name="meta.media.0.stream.frame_rate">24</property>
  <property name="meta.media.0.stream.sample_aspect_ratio">0</property>
  <property name="meta.media.0.codec.width">1280</property>
  <property name="meta.media.0.codec.height">720</property>
  <property name="meta.media.0.codec.rotate">0</property>
  <property name="meta.media.0.codec.pix_fmt">yuv420p</property>
  <property name="meta.media.0.codec.sample_aspect_ratio">0</property>
  <property name="meta.media.0.codec.colorspace">709</property>
  <property name="meta.media.0.codec.name">h264</property>
  <property name="meta.media.0.codec.long_name">H.264 / AVC / MPEG-4 AVC / MPEG-4 part 10</property>
  <property name="meta.media.0.codec.bit_rate">4907780</property>
  <property name="meta.attr.0.stream.handler_name.markup">VideoHandler</property>
  <property name="meta.attr.0.stream.vendor_id.markup">[0][0][0][0]</property>
  <property name="meta.media.1.stream.type">audio</property>
  <property name="meta.media.1.codec.sample_fmt">fltp</property>
  <property name="meta.media.1.codec.sample_rate">48000</property>
  <property name="meta.media.1.codec.channels">2</property>
  <property name="meta.media.1.codec.layout">stereo</property>
  <property name="meta.media.1.codec.name">aac</property>
  <property name="meta.media.1.codec.long_name">AAC (Advanced Audio Coding)</property>
  <property name="meta.media.1.codec.bit_rate">140308</property>
  <property name="meta.attr.1.stream.handler_name.markup">SoundHandler</property>
  <property name="meta.attr.1.stream.vendor_id.markup">[0][0][0][0]</property>
  <property name="meta.attr.major_brand.markup">isom</property>
  <property name="meta.attr.minor_version.markup">512</property>
  <property name="meta.attr.compatible_brands.markup">isomiso2avc1mp41</property>
  <property name="meta.attr.encoder.markup">Google</property>
  <property name="seekable">1</property>
  <property name="meta.media.sample_aspect_num">1</property>
  <property name="meta.media.sample_aspect_den">1</property>
  <property name="format">3</property>
  <property name="audio_index">1</property>
  <property name="video_index">0</property>
  <property name="vstream">0</property>
  <property name="meta.media.frame_rate_num">24</property>
  <property name="meta.media.frame_rate_den">1</property>
  <property name="meta.media.colorspace">709</property>
  <property name="meta.media.color_trc">2</property>
  <property name="meta.media.has_b_frames">2</property>
  <property name="meta.media.width">1280</property>
  <property name="meta.media.height">720</property>
  <property name="meta.media.aspect_ratio">1</property>
  <property name="meta.media.color_range">mpeg</property>
  <property name="astream">0</property>
  <property name="meta.media.top_field_first">0</property>
  <property name="meta.media.progressive">1</property>
  <property name="kdenlive:folderid">15</property>
  <property name="kdenlive:id">4</property>
  <property name="kdenlive:control_uuid">{c0004919-e3db-494c-a77b-c2f9c4f3c470}</property>
  <property name="mute_on_pause">0</property>
  <property name="kdenlive:clip_type">0</property>
  <property name="kdenlive:file_size">5061892</property>
  <property name="kdenlive:file_hash">27cdf3d8836bac06037699a672557702</property>
  <property name="kdenlive:kextractor">1</property>
  <property name="kdenlive:meta.extractor.Bitrate:">5061 kb/s</property>
  <property name="kdenlive:monitorPosition">0</property>
 </chain>
 <chain id="chain21" out="00:00:07.967">
  <property name="length">240</property>
  <property name="eof">pause</property>
  <property name="resource">additional-3-videos/Professional academic presenter.mp4</property>
  <property name="mlt_service">avformat-novalidate</property>
  <property name="meta.media.nb_streams">2</property>
  <property name="meta.media.0.stream.type">video</property>
  <property name="meta.media.0.stream.frame_rate">24</property>
  <property name="meta.media.0.stream.sample_aspect_ratio">0</property>
  <property name="meta.media.0.codec.width">1280</property>
  <property name="meta.media.0.codec.height">720</property>
  <property name="meta.media.0.codec.rotate">0</property>
  <property name="meta.media.0.codec.pix_fmt">yuv420p</property>
  <property name="meta.media.0.codec.sample_aspect_ratio">0</property>
  <property name="meta.media.0.codec.colorspace">709</property>
  <property name="meta.media.0.codec.name">h264</property>
  <property name="meta.media.0.codec.long_name">H.264 / AVC / MPEG-4 AVC / MPEG-4 part 10</property>
  <property name="meta.media.0.codec.bit_rate">1987005</property>
  <property name="meta.attr.0.stream.handler_name.markup">VideoHandler</property>
  <property name="meta.attr.0.stream.vendor_id.markup">[0][0][0][0]</property>
  <property name="meta.media.1.stream.type">audio</property>
  <property name="meta.media.1.codec.sample_fmt">fltp</property>
  <property name="meta.media.1.codec.sample_rate">48000</property>
  <property name="meta.media.1.codec.channels">2</property>
  <property name="meta.media.1.codec.layout">stereo</property>
  <property name="meta.media.1.codec.name">aac</property>
  <property name="meta.media.1.codec.long_name">AAC (Advanced Audio Coding)</property>
  <property name="meta.media.1.codec.bit_rate">140217</property>
  <property name="meta.attr.1.stream.handler_name.markup">SoundHandler</property>
  <property name="meta.attr.1.stream.vendor_id.markup">[0][0][0][0]</property>
  <property name="meta.attr.major_brand.markup">isom</property>
  <property name="meta.attr.minor_version.markup">512</property>
  <property name="meta.attr.compatible_brands.markup">isomiso2avc1mp41</property>
  <property name="meta.attr.encoder.markup">Google</property>
  <property name="seekable">1</property>
  <property name="meta.media.sample_aspect_num">1</property>
  <property name="meta.media.sample_aspect_den">1</property>
  <property name="format">3</property>
  <property name="audio_index">1</property>
  <property name="video_index">0</property>
  <property name="vstream">0</property>
  <property name="meta.media.frame_rate_num">24</property>
  <property name="meta.media.frame_rate_den">1</property>
  <property name="meta.media.colorspace">709</property>
  <property name="meta.media.color_trc">2</property>
  <property name="meta.media.has_b_frames">2</property>
  <property name="meta.media.width">1280</property>
  <property name="meta.media.height">720</property>
  <property name="meta.media.aspect_ratio">1</property>
  <property name="meta.media.color_range">mpeg</property>
  <property name="astream">0</property>
  <property name="meta.media.top_field_first">0</property>
  <property name="meta.media.progressive">1</property>
  <property name="kdenlive:folderid">15</property>
  <property name="kdenlive:id">5</property>
  <property name="kdenlive:control_uuid">{168b5867-1e8e-430b-9334-0163627fefe5}</property>
  <property name="mute_on_pause">0</property>
  <property name="kdenlive:clip_type">0</property>
  <property name="kdenlive:file_size">2141024</property>
  <property name="kdenlive:file_hash">2847430c137bdb83204e97dd4f61eceb</property>
  <property name="kdenlive:kextractor">1</property>
  <property name="kdenlive:meta.extractor.Bitrate:">2141 kb/s</property>
  <property name="kdenlive:monitorPosition">0</property>
 </chain>
 <chain id="chain22" out="00:00:07.967">
  <property name="length">240</property>
  <property name="eof">pause</property>
  <property name="resource">additional-3-videos/Split screen: left side a glowing human brain made of light, right side a digital neural network visualization.mp4</property>
  <property name="mlt_service">avformat-novalidate</property>
  <property name="meta.media.nb_streams">2</property>
  <property name="meta.media.0.stream.type">video</property>
  <property name="meta.media.0.stream.frame_rate">24</property>
  <property name="meta.media.0.stream.sample_aspect_ratio">0</property>
  <property name="meta.media.0.codec.width">1280</property>
  <property name="meta.media.0.codec.height">720</property>
  <property name="meta.media.0.codec.rotate">0</property>
  <property name="meta.media.0.codec.pix_fmt">yuv420p</property>
  <property name="meta.media.0.codec.sample_aspect_ratio">0</property>
  <property name="meta.media.0.codec.colorspace">709</property>
  <property name="meta.media.0.codec.name">h264</property>
  <property name="meta.media.0.codec.long_name">H.264 / AVC / MPEG-4 AVC / MPEG-4 part 10</property>
  <property name="meta.media.0.codec.bit_rate">11616889</property>
  <property name="meta.attr.0.stream.handler_name.markup">VideoHandler</property>
  <property name="meta.attr.0.stream.vendor_id.markup">[0][0][0][0]</property>
  <property name="meta.media.1.stream.type">audio</property>
  <property name="meta.media.1.codec.sample_fmt">fltp</property>
  <property name="meta.media.1.codec.sample_rate">48000</property>
  <property name="meta.media.1.codec.channels">2</property>
  <property name="meta.media.1.codec.layout">stereo</property>
  <property name="meta.media.1.codec.name">aac</property>
  <property name="meta.media.1.codec.long_name">AAC (Advanced Audio Coding)</property>
  <property name="meta.media.1.codec.bit_rate">140237</property>
  <property name="meta.attr.1.stream.handler_name.markup">SoundHandler</property>
  <property name="meta.attr.1.stream.vendor_id.markup">[0][0][0][0]</property>
  <property name="meta.attr.major_brand.markup">isom</property>
  <property name="meta.attr.minor_version.markup">512</property>
  <property name="meta.attr.compatible_brands.markup">isomiso2avc1mp41</property>
  <property name="meta.attr.encoder.markup">Google</property>
  <property name="seekable">1</property>
  <property name="meta.media.sample_aspect_num">1</property>
  <property name="meta.media.sample_aspect_den">1</property>
  <property name="format">3</property>
  <property name="audio_index">1</property>
  <property name="video_index">0</property>
  <property name="vstream">0</property>
  <property name="meta.media.frame_rate_num">24</property>
  <property name="meta.media.frame_rate_den">1</property>
  <property name="meta.media.colorspace">709</property>
  <property name="meta.media.color_trc">2</property>
  <property name="meta.media.has_b_frames">2</property>
  <property name="meta.media.width">1280</property>
  <property name="meta.media.height">720</property>
  <property name="meta.media.aspect_ratio">1</property>
  <property name="meta.media.color_range">mpeg</property>
  <property name="astream">0</property>
  <property name="meta.media.top_field_first">0</property>
  <property name="meta.media.progressive">1</property>
  <property name="kdenlive:folderid">15</property>
  <property name="kdenlive:id">6</property>
  <property name="kdenlive:control_uuid">{838a995c-af77-4941-93b9-cac0268dd0ce}</property>
  <property name="mute_on_pause">0</property>
  <property name="kdenlive:clip_type">0</property>
  <property name="kdenlive:file_size">11770929</property>
  <property name="kdenlive:kextractor">1</property>
  <property name="kdenlive:meta.extractor.Bitrate:">11770 kb/s</property>
  <property name="kdenlive:monitorPosition">109</property>
  <property name="kdenlive:file_hash">ee7331b6e95047710c0d97c4e34c7cf9</property>
 </chain>
 <chain id="chain23" out="00:00:07.967">
  <property name="length">240</property>
  <property name="eof">pause</property>
  <property name="resource">first-7-videos/1 INTRO: “AI Everywhere”.mp4</property>
  <property name="mlt_service">avformat-novalidate</property>
  <property name="meta.media.nb_streams">2</property>
  <property name="meta.media.0.stream.type">video</property>
  <property name="meta.media.0.stream.frame_rate">24</property>
  <property name="meta.media.0.stream.sample_aspect_ratio">0</property>
  <property name="meta.media.0.codec.width">1280</property>
  <property name="meta.media.0.codec.height">720</property>
  <property name="meta.media.0.codec.rotate">0</property>
  <property name="meta.media.0.codec.pix_fmt">yuv420p</property>
  <property name="meta.media.0.codec.sample_aspect_ratio">0</property>
  <property name="meta.media.0.codec.colorspace">709</property>
  <property name="meta.media.0.codec.name">h264</property>
  <property name="meta.media.0.codec.long_name">H.264 / AVC / MPEG-4 AVC / MPEG-4 part 10</property>
  <property name="meta.media.0.codec.bit_rate">4905066</property>
  <property name="meta.attr.0.stream.handler_name.markup">VideoHandler</property>
  <property name="meta.attr.0.stream.vendor_id.markup">[0][0][0][0]</property>
  <property name="meta.media.1.stream.type">audio</property>
  <property name="meta.media.1.codec.sample_fmt">fltp</property>
  <property name="meta.media.1.codec.sample_rate">48000</property>
  <property name="meta.media.1.codec.channels">2</property>
  <property name="meta.media.1.codec.layout">stereo</property>
  <property name="meta.media.1.codec.name">aac</property>
  <property name="meta.media.1.codec.long_name">AAC (Advanced Audio Coding)</property>
  <property name="meta.media.1.codec.bit_rate">140006</property>
  <property name="meta.attr.1.stream.handler_name.markup">SoundHandler</property>
  <property name="meta.attr.1.stream.vendor_id.markup">[0][0][0][0]</property>
  <property name="meta.attr.major_brand.markup">isom</property>
  <property name="meta.attr.minor_version.markup">512</property>
  <property name="meta.attr.compatible_brands.markup">isomiso2avc1mp41</property>
  <property name="meta.attr.encoder.markup">Google</property>
  <property name="seekable">1</property>
  <property name="meta.media.sample_aspect_num">1</property>
  <property name="meta.media.sample_aspect_den">1</property>
  <property name="format">3</property>
  <property name="audio_index">1</property>
  <property name="video_index">0</property>
  <property name="vstream">0</property>
  <property name="meta.media.frame_rate_num">24</property>
  <property name="meta.media.frame_rate_den">1</property>
  <property name="meta.media.colorspace">709</property>
  <property name="meta.media.color_trc">2</property>
  <property name="meta.media.has_b_frames">2</property>
  <property name="meta.media.width">1280</property>
  <property name="meta.media.height">720</property>
  <property name="meta.media.aspect_ratio">1</property>
  <property name="meta.media.color_range">mpeg</property>
  <property name="astream">0</property>
  <property name="meta.media.top_field_first">0</property>
  <property name="meta.media.progressive">1</property>
  <property name="kdenlive:folderid">19</property>
  <property name="kdenlive:id">7</property>
  <property name="kdenlive:control_uuid">{cd7cd5f9-3631-4a99-844d-dfda9cdb4c05}</property>
  <property name="mute_on_pause">0</property>
  <property name="kdenlive:clip_type">0</property>
  <property name="kdenlive:file_size">5058865</property>
  <property name="kdenlive:kextractor">1</property>
  <property name="kdenlive:meta.extractor.Bitrate:">5058 kb/s</property>
  <property name="kdenlive:monitorPosition">219</property>
  <property name="kdenlive:markers">[
]
</property>
  <property name="kdenlive:file_hash">1f7026584b702d88e07860a9aec62ef7</property>
 </chain>
 <chain id="chain24" out="00:00:07.967">
  <property name="length">240</property>
  <property name="eof">pause</property>
  <property name="resource">first-7-videos/2 PHILOSOPHY: “Popper &amp; Kuhn”.mp4</property>
  <property name="mlt_service">avformat-novalidate</property>
  <property name="meta.media.nb_streams">2</property>
  <property name="meta.media.0.stream.type">video</property>
  <property name="meta.media.0.stream.frame_rate">24</property>
  <property name="meta.media.0.stream.sample_aspect_ratio">0</property>
  <property name="meta.media.0.codec.width">1280</property>
  <property name="meta.media.0.codec.height">720</property>
  <property name="meta.media.0.codec.rotate">0</property>
  <property name="meta.media.0.codec.pix_fmt">yuv420p</property>
  <property name="meta.media.0.codec.sample_aspect_ratio">0</property>
  <property name="meta.media.0.codec.colorspace">709</property>
  <property name="meta.media.0.codec.name">h264</property>
  <property name="meta.media.0.codec.long_name">H.264 / AVC / MPEG-4 AVC / MPEG-4 part 10</property>
  <property name="meta.media.0.codec.bit_rate">4602478</property>
  <property name="meta.attr.0.stream.handler_name.markup">VideoHandler</property>
  <property name="meta.attr.0.stream.vendor_id.markup">[0][0][0][0]</property>
  <property name="meta.media.1.stream.type">audio</property>
  <property name="meta.media.1.codec.sample_fmt">fltp</property>
  <property name="meta.media.1.codec.sample_rate">48000</property>
  <property name="meta.media.1.codec.channels">2</property>
  <property name="meta.media.1.codec.layout">stereo</property>
  <property name="meta.media.1.codec.name">aac</property>
  <property name="meta.media.1.codec.long_name">AAC (Advanced Audio Coding)</property>
  <property name="meta.media.1.codec.bit_rate">139966</property>
  <property name="meta.attr.1.stream.handler_name.markup">SoundHandler</property>
  <property name="meta.attr.1.stream.vendor_id.markup">[0][0][0][0]</property>
  <property name="meta.attr.major_brand.markup">isom</property>
  <property name="meta.attr.minor_version.markup">512</property>
  <property name="meta.attr.compatible_brands.markup">isomiso2avc1mp41</property>
  <property name="meta.attr.encoder.markup">Google</property>
  <property name="seekable">1</property>
  <property name="meta.media.sample_aspect_num">1</property>
  <property name="meta.media.sample_aspect_den">1</property>
  <property name="format">3</property>
  <property name="audio_index">1</property>
  <property name="video_index">0</property>
  <property name="vstream">0</property>
  <property name="meta.media.frame_rate_num">24</property>
  <property name="meta.media.frame_rate_den">1</property>
  <property name="meta.media.colorspace">709</property>
  <property name="meta.media.color_trc">2</property>
  <property name="meta.media.has_b_frames">2</property>
  <property name="meta.media.width">1280</property>
  <property name="meta.media.height">720</property>
  <property name="meta.media.aspect_ratio">1</property>
  <property name="meta.media.color_range">mpeg</property>
  <property name="astream">0</property>
  <property name="meta.media.top_field_first">0</property>
  <property name="meta.media.progressive">1</property>
  <property name="kdenlive:folderid">19</property>
  <property name="kdenlive:id">8</property>
  <property name="kdenlive:control_uuid">{df78ef6d-9390-4a00-b909-deefd58ee056}</property>
  <property name="mute_on_pause">0</property>
  <property name="kdenlive:clip_type">0</property>
  <property name="kdenlive:file_size">4756253</property>
  <property name="kdenlive:kextractor">1</property>
  <property name="kdenlive:meta.extractor.Bitrate:">4756 kb/s</property>
  <property name="kdenlive:monitorPosition">0</property>
  <property name="kdenlive:file_hash">f1e305589be14a930a44725adc579af1</property>
 </chain>
 <chain id="chain25" out="00:00:07.967">
  <property name="length">240</property>
  <property name="eof">pause</property>
  <property name="resource">first-7-videos/3 NEURAL NETWORK: “What AI Models Are".mp4</property>
  <property name="mlt_service">avformat-novalidate</property>
  <property name="meta.media.nb_streams">2</property>
  <property name="meta.media.0.stream.type">video</property>
  <property name="meta.media.0.stream.frame_rate">24</property>
  <property name="meta.media.0.stream.sample_aspect_ratio">0</property>
  <property name="meta.media.0.codec.width">1280</property>
  <property name="meta.media.0.codec.height">720</property>
  <property name="meta.media.0.codec.rotate">0</property>
  <property name="meta.media.0.codec.pix_fmt">yuv420p</property>
  <property name="meta.media.0.codec.sample_aspect_ratio">0</property>
  <property name="meta.media.0.codec.colorspace">709</property>
  <property name="meta.media.0.codec.name">h264</property>
  <property name="meta.media.0.codec.long_name">H.264 / AVC / MPEG-4 AVC / MPEG-4 part 10</property>
  <property name="meta.media.0.codec.bit_rate">17046226</property>
  <property name="meta.attr.0.stream.handler_name.markup">VideoHandler</property>
  <property name="meta.attr.0.stream.vendor_id.markup">[0][0][0][0]</property>
  <property name="meta.media.1.stream.type">audio</property>
  <property name="meta.media.1.codec.sample_fmt">fltp</property>
  <property name="meta.media.1.codec.sample_rate">48000</property>
  <property name="meta.media.1.codec.channels">2</property>
  <property name="meta.media.1.codec.layout">stereo</property>
  <property name="meta.media.1.codec.name">aac</property>
  <property name="meta.media.1.codec.long_name">AAC (Advanced Audio Coding)</property>
  <property name="meta.media.1.codec.bit_rate">140057</property>
  <property name="meta.attr.1.stream.handler_name.markup">SoundHandler</property>
  <property name="meta.attr.1.stream.vendor_id.markup">[0][0][0][0]</property>
  <property name="meta.attr.major_brand.markup">isom</property>
  <property name="meta.attr.minor_version.markup">512</property>
  <property name="meta.attr.compatible_brands.markup">isomiso2avc1mp41</property>
  <property name="meta.attr.encoder.markup">Google</property>
  <property name="seekable">1</property>
  <property name="meta.media.sample_aspect_num">1</property>
  <property name="meta.media.sample_aspect_den">1</property>
  <property name="format">3</property>
  <property name="audio_index">1</property>
  <property name="video_index">0</property>
  <property name="vstream">0</property>
  <property name="meta.media.frame_rate_num">24</property>
  <property name="meta.media.frame_rate_den">1</property>
  <property name="meta.media.colorspace">709</property>
  <property name="meta.media.color_trc">2</property>
  <property name="meta.media.has_b_frames">2</property>
  <property name="meta.media.width">1280</property>
  <property name="meta.media.height">720</property>
  <property name="meta.media.aspect_ratio">1</property>
  <property name="meta.media.color_range">mpeg</property>
  <property name="astream">0</property>
  <property name="meta.media.top_field_first">0</property>
  <property name="meta.media.progressive">1</property>
  <property name="kdenlive:folderid">19</property>
  <property name="kdenlive:id">9</property>
  <property name="kdenlive:control_uuid">{59ee7135-b26d-4334-a14f-3e90a817a80b}</property>
  <property name="mute_on_pause">0</property>
  <property name="kdenlive:clip_type">0</property>
  <property name="kdenlive:file_size">17200084</property>
  <property name="kdenlive:kextractor">1</property>
  <property name="kdenlive:meta.extractor.Bitrate:">17200 kb/s</property>
  <property name="kdenlive:monitorPosition">0</property>
  <property name="kdenlive:file_hash">9a55bad9c26c44325cc004978c93ae3d</property>
 </chain>
 <chain id="chain26" out="00:00:07.967">
  <property name="length">240</property>
  <property name="eof">pause</property>
  <property name="resource">first-7-videos/4 AI IN SCIENCE: “The Laboratory”.mp4</property>
  <property name="mlt_service">avformat-novalidate</property>
  <property name="meta.media.nb_streams">2</property>
  <property name="meta.media.0.stream.type">video</property>
  <property name="meta.media.0.stream.frame_rate">24</property>
  <property name="meta.media.0.stream.sample_aspect_ratio">0</property>
  <property name="meta.media.0.codec.width">1280</property>
  <property name="meta.media.0.codec.height">720</property>
  <property name="meta.media.0.codec.rotate">0</property>
  <property name="meta.media.0.codec.pix_fmt">yuv420p</property>
  <property name="meta.media.0.codec.sample_aspect_ratio">0</property>
  <property name="meta.media.0.codec.colorspace">709</property>
  <property name="meta.media.0.codec.name">h264</property>
  <property name="meta.media.0.codec.long_name">H.264 / AVC / MPEG-4 AVC / MPEG-4 part 10</property>
  <property name="meta.media.0.codec.bit_rate">2789283</property>
  <property name="meta.attr.0.stream.handler_name.markup">VideoHandler</property>
  <property name="meta.attr.0.stream.vendor_id.markup">[0][0][0][0]</property>
  <property name="meta.media.1.stream.type">audio</property>
  <property name="meta.media.1.codec.sample_fmt">fltp</property>
  <property name="meta.media.1.codec.sample_rate">48000</property>
  <property name="meta.media.1.codec.channels">2</property>
  <property name="meta.media.1.codec.layout">stereo</property>
  <property name="meta.media.1.codec.name">aac</property>
  <property name="meta.media.1.codec.long_name">AAC (Advanced Audio Coding)</property>
  <property name="meta.media.1.codec.bit_rate">140148</property>
  <property name="meta.attr.1.stream.handler_name.markup">SoundHandler</property>
  <property name="meta.attr.1.stream.vendor_id.markup">[0][0][0][0]</property>
  <property name="meta.attr.major_brand.markup">isom</property>
  <property name="meta.attr.minor_version.markup">512</property>
  <property name="meta.attr.compatible_brands.markup">isomiso2avc1mp41</property>
  <property name="meta.attr.encoder.markup">Google</property>
  <property name="seekable">1</property>
  <property name="meta.media.sample_aspect_num">1</property>
  <property name="meta.media.sample_aspect_den">1</property>
  <property name="format">3</property>
  <property name="audio_index">1</property>
  <property name="video_index">0</property>
  <property name="vstream">0</property>
  <property name="meta.media.frame_rate_num">24</property>
  <property name="meta.media.frame_rate_den">1</property>
  <property name="meta.media.colorspace">709</property>
  <property name="meta.media.color_trc">2</property>
  <property name="meta.media.has_b_frames">2</property>
  <property name="meta.media.width">1280</property>
  <property name="meta.media.height">720</property>
  <property name="meta.media.aspect_ratio">1</property>
  <property name="meta.media.color_range">mpeg</property>
  <property name="astream">0</property>
  <property name="meta.media.top_field_first">0</property>
  <property name="meta.media.progressive">1</property>
  <property name="kdenlive:folderid">19</property>
  <property name="kdenlive:id">10</property>
  <property name="kdenlive:control_uuid">{81d59288-fce8-4b3d-9035-3e10d53398a7}</property>
  <property name="mute_on_pause">0</property>
  <property name="kdenlive:clip_type">0</property>
  <property name="kdenlive:file_size">2943233</property>
  <property name="kdenlive:kextractor">1</property>
  <property name="kdenlive:meta.extractor.Bitrate:">2943 kb/s</property>
  <property name="kdenlive:monitorPosition">53</property>
  <property name="kdenlive:file_hash">fd67499e1ada449deb826f1af071d8bc</property>
 </chain>
 <chain id="chain27" out="00:00:07.967">
  <property name="length">240</property>
  <property name="eof">pause</property>
  <property name="resource">first-7-videos/5 AI AS SIMULATION: “No Consciousness”.mp4</property>
  <property name="mlt_service">avformat-novalidate</property>
  <property name="meta.media.nb_streams">2</property>
  <property name="meta.media.0.stream.type">video</property>
  <property name="meta.media.0.stream.frame_rate">24</property>
  <property name="meta.media.0.stream.sample_aspect_ratio">0</property>
  <property name="meta.media.0.codec.width">1280</property>
  <property name="meta.media.0.codec.height">720</property>
  <property name="meta.media.0.codec.rotate">0</property>
  <property name="meta.media.0.codec.pix_fmt">yuv420p</property>
  <property name="meta.media.0.codec.sample_aspect_ratio">0</property>
  <property name="meta.media.0.codec.colorspace">709</property>
  <property name="meta.media.0.codec.name">h264</property>
  <property name="meta.media.0.codec.long_name">H.264 / AVC / MPEG-4 AVC / MPEG-4 part 10</property>
  <property name="meta.media.0.codec.bit_rate">5784842</property>
  <property name="meta.attr.0.stream.handler_name.markup">VideoHandler</property>
  <property name="meta.attr.0.stream.vendor_id.markup">[0][0][0][0]</property>
  <property name="meta.media.1.stream.type">audio</property>
  <property name="meta.media.1.codec.sample_fmt">fltp</property>
  <property name="meta.media.1.codec.sample_rate">48000</property>
  <property name="meta.media.1.codec.channels">2</property>
  <property name="meta.media.1.codec.layout">stereo</property>
  <property name="meta.media.1.codec.name">aac</property>
  <property name="meta.media.1.codec.long_name">AAC (Advanced Audio Coding)</property>
  <property name="meta.media.1.codec.bit_rate">140084</property>
  <property name="meta.attr.1.stream.handler_name.markup">SoundHandler</property>
  <property name="meta.attr.1.stream.vendor_id.markup">[0][0][0][0]</property>
  <property name="meta.attr.major_brand.markup">isom</property>
  <property name="meta.attr.minor_version.markup">512</property>
  <property name="meta.attr.compatible_brands.markup">isomiso2avc1mp41</property>
  <property name="meta.attr.encoder.markup">Google</property>
  <property name="seekable">1</property>
  <property name="meta.media.sample_aspect_num">1</property>
  <property name="meta.media.sample_aspect_den">1</property>
  <property name="format">3</property>
  <property name="audio_index">1</property>
  <property name="video_index">0</property>
  <property name="vstream">0</property>
  <property name="meta.media.frame_rate_num">24</property>
  <property name="meta.media.frame_rate_den">1</property>
  <property name="meta.media.colorspace">709</property>
  <property name="meta.media.color_trc">2</property>
  <property name="meta.media.has_b_frames">2</property>
  <property name="meta.media.width">1280</property>
  <property name="meta.media.height">720</property>
  <property name="meta.media.aspect_ratio">1</property>
  <property name="meta.media.color_range">mpeg</property>
  <property name="astream">0</property>
  <property name="meta.media.top_field_first">0</property>
  <property name="meta.media.progressive">1</property>
  <property name="kdenlive:folderid">19</property>
  <property name="kdenlive:id">11</property>
  <property name="kdenlive:control_uuid">{793ef39f-d6ee-4bd8-9cdc-5e8d15e5b0a3}</property>
  <property name="mute_on_pause">0</property>
  <property name="kdenlive:clip_type">0</property>
  <property name="kdenlive:file_size">5938720</property>
  <property name="kdenlive:file_hash">859ecfb3ef47ee978682f122cc9af46d</property>
 </chain>
 <chain id="chain28" out="00:00:07.967">
  <property name="length">240</property>
  <property name="eof">pause</property>
  <property name="resource">first-7-videos/6 HUMAN + AI: “The Partnership”.mp4</property>
  <property name="mlt_service">avformat-novalidate</property>
  <property name="meta.media.nb_streams">2</property>
  <property name="meta.media.0.stream.type">video</property>
  <property name="meta.media.0.stream.frame_rate">24</property>
  <property name="meta.media.0.stream.sample_aspect_ratio">0</property>
  <property name="meta.media.0.codec.width">1280</property>
  <property name="meta.media.0.codec.height">720</property>
  <property name="meta.media.0.codec.rotate">0</property>
  <property name="meta.media.0.codec.pix_fmt">yuv420p</property>
  <property name="meta.media.0.codec.sample_aspect_ratio">0</property>
  <property name="meta.media.0.codec.colorspace">709</property>
  <property name="meta.media.0.codec.name">h264</property>
  <property name="meta.media.0.codec.long_name">H.264 / AVC / MPEG-4 AVC / MPEG-4 part 10</property>
  <property name="meta.media.0.codec.bit_rate">3791068</property>
  <property name="meta.attr.0.stream.handler_name.markup">VideoHandler</property>
  <property name="meta.attr.0.stream.vendor_id.markup">[0][0][0][0]</property>
  <property name="meta.media.1.stream.type">audio</property>
  <property name="meta.media.1.codec.sample_fmt">fltp</property>
  <property name="meta.media.1.codec.sample_rate">48000</property>
  <property name="meta.media.1.codec.channels">2</property>
  <property name="meta.media.1.codec.layout">stereo</property>
  <property name="meta.media.1.codec.name">aac</property>
  <property name="meta.media.1.codec.long_name">AAC (Advanced Audio Coding)</property>
  <property name="meta.media.1.codec.bit_rate">139994</property>
  <property name="meta.attr.1.stream.handler_name.markup">SoundHandler</property>
  <property name="meta.attr.1.stream.vendor_id.markup">[0][0][0][0]</property>
  <property name="meta.attr.major_brand.markup">isom</property>
  <property name="meta.attr.minor_version.markup">512</property>
  <property name="meta.attr.compatible_brands.markup">isomiso2avc1mp41</property>
  <property name="meta.attr.encoder.markup">Google</property>
  <property name="seekable">1</property>
  <property name="meta.media.sample_aspect_num">1</property>
  <property name="meta.media.sample_aspect_den">1</property>
  <property name="format">3</property>
  <property name="audio_index">1</property>
  <property name="video_index">0</property>
  <property name="vstream">0</property>
  <property name="meta.media.frame_rate_num">24</property>
  <property name="meta.media.frame_rate_den">1</property>
  <property name="meta.media.colorspace">709</property>
  <property name="meta.media.color_trc">2</property>
  <property name="meta.media.has_b_frames">2</property>
  <property name="meta.media.width">1280</property>
  <property name="meta.media.height">720</property>
  <property name="meta.media.aspect_ratio">1</property>
  <property name="meta.media.color_range">mpeg</property>
  <property name="astream">0</property>
  <property name="meta.media.top_field_first">0</property>
  <property name="meta.media.progressive">1</property>
  <property name="kdenlive:folderid">19</property>
  <property name="kdenlive:id">12</property>
  <property name="kdenlive:control_uuid">{3f53cd60-3ed9-48f8-b9a3-1fcb78a579fc}</property>
  <property name="mute_on_pause">0</property>
  <property name="kdenlive:clip_type">0</property>
  <property name="kdenlive:file_size">3944847</property>
  <property name="kdenlive:file_hash">b186ad763dc990ac24fcb001ce068e48</property>
 </chain>
 <chain id="chain29" out="00:00:07.967">
  <property name="length">240</property>
  <property name="eof">pause</property>
  <property name="resource">first-7-videos/7 CONCLUSION: “Future Smart City".mp4</property>
  <property name="mlt_service">avformat-novalidate</property>
  <property name="meta.media.nb_streams">2</property>
  <property name="meta.media.0.stream.type">video</property>
  <property name="meta.media.0.stream.frame_rate">24</property>
  <property name="meta.media.0.stream.sample_aspect_ratio">0</property>
  <property name="meta.media.0.codec.width">1280</property>
  <property name="meta.media.0.codec.height">720</property>
  <property name="meta.media.0.codec.rotate">0</property>
  <property name="meta.media.0.codec.pix_fmt">yuv420p</property>
  <property name="meta.media.0.codec.sample_aspect_ratio">0</property>
  <property name="meta.media.0.codec.colorspace">709</property>
  <property name="meta.media.0.codec.name">h264</property>
  <property name="meta.media.0.codec.long_name">H.264 / AVC / MPEG-4 AVC / MPEG-4 part 10</property>
  <property name="meta.media.0.codec.bit_rate">6635533</property>
  <property name="meta.attr.0.stream.handler_name.markup">VideoHandler</property>
  <property name="meta.attr.0.stream.vendor_id.markup">[0][0][0][0]</property>
  <property name="meta.media.1.stream.type">audio</property>
  <property name="meta.media.1.codec.sample_fmt">fltp</property>
  <property name="meta.media.1.codec.sample_rate">48000</property>
  <property name="meta.media.1.codec.channels">2</property>
  <property name="meta.media.1.codec.layout">stereo</property>
  <property name="meta.media.1.codec.name">aac</property>
  <property name="meta.media.1.codec.long_name">AAC (Advanced Audio Coding)</property>
  <property name="meta.media.1.codec.bit_rate">140005</property>
  <property name="meta.attr.1.stream.handler_name.markup">SoundHandler</property>
  <property name="meta.attr.1.stream.vendor_id.markup">[0][0][0][0]</property>
  <property name="meta.attr.major_brand.markup">isom</property>
  <property name="meta.attr.minor_version.markup">512</property>
  <property name="meta.attr.compatible_brands.markup">isomiso2avc1mp41</property>
  <property name="meta.attr.encoder.markup">Google</property>
  <property name="seekable">1</property>
  <property name="meta.media.sample_aspect_num">1</property>
  <property name="meta.media.sample_aspect_den">1</property>
  <property name="format">3</property>
  <property name="audio_index">1</property>
  <property name="video_index">0</property>
  <property name="vstream">0</property>
  <property name="meta.media.frame_rate_num">24</property>
  <property name="meta.media.frame_rate_den">1</property>
  <property name="meta.media.colorspace">709</property>
  <property name="meta.media.color_trc">2</property>
  <property name="meta.media.has_b_frames">2</property>
  <property name="meta.media.width">1280</property>
  <property name="meta.media.height">720</property>
  <property name="meta.media.aspect_ratio">1</property>
  <property name="meta.media.color_range">mpeg</property>
  <property name="astream">0</property>
  <property name="meta.media.top_field_first">0</property>
  <property name="meta.media.progressive">1</property>
  <property name="kdenlive:folderid">19</property>
  <property name="kdenlive:id">13</property>
  <property name="kdenlive:control_uuid">{9bef7225-46e3-4cb1-bf03-b5c43671c043}</property>
  <property name="mute_on_pause">0</property>
  <property name="kdenlive:clip_type">0</property>
  <property name="kdenlive:file_size">6789339</property>
  <property name="kdenlive:kextractor">1</property>
  <property name="kdenlive:meta.extractor.Bitrate:">6789 kb/s</property>
  <property name="kdenlive:monitorPosition">40</property>
  <property name="kdenlive:file_hash">d7652505f16cfa3643ae83849f37af44</property>
 </chain>
 <chain id="chain31" out="00:00:49.067">
  <property name="length">1473</property>
  <property name="eof">pause</property>
  <property name="resource">7-audios/2.mp3</property>
  <property name="mlt_service">avformat</property>
  <property name="meta.media.nb_streams">1</property>
  <property name="meta.media.0.stream.type">audio</property>
  <property name="meta.media.0.codec.sample_fmt">fltp</property>
  <property name="meta.media.0.codec.sample_rate">44100</property>
  <property name="meta.media.0.codec.channels">1</property>
  <property name="meta.media.0.codec.layout">mono</property>
  <property name="meta.media.0.codec.name">mp3float</property>
  <property name="meta.media.0.codec.long_name">MP3 (MPEG audio layer 3)</property>
  <property name="meta.media.0.codec.bit_rate">128000</property>
  <property name="meta.attr.encoder.markup">Lavf60.16.100</property>
  <property name="seekable">1</property>
  <property name="audio_index">0</property>
  <property name="video_index">-1</property>
  <property name="astream">0</property>
  <property name="kdenlive:folderid">27</property>
  <property name="kdenlive:id">14</property>
  <property name="kdenlive:control_uuid">{c77bae37-7bf7-4ae2-a7b7-70132462ee57}</property>
  <property name="kdenlive:clip_type">1</property>
  <property name="kdenlive:file_size">802417</property>
  <property name="kdenlive:file_hash">e068c992a4ddd59201872db9b5770d24</property>
 </chain>
 <chain id="chain32" out="00:00:41.467">
  <property name="length">1245</property>
  <property name="eof">pause</property>
  <property name="resource">7-audios/3.mp3</property>
  <property name="mlt_service">avformat</property>
  <property name="meta.media.nb_streams">1</property>
  <property name="meta.media.0.stream.type">audio</property>
  <property name="meta.media.0.codec.sample_fmt">fltp</property>
  <property name="meta.media.0.codec.sample_rate">44100</property>
  <property name="meta.media.0.codec.channels">1</property>
  <property name="meta.media.0.codec.layout">mono</property>
  <property name="meta.media.0.codec.name">mp3float</property>
  <property name="meta.media.0.codec.long_name">MP3 (MPEG audio layer 3)</property>
  <property name="meta.media.0.codec.bit_rate">128000</property>
  <property name="meta.attr.encoder.markup">Lavf60.16.100</property>
  <property name="seekable">1</property>
  <property name="audio_index">0</property>
  <property name="video_index">-1</property>
  <property name="astream">0</property>
  <property name="kdenlive:folderid">27</property>
  <property name="kdenlive:id">16</property>
  <property name="kdenlive:control_uuid">{3cf9a4ef-5691-4348-aa6f-7886cea971d8}</property>
  <property name="kdenlive:clip_type">1</property>
  <property name="kdenlive:file_size">681209</property>
  <property name="kdenlive:file_hash">8ef260f9a51402d05f457b4ef6825b17</property>
  <property name="kdenlive:kextractor">1</property>
  <property name="kdenlive:meta.extractor.Bitrate:">128 kb/s</property>
  <property name="kdenlive:monitorPosition">0</property>
 </chain>
 <chain id="chain33" out="00:00:42.500">
  <property name="length">1276</property>
  <property name="eof">pause</property>
  <property name="resource">7-audios/4.mp3</property>
  <property name="mlt_service">avformat</property>
  <property name="meta.media.nb_streams">1</property>
  <property name="meta.media.0.stream.type">audio</property>
  <property name="meta.media.0.codec.sample_fmt">fltp</property>
  <property name="meta.media.0.codec.sample_rate">44100</property>
  <property name="meta.media.0.codec.channels">1</property>
  <property name="meta.media.0.codec.layout">mono</property>
  <property name="meta.media.0.codec.name">mp3float</property>
  <property name="meta.media.0.codec.long_name">MP3 (MPEG audio layer 3)</property>
  <property name="meta.media.0.codec.bit_rate">128000</property>
  <property name="meta.attr.encoder.markup">Lavf60.16.100</property>
  <property name="seekable">1</property>
  <property name="audio_index">0</property>
  <property name="video_index">-1</property>
  <property name="astream">0</property>
  <property name="kdenlive:folderid">27</property>
  <property name="kdenlive:id">17</property>
  <property name="kdenlive:control_uuid">{49cc2b77-9737-40c1-95b1-9f1991e5f8a8}</property>
  <property name="kdenlive:clip_type">1</property>
  <property name="kdenlive:file_size">697509</property>
  <property name="kdenlive:file_hash">46b198877b2479e19b4edaa492373b8f</property>
 </chain>
 <chain id="chain34" out="00:00:50.367">
  <property name="length">1512</property>
  <property name="eof">pause</property>
  <property name="resource">7-audios/5.mp3</property>
  <property name="mlt_service">avformat</property>
  <property name="meta.media.nb_streams">1</property>
  <property name="meta.media.0.stream.type">audio</property>
  <property name="meta.media.0.codec.sample_fmt">fltp</property>
  <property name="meta.media.0.codec.sample_rate">44100</property>
  <property name="meta.media.0.codec.channels">1</property>
  <property name="meta.media.0.codec.layout">mono</property>
  <property name="meta.media.0.codec.name">mp3float</property>
  <property name="meta.media.0.codec.long_name">MP3 (MPEG audio layer 3)</property>
  <property name="meta.media.0.codec.bit_rate">128000</property>
  <property name="meta.attr.encoder.markup">Lavf60.16.100</property>
  <property name="seekable">1</property>
  <property name="audio_index">0</property>
  <property name="video_index">-1</property>
  <property name="astream">0</property>
  <property name="kdenlive:folderid">27</property>
  <property name="kdenlive:id">18</property>
  <property name="kdenlive:control_uuid">{e716bd0f-80cf-48cf-a4c8-4afaaefa7477}</property>
  <property name="kdenlive:clip_type">1</property>
  <property name="kdenlive:file_size">823315</property>
  <property name="kdenlive:file_hash">6f6255f02168dde4eda257b3d01967eb</property>
  <property name="kdenlive:kextractor">1</property>
  <property name="kdenlive:meta.extractor.Bitrate:">128 kb/s</property>
  <property name="kdenlive:monitorPosition">0</property>
 </chain>
 <chain id="chain35" out="00:00:41.833">
  <property name="length">1256</property>
  <property name="eof">pause</property>
  <property name="resource">7-audios/6.mp3</property>
  <property name="mlt_service">avformat</property>
  <property name="meta.media.nb_streams">1</property>
  <property name="meta.media.0.stream.type">audio</property>
  <property name="meta.media.0.codec.sample_fmt">fltp</property>
  <property name="meta.media.0.codec.sample_rate">44100</property>
  <property name="meta.media.0.codec.channels">1</property>
  <property name="meta.media.0.codec.layout">mono</property>
  <property name="meta.media.0.codec.name">mp3float</property>
  <property name="meta.media.0.codec.long_name">MP3 (MPEG audio layer 3)</property>
  <property name="meta.media.0.codec.bit_rate">128000</property>
  <property name="meta.attr.encoder.markup">Lavf60.16.100</property>
  <property name="seekable">1</property>
  <property name="audio_index">0</property>
  <property name="video_index">-1</property>
  <property name="astream">0</property>
  <property name="kdenlive:folderid">27</property>
  <property name="kdenlive:id">20</property>
  <property name="kdenlive:control_uuid">{6dc0a3c8-1fac-48cd-9add-4898446a6c24}</property>
  <property name="kdenlive:clip_type">1</property>
  <property name="kdenlive:file_size">687060</property>
  <property name="kdenlive:file_hash">16435c49166b2bc9921d7b2697afbc3e</property>
 </chain>
 <chain id="chain36" out="00:00:39.200">
  <property name="length">1177</property>
  <property name="eof">pause</property>
  <property name="resource">7-audios/7.mp3</property>
  <property name="mlt_service">avformat</property>
  <property name="meta.media.nb_streams">1</property>
  <property name="meta.media.0.stream.type">audio</property>
  <property name="meta.media.0.codec.sample_fmt">fltp</property>
  <property name="meta.media.0.codec.sample_rate">44100</property>
  <property name="meta.media.0.codec.channels">1</property>
  <property name="meta.media.0.codec.layout">mono</property>
  <property name="meta.media.0.codec.name">mp3float</property>
  <property name="meta.media.0.codec.long_name">MP3 (MPEG audio layer 3)</property>
  <property name="meta.media.0.codec.bit_rate">128000</property>
  <property name="meta.attr.encoder.markup">Lavf60.16.100</property>
  <property name="seekable">1</property>
  <property name="audio_index">0</property>
  <property name="video_index">-1</property>
  <property name="astream">0</property>
  <property name="kdenlive:folderid">27</property>
  <property name="kdenlive:id">21</property>
  <property name="kdenlive:control_uuid">{77b15f93-0278-402c-9c01-d8a3082b288c}</property>
  <property name="kdenlive:clip_type">1</property>
  <property name="kdenlive:file_size">644846</property>
  <property name="kdenlive:file_hash">c0f56386c23ab641450a838a4f895dde</property>
  <property name="kdenlive:kextractor">1</property>
  <property name="kdenlive:meta.extractor.Bitrate:">128 kb/s</property>
  <property name="kdenlive:monitorPosition">0</property>
 </chain>
 <producer id="producer9" in="00:00:00.000" out="00:00:07.967">
  <property name="length">240</property>
  <property name="eof">pause</property>
  <property name="resource"/>
  <property name="meta.media.progressive">1</property>
  <property name="aspect_ratio">1</property>
  <property name="seekable">1</property>
  <property name="mlt_service">kdenlivetitle</property>
  <property name="kdenlive:duration">00:00:08.000</property>
  <property name="kdenlive:clipname">AI EVERYWHER...</property>
  <property name="xmldata">&lt;kdenlivetitle LC_NUMERIC="C" duration="240" height="1080" out="239" width="1920">
 &lt;item type="QGraphicsTextItem" z-index="1001">
  &lt;position x="350.711" y="229">
   &lt;transform>1,0,0,0,1,0,0,0,1&lt;/transform>
  &lt;/position>
  &lt;content alignment="4" box-height="576" box-width="1229.03" font="Ubuntu Sans" font-color="255,255,255,255" font-italic="0" font-pixel-size="160" font-underline="0" font-weight="700" letter-spacing="10" line-spacing="0" shadow="0;#64000000;3;3;3" tab-width="80" typewriter="1;3;1;0;0">Does AI really 
"understand"
the world?&lt;/content>
 &lt;/item>
 &lt;startviewport rect="0,0,1920,1080"/>
 &lt;endviewport rect="0,0,1920,1080"/>
 &lt;background color="0,0,0,0"/>
&lt;/kdenlivetitle>
</property>
  <property name="xml">was here</property>
  <property name="kdenlive:folderid">50</property>
  <property name="kdenlive:id">22</property>
  <property name="kdenlive:control_uuid">{81299fe5-1128-4e29-9b6e-fc7e6004909d}</property>
  <property name="kdenlive:clip_type">2</property>
  <property name="kdenlive:uniqueId">{b75f678d-2a5c-494e-9abe-19c25acb1dcb}</property>
  <property name="kdenlive:file_hash">306642e2fddce37144c80eca1317a7b0</property>
  <property name="force_reload">0</property>
  <property name="kdenlive:monitorPosition">197</property>
  <property name="meta.media.width">1920</property>
  <property name="meta.media.height">1080</property>
 </producer>
 <chain id="chain37" out="00:00:08.067">
  <property name="length">243</property>
  <property name="eof">pause</property>
  <property name="resource">sound-effects/keyboard-typing-sound-effect.mp3</property>
  <property name="mlt_service">avformat</property>
  <property name="meta.media.nb_streams">1</property>
  <property name="meta.media.0.stream.type">audio</property>
  <property name="meta.media.0.codec.sample_fmt">fltp</property>
  <property name="meta.media.0.codec.sample_rate">44100</property>
  <property name="meta.media.0.codec.channels">2</property>
  <property name="meta.media.0.codec.layout">stereo</property>
  <property name="meta.media.0.codec.name">mp3float</property>
  <property name="meta.media.0.codec.long_name">MP3 (MPEG audio layer 3)</property>
  <property name="meta.media.0.codec.bit_rate">256000</property>
  <property name="seekable">1</property>
  <property name="audio_index">0</property>
  <property name="video_index">-1</property>
  <property name="astream">0</property>
  <property name="kdenlive:folderid">37</property>
  <property name="kdenlive:id">23</property>
  <property name="kdenlive:control_uuid">{5adca730-cb6d-4be9-a08c-360448def8e4}</property>
  <property name="kdenlive:clip_type">1</property>
  <property name="kdenlive:file_size">259134</property>
  <property name="kdenlive:file_hash">b6245e85bac091aabc33c87fe94a36a0</property>
  <property name="kdenlive:kextractor">1</property>
  <property name="kdenlive:meta.extractor.Bitrate:">256 kb/s</property>
  <property name="kdenlive:monitorPosition">143</property>
 </chain>
 <producer id="producer3" in="00:00:00.000" out="00:00:07.967">
  <property name="length">240</property>
  <property name="eof">pause</property>
  <property name="resource"/>
  <property name="meta.media.progressive">1</property>
  <property name="aspect_ratio">1</property>
  <property name="seekable">1</property>
  <property name="mlt_service">kdenlivetitle</property>
  <property name="kdenlive:duration">00:00:08.000</property>
  <property name="kdenlive:clipname">POPPER &amp; KUHN</property>
  <property name="xmldata">&lt;kdenlivetitle LC_NUMERIC="C" duration="240" height="1080" out="239" width="1920">
 &lt;item type="QGraphicsTextItem" z-index="1001">
  &lt;position x="265.101" y="448">
   &lt;transform>1,0,0,0,1,0,0,0,1&lt;/transform>
  &lt;/position>
  &lt;content alignment="4" box-height="197" box-width="1400.28" font="Ubuntu Sans" font-color="255,255,255,255" font-italic="0" font-outline="0" font-outline-color="0,0,0,255" font-pixel-size="160" font-underline="0" font-weight="700" letter-spacing="10" line-spacing="5" shadow="0;#64000000;3;3;3" tab-width="80" typewriter="1;3;1;0;0">POPPER &amp;amp; KUHN&lt;/content>
 &lt;/item>
 &lt;startviewport rect="0,0,1920,1080"/>
 &lt;endviewport rect="0,0,1920,1080"/>
 &lt;background color="0,0,0,0"/>
&lt;/kdenlivetitle>
</property>
  <property name="xml">was here</property>
  <property name="kdenlive:folderid">50</property>
  <property name="kdenlive:id">24</property>
  <property name="kdenlive:clip_type">2</property>
  <property name="kdenlive:file_hash">819e1670419db803f9a3d1250f47d891</property>
  <property name="force_reload">0</property>
  <property name="kdenlive:monitorPosition">175</property>
  <property name="kdenlive:control_uuid">{28116924-ebf7-4575-bb48-398a545742bc}</property>
  <property name="kdenlive:uniqueId">{d777b659-8a8d-40f9-9a0c-12b17b914694}</property>
  <property name="meta.media.width">1920</property>
  <property name="meta.media.height">1080</property>
 </producer>
 <producer id="producer4" in="00:00:00.000" out="00:00:07.967">
  <property name="length">240</property>
  <property name="eof">pause</property>
  <property name="resource"/>
  <property name="meta.media.progressive">1</property>
  <property name="aspect_ratio">1</property>
  <property name="seekable">1</property>
  <property name="mlt_service">kdenlivetitle</property>
  <property name="kdenlive:duration">00:00:08.000</property>
  <property name="kdenlive:clipname">WHAT AI MODELS ARE</property>
  <property name="xmldata">&lt;kdenlivetitle LC_NUMERIC="C" duration="240" height="1080" out="239" width="1920">
 &lt;item type="QGraphicsTextItem" z-index="1001">
  &lt;position x="295" y="345">
   &lt;transform>1,0,0,0,1,0,0,0,1&lt;/transform>
  &lt;/position>
  &lt;content alignment="4" box-height="389" box-width="1340.63" font="Ubuntu Sans" font-color="255,255,255,255" font-italic="0" font-pixel-size="160" font-underline="0" font-weight="700" letter-spacing="10" line-spacing="5" shadow="0;#64000000;3;3;3" tab-width="80" typewriter="1;3;1;0;0">WHAT 
AI MODELS ARE&lt;/content>
 &lt;/item>
 &lt;startviewport rect="0,0,1920,1080"/>
 &lt;endviewport rect="0,0,1920,1080"/>
 &lt;background color="0,0,0,0"/>
&lt;/kdenlivetitle>
</property>
  <property name="xml">was here</property>
  <property name="kdenlive:folderid">50</property>
  <property name="kdenlive:id">25</property>
  <property name="kdenlive:clip_type">2</property>
  <property name="kdenlive:file_hash">9c9f7ed646371e67f75971ab189688c4</property>
  <property name="force_reload">0</property>
  <property name="kdenlive:monitorPosition">175</property>
  <property name="kdenlive:control_uuid">{0964d9ba-ca4d-4412-b075-e5837f8a247e}</property>
  <property name="kdenlive:uniqueId">{9a7bacb8-73a5-4af3-9a50-1817f090279e}</property>
  <property name="meta.media.width">1920</property>
  <property name="meta.media.height">1080</property>
 </producer>
 <producer id="producer5" in="00:00:00.000" out="00:00:07.967">
  <property name="length">240</property>
  <property name="eof">pause</property>
  <property name="resource"/>
  <property name="meta.media.progressive">1</property>
  <property name="aspect_ratio">1</property>
  <property name="seekable">1</property>
  <property name="mlt_service">kdenlivetitle</property>
  <property name="kdenlive:duration">00:00:08.000</property>
  <property name="kdenlive:clipname">THE LABORATORY</property>
  <property name="xmldata">&lt;kdenlivetitle LC_NUMERIC="C" duration="240" height="1080" out="239" width="1920">
 &lt;item type="QGraphicsTextItem" z-index="1001">
  &lt;position x="188.148" y="448">
   &lt;transform>1,0,0,0,1,0,0,0,1&lt;/transform>
  &lt;/position>
  &lt;content alignment="4" box-height="197" box-width="1554.19" font="Ubuntu Sans" font-color="255,255,255,255" font-italic="0" font-outline="0" font-outline-color="0,0,0,255" font-pixel-size="160" font-underline="0" font-weight="700" letter-spacing="10" line-spacing="5" shadow="0;#64000000;3;3;3" tab-width="80" typewriter="1;3;1;0;0">THE LABORATORY&lt;/content>
 &lt;/item>
 &lt;startviewport rect="0,0,1920,1080"/>
 &lt;endviewport rect="0,0,1920,1080"/>
 &lt;background color="0,0,0,0"/>
&lt;/kdenlivetitle>
</property>
  <property name="xml">was here</property>
  <property name="kdenlive:folderid">50</property>
  <property name="kdenlive:id">26</property>
  <property name="kdenlive:clip_type">2</property>
  <property name="kdenlive:file_hash">db997efef5445ef31ee13d51a64eb16d</property>
  <property name="force_reload">0</property>
  <property name="kdenlive:monitorPosition">175</property>
  <property name="kdenlive:control_uuid">{e45f6d3c-fb4b-4f8b-a477-8172b83c5ac8}</property>
  <property name="kdenlive:uniqueId">{570a1ce4-78af-4f18-8e5b-2727f05b85c2}</property>
  <property name="meta.media.width">1920</property>
  <property name="meta.media.height">1080</property>
 </producer>
 <producer id="producer6" in="00:00:00.000" out="00:00:07.967">
  <property name="length">240</property>
  <property name="eof">pause</property>
  <property name="resource"/>
  <property name="meta.media.progressive">1</property>
  <property name="aspect_ratio">1</property>
  <property name="seekable">1</property>
  <property name="mlt_service">kdenlivetitle</property>
  <property name="kdenlive:duration">00:00:08.000</property>
  <property name="kdenlive:clipname">NO CONSCIOUSNESS</property>
  <property name="xmldata">&lt;kdenlivetitle LC_NUMERIC="C" duration="240" height="1080" out="239" width="1920">
 &lt;item type="QGraphicsTextItem" z-index="1001">
  &lt;position x="113" y="448">
   &lt;transform>1,0,0,0,1,0,0,0,1&lt;/transform>
  &lt;/position>
  &lt;content alignment="4" box-height="197" box-width="1689.72" font="Ubuntu Sans" font-color="255,255,255,255" font-italic="0" font-outline="0" font-outline-color="0,0,0,255" font-pixel-size="160" font-underline="0" font-weight="700" letter-spacing="6" line-spacing="5" shadow="0;#64000000;3;3;3" tab-width="80" typewriter="1;3;1;0;0">NO CONSCIOUSNESS&lt;/content>
 &lt;/item>
 &lt;startviewport rect="0,0,1920,1080"/>
 &lt;endviewport rect="0,0,1920,1080"/>
 &lt;background color="0,0,0,0"/>
&lt;/kdenlivetitle>
</property>
  <property name="xml">was here</property>
  <property name="kdenlive:folderid">50</property>
  <property name="kdenlive:id">28</property>
  <property name="kdenlive:clip_type">2</property>
  <property name="kdenlive:file_hash">e577525d721db8b4e9c6aa77dba7edad</property>
  <property name="force_reload">0</property>
  <property name="kdenlive:monitorPosition">175</property>
  <property name="kdenlive:control_uuid">{973da53b-41d5-48a5-a07d-a4cbebb2c626}</property>
  <property name="kdenlive:uniqueId">{0b059a7c-afb2-4c29-99ba-70a673229cdf}</property>
  <property name="meta.media.width">1920</property>
  <property name="meta.media.height">1080</property>
 </producer>
 <producer id="producer7" in="00:00:00.000" out="00:00:07.967">
  <property name="length">240</property>
  <property name="eof">pause</property>
  <property name="resource"/>
  <property name="meta.media.progressive">1</property>
  <property name="aspect_ratio">1</property>
  <property name="seekable">1</property>
  <property name="mlt_service">kdenlivetitle</property>
  <property name="kdenlive:duration">00:00:08.000</property>
  <property name="kdenlive:clipname">THE PARTNERSHIP</property>
  <property name="xmldata">&lt;kdenlivetitle LC_NUMERIC="C" duration="240" height="1080" out="239" width="1920">
 &lt;item type="QGraphicsTextItem" z-index="1001">
  &lt;position x="177.992" y="448">
   &lt;transform>1,0,0,0,1,0,0,0,1&lt;/transform>
  &lt;/position>
  &lt;content alignment="4" box-height="197" box-width="1574.5" font="Ubuntu Sans" font-color="255,255,255,255" font-italic="0" font-outline="0" font-outline-color="0,0,0,255" font-pixel-size="160" font-underline="0" font-weight="700" letter-spacing="10" line-spacing="5" shadow="0;#64000000;3;3;3" tab-width="80" typewriter="1;3;1;0;0">THE PARTNERSHIP&lt;/content>
 &lt;/item>
 &lt;startviewport rect="0,0,1920,1080"/>
 &lt;endviewport rect="0,0,1920,1080"/>
 &lt;background color="0,0,0,0"/>
&lt;/kdenlivetitle>
</property>
  <property name="xml">was here</property>
  <property name="kdenlive:folderid">50</property>
  <property name="kdenlive:id">29</property>
  <property name="kdenlive:clip_type">2</property>
  <property name="kdenlive:file_hash">b9781955e93ef3c863b87a5feeefb7d1</property>
  <property name="force_reload">0</property>
  <property name="kdenlive:monitorPosition">175</property>
  <property name="kdenlive:control_uuid">{b0ccf73b-b55f-43a5-87e8-8eadb65fcdd3}</property>
  <property name="kdenlive:uniqueId">{90c82752-34af-4f80-9f48-168396c6ef5a}</property>
  <property name="meta.media.width">1920</property>
  <property name="meta.media.height">1080</property>
 </producer>
 <producer id="producer8" in="00:00:00.000" out="00:00:07.967">
  <property name="length">240</property>
  <property name="eof">pause</property>
  <property name="resource"/>
  <property name="meta.media.progressive">1</property>
  <property name="aspect_ratio">1</property>
  <property name="seekable">1</property>
  <property name="mlt_service">kdenlivetitle</property>
  <property name="kdenlive:duration">00:00:08.000</property>
  <property name="kdenlive:clipname">FUTURE SMART...</property>
  <property name="xmldata">&lt;kdenlivetitle LC_NUMERIC="C" duration="240" height="1080" out="239" width="1920">
 &lt;item type="QGraphicsTextItem" z-index="1001">
  &lt;position x="87.3201" y="448">
   &lt;transform>1,0,0,0,1,0,0,0,1&lt;/transform>
  &lt;/position>
  &lt;content alignment="4" box-height="197" box-width="1755.84" font="Ubuntu Sans" font-color="255,255,255,255" font-italic="0" font-pixel-size="160" font-underline="0" font-weight="700" letter-spacing="10" line-spacing="5" shadow="0;#64000000;3;3;3" tab-width="80" typewriter="1;3;1;0;0">FUTURE SMART CITY&lt;/content>
 &lt;/item>
 &lt;startviewport rect="0,0,1920,1080"/>
 &lt;endviewport rect="0,0,1920,1080"/>
 &lt;background color="0,0,0,0"/>
&lt;/kdenlivetitle>
</property>
  <property name="xml">was here</property>
  <property name="kdenlive:folderid">50</property>
  <property name="kdenlive:id">30</property>
  <property name="kdenlive:clip_type">2</property>
  <property name="kdenlive:file_hash">19fafb40ce42ff43280e78ced5ae9f74</property>
  <property name="force_reload">0</property>
  <property name="kdenlive:monitorPosition">175</property>
  <property name="kdenlive:control_uuid">{df24045c-b62d-45e8-868c-337912f014b6}</property>
  <property name="kdenlive:uniqueId">{65351f84-77c6-4724-b60d-20ea771de154}</property>
  <property name="meta.media.width">1920</property>
  <property name="meta.media.height">1080</property>
 </producer>
 <producer id="producer2" in="00:00:00.000" out="00:00:07.967">
  <property name="length">240</property>
  <property name="eof">pause</property>
  <property name="resource">0x000000ff</property>
  <property name="aspect_ratio">1</property>
  <property name="mlt_service">color</property>
  <property name="kdenlive:clipname">black</property>
  <property name="kdenlive:duration">00:00:05:00</property>
  <property name="xml">was here</property>
  <property name="seekable">1</property>
  <property name="kdenlive:folderid">-1</property>
  <property name="kdenlive:id">31</property>
  <property name="kdenlive:control_uuid">{da197c9f-d7bb-4add-871f-a97d4e96067b}</property>
  <property name="mlt_image_format">rgb</property>
  <property name="kdenlive:clip_type">2</property>
  <property name="kdenlive:file_hash">9196813120dc5c505072516b15baf414</property>
  <property name="kdenlive:monitorPosition">223</property>
 </producer>
 <chain id="chain39" out="00:00:32.333">
  <property name="length">971</property>
  <property name="eof">pause</property>
  <property name="resource">sound-effects/background.mp3</property>
  <property name="mlt_service">avformat</property>
  <property name="meta.media.nb_streams">1</property>
  <property name="meta.media.0.stream.type">audio</property>
  <property name="meta.media.0.codec.sample_fmt">fltp</property>
  <property name="meta.media.0.codec.sample_rate">48000</property>
  <property name="meta.media.0.codec.channels">2</property>
  <property name="meta.media.0.codec.layout">stereo</property>
  <property name="meta.media.0.codec.name">mp3float</property>
  <property name="meta.media.0.codec.long_name">MP3 (MPEG audio layer 3)</property>
  <property name="meta.media.0.codec.bit_rate">256000</property>
  <property name="seekable">1</property>
  <property name="audio_index">0</property>
  <property name="video_index">-1</property>
  <property name="astream">0</property>
  <property name="kdenlive:folderid">35</property>
  <property name="kdenlive:id">32</property>
  <property name="kdenlive:control_uuid">{66eb70c5-414c-4424-ba4e-006eaba15580}</property>
  <property name="kdenlive:clip_type">1</property>
  <property name="kdenlive:file_size">1035264</property>
  <property name="kdenlive:file_hash">1a78a74e5bf5d3f3dbbbb47e3e012993</property>
  <property name="kdenlive:kextractor">1</property>
  <property name="kdenlive:meta.extractor.Bitrate:">256 kb/s</property>
  <property name="kdenlive:clipzones">[
    {
        "in": 0,
        "name": "Zone 1",
        "out": 970
    }
]
</property>
 </chain>
 <chain id="chain15" out="00:00:34.600">
  <property name="length">1039</property>
  <property name="eof">pause</property>
  <property name="resource">7-audios/1.mp3</property>
  <property name="mlt_service">avformat</property>
  <property name="meta.media.nb_streams">1</property>
  <property name="meta.media.0.stream.type">audio</property>
  <property name="meta.media.0.codec.sample_fmt">fltp</property>
  <property name="meta.media.0.codec.sample_rate">44100</property>
  <property name="meta.media.0.codec.channels">1</property>
  <property name="meta.media.0.codec.layout">mono</property>
  <property name="meta.media.0.codec.name">mp3float</property>
  <property name="meta.media.0.codec.long_name">MP3 (MPEG audio layer 3)</property>
  <property name="meta.media.0.codec.bit_rate">128000</property>
  <property name="meta.attr.encoder.markup">Lavf60.16.100</property>
  <property name="seekable">1</property>
  <property name="audio_index">0</property>
  <property name="video_index">-1</property>
  <property name="astream">0</property>
  <property name="kdenlive:folderid">27</property>
  <property name="kdenlive:id">36</property>
  <property name="kdenlive:control_uuid">{b3de06e7-2700-4988-9c8e-9d165b590c21}</property>
  <property name="kdenlive:clip_type">1</property>
  <property name="kdenlive:file_size">571285</property>
  <property name="kdenlive:file_hash">1cd3093ec1dcecd77bb32901c9c76896</property>
  <property name="kdenlive:kextractor">1</property>
  <property name="kdenlive:meta.extractor.Bitrate:">128 kb/s</property>
  <property name="kdenlive:monitorPosition">0</property>
 </chain>
 <chain id="chain18" out="00:00:20.000">
  <property name="length">601</property>
  <property name="eof">pause</property>
  <property name="resource">/home/ansinitro/Downloads/in-phones.mp4</property>
  <property name="mlt_service">avformat-novalidate</property>
  <property name="meta.media.nb_streams">1</property>
  <property name="meta.media.0.stream.type">video</property>
  <property name="meta.media.0.stream.frame_rate">25</property>
  <property name="meta.media.0.stream.sample_aspect_ratio">0</property>
  <property name="meta.media.0.codec.width">1920</property>
  <property name="meta.media.0.codec.height">1080</property>
  <property name="meta.media.0.codec.rotate">0</property>
  <property name="meta.media.0.codec.pix_fmt">yuvj422p</property>
  <property name="meta.media.0.codec.sample_aspect_ratio">1</property>
  <property name="meta.media.0.codec.colorspace">709</property>
  <property name="meta.media.0.codec.name">h264</property>
  <property name="meta.media.0.codec.long_name">H.264 / AVC / MPEG-4 AVC / MPEG-4 part 10</property>
  <property name="meta.media.0.codec.bit_rate">7742008</property>
  <property name="meta.attr.0.stream.language.markup">eng</property>
  <property name="meta.attr.0.stream.handler_name.markup">VideoHandler</property>
  <property name="meta.attr.0.stream.vendor_id.markup">[0][0][0][0]</property>
  <property name="meta.attr.major_brand.markup">isom</property>
  <property name="meta.attr.minor_version.markup">512</property>
  <property name="meta.attr.compatible_brands.markup">isomiso2avc1mp41</property>
  <property name="meta.attr.encoder.markup">Lavf56.4.101</property>
  <property name="seekable">1</property>
  <property name="meta.media.sample_aspect_num">1</property>
  <property name="meta.media.sample_aspect_den">1</property>
  <property name="format">3</property>
  <property name="audio_index">-1</property>
  <property name="video_index">0</property>
  <property name="vstream">0</property>
  <property name="meta.media.frame_rate_num">25</property>
  <property name="meta.media.frame_rate_den">1</property>
  <property name="meta.media.colorspace">709</property>
  <property name="meta.media.color_trc">2</property>
  <property name="meta.media.has_b_frames">2</property>
  <property name="meta.media.width">1920</property>
  <property name="meta.media.height">1080</property>
  <property name="meta.media.aspect_ratio">1</property>
  <property name="meta.media.color_range">full</property>
  <property name="meta.media.top_field_first">0</property>
  <property name="meta.media.progressive">1</property>
  <property name="kdenlive:folderid">-1</property>
  <property name="kdenlive:id">42</property>
  <property name="kdenlive:control_uuid">{b2e27493-3dbd-4c49-bfdc-3be895ed2916}</property>
  <property name="mute_on_pause">0</property>
  <property name="kdenlive:clip_type">2</property>
  <property name="kdenlive:file_size">19397488</property>
  <property name="kdenlive:file_hash">c0109a3916dc469c4f381584ef896b2f</property>
  <property name="kdenlive:kextractor">1</property>
  <property name="kdenlive:meta.extractor.Bitrate:">7743 kb/s</property>
 </chain>
 <producer id="producer0" in="00:00:00.000" out="00:11:28.400">
  <property name="length">2147483647</property>
  <property name="eof">continue</property>
  <property name="resource">black</property>
  <property name="aspect_ratio">1</property>
  <property name="mlt_service">color</property>
  <property name="kdenlive:playlistid">black_track</property>
  <property name="mlt_image_format">rgba</property>
  <property name="set.test_audio">0</property>
 </producer>
 <producer id="producer1" in="00:00:00.000" out="00:11:28.400">
  <property name="length">2147483647</property>
  <property name="eof">continue</property>
  <property name="resource">0</property>
  <property name="aspect_ratio">1</property>
  <property name="mlt_service">color</property>
  <property name="kdenlive:playlistid">black_track</property>
  <property name="mlt_image_format">yuv422</property>
  <property name="set.test_audio">0</property>
 </producer>
 <chain id="chain0" out="00:00:32.333">
  <property name="length">971</property>
  <property name="eof">pause</property>
  <property name="resource">sound-effects/background.mp3</property>
  <property name="mlt_service">avformat-novalidate</property>
  <property name="seekable">1</property>
  <property name="audio_index">0</property>
  <property name="video_index">-1</property>
  <property name="astream">0</property>
  <property name="kdenlive:folderid">35</property>
  <property name="kdenlive:id">32</property>
  <property name="kdenlive:control_uuid">{66eb70c5-414c-4424-ba4e-006eaba15580}</property>
  <property name="kdenlive:clip_type">1</property>
  <property name="kdenlive:file_size">1035264</property>
  <property name="kdenlive:file_hash">1a78a74e5bf5d3f3dbbbb47e3e012993</property>
  <property name="kdenlive:kextractor">1</property>
  <property name="kdenlive:meta.extractor.Bitrate:">256 kb/s</property>
  <property name="kdenlive:clipzones">[
    {
        "in": 0,
        "name": "Zone 1",
        "out": 970
    }
]
</property>
  <property name="meta.media.nb_streams">1</property>
  <property name="meta.media.0.stream.type">audio</property>
  <property name="meta.media.0.codec.sample_fmt">fltp</property>
  <property name="meta.media.0.codec.sample_rate">48000</property>
  <property name="meta.media.0.codec.channels">2</property>
  <property name="meta.media.0.codec.layout">stereo</property>
  <property name="meta.media.0.codec.name">mp3float</property>
  <property name="meta.media.0.codec.long_name">MP3 (MPEG audio layer 3)</property>
  <property name="meta.media.0.codec.bit_rate">256000</property>
  <property name="xml">was here</property>
  <property name="mute_on_pause">0</property>
  <property name="set.test_audio">0</property>
  <property name="set.test_image">1</property>
 </chain>
 <playlist id="playlist1">
  <property name="kdenlive:audio_track">1</property>
  <entry in="00:00:00.000" out="00:00:32.333" producer="chain0">
   <property name="kdenlive:id">32</property>
  </entry>
  <entry in="00:00:00.000" out="00:00:32.333" producer="chain0">
   <property name="kdenlive:id">32</property>
  </entry>
  <entry in="00:00:00.000" out="00:00:32.333" producer="chain0">
   <property name="kdenlive:id">32</property>
  </entry>
  <entry in="00:00:00.000" out="00:00:32.333" producer="chain0">
   <property name="kdenlive:id">32</property>
  </entry>
  <entry in="00:00:00.000" out="00:00:32.333" producer="chain0">
   <property name="kdenlive:id">32</property>
  </entry>
  <entry in="00:00:00.000" out="00:00:32.333" producer="chain0">
   <property name="kdenlive:id">32</property>
  </entry>
  <entry in="00:00:00.000" out="00:00:32.333" producer="chain0">
   <property name="kdenlive:id">32</property>
  </entry>
  <entry in="00:00:00.000" out="00:00:32.333" producer="chain0">
   <property name="kdenlive:id">32</property>
  </entry>
  <entry in="00:00:00.000" out="00:00:32.333" producer="chain0">
   <property name="kdenlive:id">32</property>
  </entry>
  <entry in="00:00:00.000" out="00:00:32.333" producer="chain0">
   <property name="kdenlive:id">32</property>
  </entry>
  <entry in="00:00:00.000" out="00:00:32.333" producer="chain0">
   <property name="kdenlive:id">32</property>
  </entry>
  <entry in="00:00:00.000" out="00:00:32.333" producer="chain0">
   <property name="kdenlive:id">32</property>
  </entry>
 </playlist>
 <playlist id="playlist2">
  <property name="kdenlive:audio_track">1</property>
 </playlist>
 <tractor id="tractor0" in="00:00:00.000" out="00:06:28.367">
  <property name="kdenlive:audio_track">1</property>
  <property name="kdenlive:trackheight">72</property>
  <property name="kdenlive:timeline_active">1</property>
  <property name="kdenlive:collapsed">0</property>
  <property name="kdenlive:thumbs_format"/>
  <property name="kdenlive:audio_rec"/>
  <track hide="video" producer="playlist1"/>
  <track hide="video" producer="playlist2"/>
  <filter id="filter0">
   <property name="window">75</property>
   <property name="max_gain">20dB</property>
   <property name="channel_mask">-1</property>
   <property name="mlt_service">volume</property>
   <property name="internal_added">237</property>
   <property name="disable">1</property>
  </filter>
  <filter id="filter1">
   <property name="channel">-1</property>
   <property name="mlt_service">panner</property>
   <property name="internal_added">237</property>
   <property name="start">0.5</property>
   <property name="disable">1</property>
  </filter>
 </tractor>
 <tractor id="{fb9b3217-9871-462e-b2b6-eae8a6430db1}" in="00:00:00.000" out="00:11:28.400">
  <property name="kdenlive:sequenceproperties.hasAudio">1</property>
  <property name="kdenlive:sequenceproperties.hasVideo">0</property>
  <property name="kdenlive:clip_type">1</property>
  <property name="kdenlive:uuid">{fb9b3217-9871-462e-b2b6-eae8a6430db1}</property>
  <property name="kdenlive:clipname">background-sound</property>
  <property name="kdenlive:producer_type">17</property>
  <property name="kdenlive:sequenceproperties.tracksCount">1</property>
  <property name="kdenlive:sequenceproperties.activeTrack">0</property>
  <property name="kdenlive:sequenceproperties.documentuuid">{7beb0241-7c06-4d1f-89cb-be4e9ad332ec}</property>
  <property name="kdenlive:control_uuid">{bb7801cd-989b-4ce2-b120-3855d1218768}</property>
  <property name="kdenlive:duration">00:06:28.400</property>
  <property name="kdenlive:maxduration">11652</property>
  <property name="kdenlive:description"/>
  <property name="kdenlive:zone_in">0</property>
  <property name="kdenlive:zone_out">11651</property>
  <property name="kdenlive:id">34</property>
  <property name="kdenlive:file_hash">e6adab9c20448480d4e8851c9dd6b488</property>
  <property name="kdenlive:folderid">2</property>
  <property name="kdenlive:sequenceproperties.disablepreview">0</property>
  <property name="kdenlive:sequenceproperties.position">11652</property>
  <property name="kdenlive:sequenceproperties.scrollPos">3126</property>
  <property name="kdenlive:sequenceproperties.tracks">1</property>
  <property name="kdenlive:sequenceproperties.verticalzoom">1</property>
  <property name="kdenlive:sequenceproperties.zonein">0</property>
  <property name="kdenlive:sequenceproperties.zoneout">75</property>
  <property name="kdenlive:sequenceproperties.zoom">8</property>
  <property name="kdenlive:sequenceproperties.groups">[
]
</property>
  <property name="kdenlive:sequenceproperties.guides">[
]
</property>
  <track producer="producer1"/>
  <track producer="tractor0"/>
  <transition id="transition0">
   <property name="a_track">0</property>
   <property name="b_track">1</property>
   <property name="mlt_service">mix</property>
   <property name="kdenlive_id">mix</property>
   <property name="internal_added">237</property>
   <property name="always_active">1</property>
   <property name="accepts_blanks">1</property>
   <property name="sum">1</property>
  </transition>
  <filter id="filter3">
   <property name="window">75</property>
   <property name="max_gain">20dB</property>
   <property name="channel_mask">-1</property>
   <property name="mlt_service">volume</property>
   <property name="internal_added">237</property>
   <property name="disable">1</property>
  </filter>
  <filter id="filter4">
   <property name="channel">-1</property>
   <property name="mlt_service">panner</property>
   <property name="internal_added">237</property>
   <property name="start">0.5</property>
   <property name="disable">1</property>
  </filter>
 </tractor>
 <playlist id="playlist0">
  <property name="kdenlive:audio_track">1</property>
  <entry in="00:00:00.000" out="00:06:28.367" producer="{fb9b3217-9871-462e-b2b6-eae8a6430db1}">
   <property name="kdenlive:maxduration">11652</property>
   <property name="kdenlive:id">34</property>
   <filter id="filter5">
    <property name="window">75</property>
    <property name="max_gain">20dB</property>
    <property name="channel_mask">-1</property>
    <property name="mlt_service">volume</property>
    <property name="kdenlive_id">gain</property>
    <property name="gain">0.05</property>
    <property name="kdenlive:collapsed">0</property>
   </filter>
  </entry>
 </playlist>
 <playlist id="playlist3">
  <property name="kdenlive:audio_track">1</property>
 </playlist>
 <tractor id="tractor1" in="00:00:00.000" out="00:06:28.367">
  <property name="kdenlive:audio_track">1</property>
  <property name="kdenlive:trackheight">49</property>
  <property name="kdenlive:timeline_active">0</property>
  <property name="kdenlive:collapsed">0</property>
  <property name="kdenlive:track_name">background</property>
  <property name="kdenlive:thumbs_format"/>
  <property name="kdenlive:audio_rec"/>
  <track hide="video" producer="playlist0"/>
  <track hide="video" producer="playlist3"/>
  <filter id="filter11">
   <property name="window">75</property>
   <property name="max_gain">20dB</property>
   <property name="channel_mask">-1</property>
   <property name="mlt_service">volume</property>
   <property name="internal_added">237</property>
   <property name="disable">1</property>
  </filter>
  <filter id="filter12">
   <property name="channel">-1</property>
   <property name="mlt_service">panner</property>
   <property name="internal_added">237</property>
   <property name="start">0.5</property>
   <property name="disable">1</property>
  </filter>
  <filter id="filter2">
   <property name="iec_scale">0</property>
   <property name="mlt_service">audiolevel</property>
   <property name="dbpeak">1</property>
   <property name="disable">1</property>
  </filter>
 </tractor>
 <chain id="chain1" out="00:00:07.967">
  <property name="length">240</property>
  <property name="eof">pause</property>
  <property name="resource">first-7-videos/1 INTRO: “AI Everywhere”.mp4</property>
  <property name="mlt_service">avformat-novalidate</property>
  <property name="seekable">1</property>
  <property name="format">3</property>
  <property name="audio_index">1</property>
  <property name="video_index">0</property>
  <property name="vstream">0</property>
  <property name="astream">0</property>
  <property name="kdenlive:folderid">19</property>
  <property name="kdenlive:id">7</property>
  <property name="kdenlive:control_uuid">{cd7cd5f9-3631-4a99-844d-dfda9cdb4c05}</property>
  <property name="mute_on_pause">0</property>
  <property name="kdenlive:clip_type">0</property>
  <property name="kdenlive:file_size">5058865</property>
  <property name="kdenlive:file_hash">1f7026584b702d88e07860a9aec62ef7</property>
  <property name="kdenlive:kextractor">1</property>
  <property name="kdenlive:meta.extractor.Bitrate:">5058 kb/s</property>
  <property name="kdenlive:monitorPosition">0</property>
  <property name="meta.media.nb_streams">2</property>
  <property name="meta.media.0.stream.type">video</property>
  <property name="meta.media.0.stream.frame_rate">24</property>
  <property name="meta.media.0.stream.sample_aspect_ratio">0</property>
  <property name="meta.media.0.codec.width">1280</property>
  <property name="meta.media.0.codec.height">720</property>
  <property name="meta.media.0.codec.rotate">0</property>
  <property name="meta.media.0.codec.pix_fmt">yuv420p</property>
  <property name="meta.media.0.codec.sample_aspect_ratio">0</property>
  <property name="meta.media.0.codec.colorspace">709</property>
  <property name="meta.media.0.codec.name">h264</property>
  <property name="meta.media.0.codec.long_name">H.264 / AVC / MPEG-4 AVC / MPEG-4 part 10</property>
  <property name="meta.media.0.codec.bit_rate">4905066</property>
  <property name="meta.attr.0.stream.handler_name.markup">VideoHandler</property>
  <property name="meta.attr.0.stream.vendor_id.markup">[0][0][0][0]</property>
  <property name="meta.media.1.stream.type">audio</property>
  <property name="meta.media.1.codec.sample_fmt">fltp</property>
  <property name="meta.media.1.codec.sample_rate">48000</property>
  <property name="meta.media.1.codec.channels">2</property>
  <property name="meta.media.1.codec.layout">stereo</property>
  <property name="meta.media.1.codec.name">aac</property>
  <property name="meta.media.1.codec.long_name">AAC (Advanced Audio Coding)</property>
  <property name="meta.media.1.codec.bit_rate">140006</property>
  <property name="meta.attr.1.stream.handler_name.markup">SoundHandler</property>
  <property name="meta.attr.1.stream.vendor_id.markup">[0][0][0][0]</property>
  <property name="meta.attr.major_brand.markup">isom</property>
  <property name="meta.attr.minor_version.markup">512</property>
  <property name="meta.attr.compatible_brands.markup">isomiso2avc1mp41</property>
  <property name="meta.attr.encoder.markup">Google</property>
  <property name="meta.media.sample_aspect_num">1</property>
  <property name="meta.media.sample_aspect_den">1</property>
  <property name="meta.media.frame_rate_num">24</property>
  <property name="meta.media.frame_rate_den">1</property>
  <property name="meta.media.colorspace">709</property>
  <property name="meta.media.color_trc">2</property>
  <property name="meta.media.has_b_frames">2</property>
  <property name="meta.media.width">1280</property>
  <property name="meta.media.height">720</property>
  <property name="meta.media.aspect_ratio">1</property>
  <property name="meta.media.color_range">mpeg</property>
  <property name="xml">was here</property>
  <property name="meta.media.top_field_first">0</property>
  <property name="meta.media.progressive">1</property>
  <property name="set.test_audio">0</property>
  <property name="set.test_image">1</property>
 </chain>
 <chain id="chain2" out="00:00:07.967">
  <property name="length">240</property>
  <property name="eof">pause</property>
  <property name="resource">first-7-videos/2 PHILOSOPHY: “Popper &amp; Kuhn”.mp4</property>
  <property name="mlt_service">avformat-novalidate</property>
  <property name="seekable">1</property>
  <property name="format">3</property>
  <property name="audio_index">1</property>
  <property name="video_index">0</property>
  <property name="vstream">0</property>
  <property name="astream">0</property>
  <property name="kdenlive:folderid">19</property>
  <property name="kdenlive:id">8</property>
  <property name="kdenlive:control_uuid">{df78ef6d-9390-4a00-b909-deefd58ee056}</property>
  <property name="mute_on_pause">0</property>
  <property name="kdenlive:clip_type">0</property>
  <property name="kdenlive:file_size">4756253</property>
  <property name="kdenlive:file_hash">f1e305589be14a930a44725adc579af1</property>
  <property name="kdenlive:kextractor">1</property>
  <property name="kdenlive:meta.extractor.Bitrate:">4756 kb/s</property>
  <property name="kdenlive:monitorPosition">0</property>
  <property name="meta.media.nb_streams">2</property>
  <property name="meta.media.0.stream.type">video</property>
  <property name="meta.media.0.stream.frame_rate">24</property>
  <property name="meta.media.0.stream.sample_aspect_ratio">0</property>
  <property name="meta.media.0.codec.width">1280</property>
  <property name="meta.media.0.codec.height">720</property>
  <property name="meta.media.0.codec.rotate">0</property>
  <property name="meta.media.0.codec.pix_fmt">yuv420p</property>
  <property name="meta.media.0.codec.sample_aspect_ratio">0</property>
  <property name="meta.media.0.codec.colorspace">709</property>
  <property name="meta.media.0.codec.name">h264</property>
  <property name="meta.media.0.codec.long_name">H.264 / AVC / MPEG-4 AVC / MPEG-4 part 10</property>
  <property name="meta.media.0.codec.bit_rate">4602478</property>
  <property name="meta.attr.0.stream.handler_name.markup">VideoHandler</property>
  <property name="meta.attr.0.stream.vendor_id.markup">[0][0][0][0]</property>
  <property name="meta.media.1.stream.type">audio</property>
  <property name="meta.media.1.codec.sample_fmt">fltp</property>
  <property name="meta.media.1.codec.sample_rate">48000</property>
  <property name="meta.media.1.codec.channels">2</property>
  <property name="meta.media.1.codec.layout">stereo</property>
  <property name="meta.media.1.codec.name">aac</property>
  <property name="meta.media.1.codec.long_name">AAC (Advanced Audio Coding)</property>
  <property name="meta.media.1.codec.bit_rate">139966</property>
  <property name="meta.attr.1.stream.handler_name.markup">SoundHandler</property>
  <property name="meta.attr.1.stream.vendor_id.markup">[0][0][0][0]</property>
  <property name="meta.attr.major_brand.markup">isom</property>
  <property name="meta.attr.minor_version.markup">512</property>
  <property name="meta.attr.compatible_brands.markup">isomiso2avc1mp41</property>
  <property name="meta.attr.encoder.markup">Google</property>
  <property name="meta.media.sample_aspect_num">1</property>
  <property name="meta.media.sample_aspect_den">1</property>
  <property name="meta.media.frame_rate_num">24</property>
  <property name="meta.media.frame_rate_den">1</property>
  <property name="meta.media.colorspace">709</property>
  <property name="meta.media.color_trc">2</property>
  <property name="meta.media.has_b_frames">2</property>
  <property name="meta.media.width">1280</property>
  <property name="meta.media.height">720</property>
  <property name="meta.media.aspect_ratio">1</property>
  <property name="meta.media.color_range">mpeg</property>
  <property name="xml">was here</property>
  <property name="meta.media.top_field_first">0</property>
  <property name="meta.media.progressive">1</property>
  <property name="set.test_audio">0</property>
  <property name="set.test_image">1</property>
 </chain>
 <chain id="chain3" out="00:00:07.967">
  <property name="length">240</property>
  <property name="eof">pause</property>
  <property name="resource">first-7-videos/3 NEURAL NETWORK: “What AI Models Are".mp4</property>
  <property name="mlt_service">avformat-novalidate</property>
  <property name="seekable">1</property>
  <property name="format">3</property>
  <property name="audio_index">1</property>
  <property name="video_index">0</property>
  <property name="vstream">0</property>
  <property name="astream">0</property>
  <property name="kdenlive:folderid">19</property>
  <property name="kdenlive:id">9</property>
  <property name="kdenlive:control_uuid">{59ee7135-b26d-4334-a14f-3e90a817a80b}</property>
  <property name="mute_on_pause">0</property>
  <property name="kdenlive:clip_type">0</property>
  <property name="kdenlive:file_size">17200084</property>
  <property name="kdenlive:file_hash">9a55bad9c26c44325cc004978c93ae3d</property>
  <property name="kdenlive:kextractor">1</property>
  <property name="kdenlive:meta.extractor.Bitrate:">17200 kb/s</property>
  <property name="kdenlive:monitorPosition">0</property>
  <property name="meta.media.nb_streams">2</property>
  <property name="meta.media.0.stream.type">video</property>
  <property name="meta.media.0.stream.frame_rate">24</property>
  <property name="meta.media.0.stream.sample_aspect_ratio">0</property>
  <property name="meta.media.0.codec.width">1280</property>
  <property name="meta.media.0.codec.height">720</property>
  <property name="meta.media.0.codec.rotate">0</property>
  <property name="meta.media.0.codec.pix_fmt">yuv420p</property>
  <property name="meta.media.0.codec.sample_aspect_ratio">0</property>
  <property name="meta.media.0.codec.colorspace">709</property>
  <property name="meta.media.0.codec.name">h264</property>
  <property name="meta.media.0.codec.long_name">H.264 / AVC / MPEG-4 AVC / MPEG-4 part 10</property>
  <property name="meta.media.0.codec.bit_rate">17046226</property>
  <property name="meta.attr.0.stream.handler_name.markup">VideoHandler</property>
  <property name="meta.attr.0.stream.vendor_id.markup">[0][0][0][0]</property>
  <property name="meta.media.1.stream.type">audio</property>
  <property name="meta.media.1.codec.sample_fmt">fltp</property>
  <property name="meta.media.1.codec.sample_rate">48000</property>
  <property name="meta.media.1.codec.channels">2</property>
  <property name="meta.media.1.codec.layout">stereo</property>
  <property name="meta.media.1.codec.name">aac</property>
  <property name="meta.media.1.codec.long_name">AAC (Advanced Audio Coding)</property>
  <property name="meta.media.1.codec.bit_rate">140057</property>
  <property name="meta.attr.1.stream.handler_name.markup">SoundHandler</property>
  <property name="meta.attr.1.stream.vendor_id.markup">[0][0][0][0]</property>
  <property name="meta.attr.major_brand.markup">isom</property>
  <property name="meta.attr.minor_version.markup">512</property>
  <property name="meta.attr.compatible_brands.markup">isomiso2avc1mp41</property>
  <property name="meta.attr.encoder.markup">Google</property>
  <property name="meta.media.sample_aspect_num">1</property>
  <property name="meta.media.sample_aspect_den">1</property>
  <property name="meta.media.frame_rate_num">24</property>
  <property name="meta.media.frame_rate_den">1</property>
  <property name="meta.media.colorspace">709</property>
  <property name="meta.media.color_trc">2</property>
  <property name="meta.media.has_b_frames">2</property>
  <property name="meta.media.width">1280</property>
  <property name="meta.media.height">720</property>
  <property name="meta.media.aspect_ratio">1</property>
  <property name="meta.media.color_range">mpeg</property>
  <property name="xml">was here</property>
  <property name="meta.media.top_field_first">0</property>
  <property name="meta.media.progressive">1</property>
  <property name="set.test_audio">0</property>
  <property name="set.test_image">1</property>
 </chain>
 <chain id="chain5" out="00:00:07.967">
  <property name="length">240</property>
  <property name="eof">pause</property>
  <property name="resource">first-7-videos/5 AI AS SIMULATION: “No Consciousness”.mp4</property>
  <property name="mlt_service">avformat-novalidate</property>
  <property name="seekable">1</property>
  <property name="format">3</property>
  <property name="audio_index">1</property>
  <property name="video_index">0</property>
  <property name="vstream">0</property>
  <property name="astream">0</property>
  <property name="kdenlive:folderid">19</property>
  <property name="kdenlive:id">11</property>
  <property name="kdenlive:control_uuid">{793ef39f-d6ee-4bd8-9cdc-5e8d15e5b0a3}</property>
  <property name="mute_on_pause">0</property>
  <property name="kdenlive:clip_type">0</property>
  <property name="kdenlive:file_size">5938720</property>
  <property name="kdenlive:file_hash">859ecfb3ef47ee978682f122cc9af46d</property>
  <property name="meta.media.nb_streams">2</property>
  <property name="meta.media.0.stream.type">video</property>
  <property name="meta.media.0.stream.frame_rate">24</property>
  <property name="meta.media.0.stream.sample_aspect_ratio">0</property>
  <property name="meta.media.0.codec.width">1280</property>
  <property name="meta.media.0.codec.height">720</property>
  <property name="meta.media.0.codec.rotate">0</property>
  <property name="meta.media.0.codec.pix_fmt">yuv420p</property>
  <property name="meta.media.0.codec.sample_aspect_ratio">0</property>
  <property name="meta.media.0.codec.colorspace">709</property>
  <property name="meta.media.0.codec.name">h264</property>
  <property name="meta.media.0.codec.long_name">H.264 / AVC / MPEG-4 AVC / MPEG-4 part 10</property>
  <property name="meta.media.0.codec.bit_rate">5784842</property>
  <property name="meta.attr.0.stream.handler_name.markup">VideoHandler</property>
  <property name="meta.attr.0.stream.vendor_id.markup">[0][0][0][0]</property>
  <property name="meta.media.1.stream.type">audio</property>
  <property name="meta.media.1.codec.sample_fmt">fltp</property>
  <property name="meta.media.1.codec.sample_rate">48000</property>
  <property name="meta.media.1.codec.channels">2</property>
  <property name="meta.media.1.codec.layout">stereo</property>
  <property name="meta.media.1.codec.name">aac</property>
  <property name="meta.media.1.codec.long_name">AAC (Advanced Audio Coding)</property>
  <property name="meta.media.1.codec.bit_rate">140084</property>
  <property name="meta.attr.1.stream.handler_name.markup">SoundHandler</property>
  <property name="meta.attr.1.stream.vendor_id.markup">[0][0][0][0]</property>
  <property name="meta.attr.major_brand.markup">isom</property>
  <property name="meta.attr.minor_version.markup">512</property>
  <property name="meta.attr.compatible_brands.markup">isomiso2avc1mp41</property>
  <property name="meta.attr.encoder.markup">Google</property>
  <property name="meta.media.sample_aspect_num">1</property>
  <property name="meta.media.sample_aspect_den">1</property>
  <property name="meta.media.frame_rate_num">24</property>
  <property name="meta.media.frame_rate_den">1</property>
  <property name="meta.media.colorspace">709</property>
  <property name="meta.media.color_trc">2</property>
  <property name="meta.media.has_b_frames">2</property>
  <property name="meta.media.width">1280</property>
  <property name="meta.media.height">720</property>
  <property name="meta.media.aspect_ratio">1</property>
  <property name="meta.media.color_range">mpeg</property>
  <property name="xml">was here</property>
  <property name="meta.media.top_field_first">0</property>
  <property name="meta.media.progressive">1</property>
  <property name="set.test_audio">0</property>
  <property name="set.test_image">1</property>
 </chain>
 <chain id="chain6" out="00:00:07.967">
  <property name="length">240</property>
  <property name="eof">pause</property>
  <property name="resource">first-7-videos/6 HUMAN + AI: “The Partnership”.mp4</property>
  <property name="mlt_service">avformat-novalidate</property>
  <property name="seekable">1</property>
  <property name="format">3</property>
  <property name="audio_index">1</property>
  <property name="video_index">0</property>
  <property name="vstream">0</property>
  <property name="astream">0</property>
  <property name="kdenlive:folderid">19</property>
  <property name="kdenlive:id">12</property>
  <property name="kdenlive:control_uuid">{3f53cd60-3ed9-48f8-b9a3-1fcb78a579fc}</property>
  <property name="mute_on_pause">0</property>
  <property name="kdenlive:clip_type">0</property>
  <property name="kdenlive:file_size">3944847</property>
  <property name="kdenlive:file_hash">b186ad763dc990ac24fcb001ce068e48</property>
  <property name="meta.media.nb_streams">2</property>
  <property name="meta.media.0.stream.type">video</property>
  <property name="meta.media.0.stream.frame_rate">24</property>
  <property name="meta.media.0.stream.sample_aspect_ratio">0</property>
  <property name="meta.media.0.codec.width">1280</property>
  <property name="meta.media.0.codec.height">720</property>
  <property name="meta.media.0.codec.rotate">0</property>
  <property name="meta.media.0.codec.pix_fmt">yuv420p</property>
  <property name="meta.media.0.codec.sample_aspect_ratio">0</property>
  <property name="meta.media.0.codec.colorspace">709</property>
  <property name="meta.media.0.codec.name">h264</property>
  <property name="meta.media.0.codec.long_name">H.264 / AVC / MPEG-4 AVC / MPEG-4 part 10</property>
  <property name="meta.media.0.codec.bit_rate">3791068</property>
  <property name="meta.attr.0.stream.handler_name.markup">VideoHandler</property>
  <property name="meta.attr.0.stream.vendor_id.markup">[0][0][0][0]</property>
  <property name="meta.media.1.stream.type">audio</property>
  <property name="meta.media.1.codec.sample_fmt">fltp</property>
  <property name="meta.media.1.codec.sample_rate">48000</property>
  <property name="meta.media.1.codec.channels">2</property>
  <property name="meta.media.1.codec.layout">stereo</property>
  <property name="meta.media.1.codec.name">aac</property>
  <property name="meta.media.1.codec.long_name">AAC (Advanced Audio Coding)</property>
  <property name="meta.media.1.codec.bit_rate">139994</property>
  <property name="meta.attr.1.stream.handler_name.markup">SoundHandler</property>
  <property name="meta.attr.1.stream.vendor_id.markup">[0][0][0][0]</property>
  <property name="meta.attr.major_brand.markup">isom</property>
  <property name="meta.attr.minor_version.markup">512</property>
  <property name="meta.attr.compatible_brands.markup">isomiso2avc1mp41</property>
  <property name="meta.attr.encoder.markup">Google</property>
  <property name="meta.media.sample_aspect_num">1</property>
  <property name="meta.media.sample_aspect_den">1</property>
  <property name="meta.media.frame_rate_num">24</property>
  <property name="meta.media.frame_rate_den">1</property>
  <property name="meta.media.colorspace">709</property>
  <property name="meta.media.color_trc">2</property>
  <property name="meta.media.has_b_frames">2</property>
  <property name="meta.media.width">1280</property>
  <property name="meta.media.height">720</property>
  <property name="meta.media.aspect_ratio">1</property>
  <property name="meta.media.color_range">mpeg</property>
  <property name="xml">was here</property>
  <property name="meta.media.top_field_first">0</property>
  <property name="meta.media.progressive">1</property>
  <property name="set.test_audio">0</property>
  <property name="set.test_image">1</property>
 </chain>
 <chain id="chain7" out="00:00:07.967">
  <property name="length">240</property>
  <property name="eof">pause</property>
  <property name="resource">first-7-videos/7 CONCLUSION: “Future Smart City".mp4</property>
  <property name="mlt_service">avformat-novalidate</property>
  <property name="seekable">1</property>
  <property name="format">3</property>
  <property name="audio_index">1</property>
  <property name="video_index">0</property>
  <property name="vstream">0</property>
  <property name="astream">0</property>
  <property name="kdenlive:folderid">19</property>
  <property name="kdenlive:id">13</property>
  <property name="kdenlive:control_uuid">{9bef7225-46e3-4cb1-bf03-b5c43671c043}</property>
  <property name="mute_on_pause">0</property>
  <property name="kdenlive:clip_type">0</property>
  <property name="kdenlive:file_size">6789339</property>
  <property name="kdenlive:file_hash">d7652505f16cfa3643ae83849f37af44</property>
  <property name="kdenlive:kextractor">1</property>
  <property name="kdenlive:meta.extractor.Bitrate:">6789 kb/s</property>
  <property name="meta.media.nb_streams">2</property>
  <property name="meta.media.0.stream.type">video</property>
  <property name="meta.media.0.stream.frame_rate">24</property>
  <property name="meta.media.0.stream.sample_aspect_ratio">0</property>
  <property name="meta.media.0.codec.width">1280</property>
  <property name="meta.media.0.codec.height">720</property>
  <property name="meta.media.0.codec.rotate">0</property>
  <property name="meta.media.0.codec.pix_fmt">yuv420p</property>
  <property name="meta.media.0.codec.sample_aspect_ratio">0</property>
  <property name="meta.media.0.codec.colorspace">709</property>
  <property name="meta.media.0.codec.name">h264</property>
  <property name="meta.media.0.codec.long_name">H.264 / AVC / MPEG-4 AVC / MPEG-4 part 10</property>
  <property name="meta.media.0.codec.bit_rate">6635533</property>
  <property name="meta.attr.0.stream.handler_name.markup">VideoHandler</property>
  <property name="meta.attr.0.stream.vendor_id.markup">[0][0][0][0]</property>
  <property name="meta.media.1.stream.type">audio</property>
  <property name="meta.media.1.codec.sample_fmt">fltp</property>
  <property name="meta.media.1.codec.sample_rate">48000</property>
  <property name="meta.media.1.codec.channels">2</property>
  <property name="meta.media.1.codec.layout">stereo</property>
  <property name="meta.media.1.codec.name">aac</property>
  <property name="meta.media.1.codec.long_name">AAC (Advanced Audio Coding)</property>
  <property name="meta.media.1.codec.bit_rate">140005</property>
  <property name="meta.attr.1.stream.handler_name.markup">SoundHandler</property>
  <property name="meta.attr.1.stream.vendor_id.markup">[0][0][0][0]</property>
  <property name="meta.attr.major_brand.markup">isom</property>
  <property name="meta.attr.minor_version.markup">512</property>
  <property name="meta.attr.compatible_brands.markup">isomiso2avc1mp41</property>
  <property name="meta.attr.encoder.markup">Google</property>
  <property name="meta.media.sample_aspect_num">1</property>
  <property name="meta.media.sample_aspect_den">1</property>
  <property name="meta.media.frame_rate_num">24</property>
  <property name="meta.media.frame_rate_den">1</property>
  <property name="meta.media.colorspace">709</property>
  <property name="meta.media.color_trc">2</property>
  <property name="meta.media.has_b_frames">2</property>
  <property name="meta.media.width">1280</property>
  <property name="meta.media.height">720</property>
  <property name="meta.media.aspect_ratio">1</property>
  <property name="meta.media.color_range">mpeg</property>
  <property name="xml">was here</property>
  <property name="meta.media.top_field_first">0</property>
  <property name="meta.media.progressive">1</property>
  <property name="set.test_audio">0</property>
  <property name="set.test_image">1</property>
 </chain>
 <playlist id="playlist4">
  <property name="kdenlive:audio_track">1</property>
  <entry in="00:00:00.000" out="00:00:06.633" producer="chain1">
   <property name="kdenlive:id">7</property>
   <property name="kdenlive:activeeffect">2</property>
   <filter id="filter7" out="00:00:01.400">
    <property name="window">75</property>
    <property name="max_gain">20dB</property>
    <property name="channel_mask">-1</property>
    <property name="mlt_service">volume</property>
    <property name="kdenlive_id">fadein</property>
    <property name="gain">0</property>
    <property name="end">1</property>
    <property name="kdenlive:collapsed">0</property>
   </filter>
   <filter id="filter8" in="00:00:03.633" out="00:00:06.633">
    <property name="window">75</property>
    <property name="max_gain">20dB</property>
    <property name="channel_mask">-1</property>
    <property name="mlt_service">volume</property>
    <property name="kdenlive_id">fadeout</property>
    <property name="gain">1</property>
    <property name="end">0</property>
    <property name="kdenlive:collapsed">0</property>
   </filter>
   <filter id="filter9">
    <property name="window">75</property>
    <property name="max_gain">20dB</property>
    <property name="channel_mask">-1</property>
    <property name="mlt_service">volume</property>
    <property name="kdenlive_id">gain</property>
    <property name="gain">0.2</property>
    <property name="kdenlive:collapsed">0</property>
   </filter>
  </entry>
  <blank length="00:00:35.200"/>
  <entry in="00:00:00.000" out="00:00:05.300" producer="chain2">
   <property name="kdenlive:id">8</property>
   <filter id="filter10" out="00:00:03.000">
    <property name="window">75</property>
    <property name="max_gain">20dB</property>
    <property name="channel_mask">-1</property>
    <property name="mlt_service">volume</property>
    <property name="kdenlive_id">fadein</property>
    <property name="gain">0</property>
    <property name="end">1</property>
    <property name="kdenlive:collapsed">0</property>
   </filter>
   <filter id="filter13" in="00:00:02.300" out="00:00:05.300">
    <property name="window">75</property>
    <property name="max_gain">20dB</property>
    <property name="channel_mask">-1</property>
    <property name="mlt_service">volume</property>
    <property name="kdenlive_id">fadeout</property>
    <property name="gain">1</property>
    <property name="end">0</property>
    <property name="kdenlive:collapsed">0</property>
   </filter>
  </entry>
  <blank length="00:00:49.300"/>
  <entry in="00:00:00.000" out="00:00:06.100" producer="chain3">
   <property name="kdenlive:id">9</property>
   <filter id="filter14" out="00:00:03.000">
    <property name="window">75</property>
    <property name="max_gain">20dB</property>
    <property name="channel_mask">-1</property>
    <property name="mlt_service">volume</property>
    <property name="kdenlive_id">fadein</property>
    <property name="gain">0</property>
    <property name="end">1</property>
    <property name="kdenlive:collapsed">0</property>
   </filter>
   <filter id="filter15" in="00:00:03.100" out="00:00:06.100">
    <property name="window">75</property>
    <property name="max_gain">20dB</property>
    <property name="channel_mask">-1</property>
    <property name="mlt_service">volume</property>
    <property name="kdenlive_id">fadeout</property>
    <property name="gain">1</property>
    <property name="end">0</property>
    <property name="kdenlive:collapsed">0</property>
   </filter>
  </entry>
  <blank length="00:01:29.233"/>
  <entry in="00:00:00.000" out="00:00:06.633" producer="chain5">
   <property name="kdenlive:id">11</property>
   <filter id="filter16" out="00:00:03.000">
    <property name="window">75</property>
    <property name="max_gain">20dB</property>
    <property name="channel_mask">-1</property>
    <property name="mlt_service">volume</property>
    <property name="kdenlive_id">fadein</property>
    <property name="gain">0</property>
    <property name="end">1</property>
    <property name="kdenlive:collapsed">0</property>
   </filter>
   <filter id="filter17" in="00:00:03.633" out="00:00:06.633">
    <property name="window">75</property>
    <property name="max_gain">20dB</property>
    <property name="channel_mask">-1</property>
    <property name="mlt_service">volume</property>
    <property name="kdenlive_id">fadeout</property>
    <property name="gain">1</property>
    <property name="end">0</property>
    <property name="kdenlive:collapsed">0</property>
   </filter>
  </entry>
  <blank length="00:00:50.433"/>
  <entry in="00:00:00.000" out="00:00:06.067" producer="chain6">
   <property name="kdenlive:id">12</property>
   <filter id="filter18" out="00:00:03.000">
    <property name="window">75</property>
    <property name="max_gain">20dB</property>
    <property name="channel_mask">-1</property>
    <property name="mlt_service">volume</property>
    <property name="kdenlive_id">fadein</property>
    <property name="gain">0</property>
    <property name="end">1</property>
    <property name="kdenlive:collapsed">0</property>
   </filter>
   <filter id="filter19" in="00:00:03.067" out="00:00:06.067">
    <property name="window">75</property>
    <property name="max_gain">20dB</property>
    <property name="channel_mask">-1</property>
    <property name="mlt_service">volume</property>
    <property name="kdenlive_id">fadeout</property>
    <property name="gain">1</property>
    <property name="end">0</property>
    <property name="kdenlive:collapsed">0</property>
   </filter>
  </entry>
  <blank length="00:00:42.300"/>
  <entry in="00:00:00.000" out="00:00:06.133" producer="chain7">
   <property name="kdenlive:id">13</property>
   <filter id="filter20" out="00:00:03.000">
    <property name="window">75</property>
    <property name="max_gain">20dB</property>
    <property name="channel_mask">-1</property>
    <property name="mlt_service">volume</property>
    <property name="kdenlive_id">fadein</property>
    <property name="gain">0</property>
    <property name="end">1</property>
    <property name="kdenlive:collapsed">0</property>
   </filter>
   <filter id="filter21" in="00:00:03.133" out="00:00:06.133">
    <property name="window">75</property>
    <property name="max_gain">20dB</property>
    <property name="channel_mask">-1</property>
    <property name="mlt_service">volume</property>
    <property name="kdenlive_id">fadeout</property>
    <property name="gain">1</property>
    <property name="end">0</property>
    <property name="kdenlive:collapsed">0</property>
   </filter>
  </entry>
 </playlist>
 <playlist id="playlist5">
  <property name="kdenlive:audio_track">1</property>
 </playlist>
 <tractor id="tractor2" in="00:00:00.000" out="00:05:03.500">
  <property name="kdenlive:audio_track">1</property>
  <property name="kdenlive:trackheight">45</property>
  <property name="kdenlive:timeline_active">1</property>
  <property name="kdenlive:collapsed">0</property>
  <property name="kdenlive:thumbs_format"/>
  <property name="kdenlive:audio_rec"/>
  <track hide="video" producer="playlist4"/>
  <track hide="video" producer="playlist5"/>
  <filter id="filter22">
   <property name="window">75</property>
   <property name="max_gain">20dB</property>
   <property name="channel_mask">-1</property>
   <property name="mlt_service">volume</property>
   <property name="internal_added">237</property>
   <property name="disable">1</property>
  </filter>
  <filter id="filter23">
   <property name="channel">-1</property>
   <property name="mlt_service">panner</property>
   <property name="internal_added">237</property>
   <property name="start">0.5</property>
   <property name="disable">1</property>
  </filter>
  <filter id="filter6">
   <property name="iec_scale">0</property>
   <property name="mlt_service">audiolevel</property>
   <property name="dbpeak">1</property>
   <property name="disable">1</property>
  </filter>
 </tractor>
 <chain id="chain4" out="00:00:34.600">
  <property name="length">1039</property>
  <property name="eof">pause</property>
  <property name="resource">7-audios/1.mp3</property>
  <property name="mlt_service">avformat-novalidate</property>
  <property name="seekable">1</property>
  <property name="audio_index">0</property>
  <property name="video_index">-1</property>
  <property name="astream">0</property>
  <property name="kdenlive:folderid">27</property>
  <property name="kdenlive:id">36</property>
  <property name="kdenlive:control_uuid">{b3de06e7-2700-4988-9c8e-9d165b590c21}</property>
  <property name="kdenlive:clip_type">1</property>
  <property name="kdenlive:file_size">571285</property>
  <property name="kdenlive:file_hash">1cd3093ec1dcecd77bb32901c9c76896</property>
  <property name="kdenlive:kextractor">1</property>
  <property name="kdenlive:meta.extractor.Bitrate:">128 kb/s</property>
  <property name="meta.media.nb_streams">1</property>
  <property name="meta.media.0.stream.type">audio</property>
  <property name="meta.media.0.codec.sample_fmt">fltp</property>
  <property name="meta.media.0.codec.sample_rate">44100</property>
  <property name="meta.media.0.codec.channels">1</property>
  <property name="meta.media.0.codec.layout">mono</property>
  <property name="meta.media.0.codec.name">mp3float</property>
  <property name="meta.media.0.codec.long_name">MP3 (MPEG audio layer 3)</property>
  <property name="meta.media.0.codec.bit_rate">128000</property>
  <property name="meta.attr.encoder.markup">Lavf60.16.100</property>
  <property name="xml">was here</property>
  <property name="mute_on_pause">0</property>
  <property name="set.test_audio">0</property>
  <property name="set.test_image">1</property>
 </chain>
 <chain id="chain9" out="00:00:49.067">
  <property name="length">1473</property>
  <property name="eof">pause</property>
  <property name="resource">7-audios/2.mp3</property>
  <property name="mlt_service">avformat-novalidate</property>
  <property name="seekable">1</property>
  <property name="audio_index">0</property>
  <property name="video_index">-1</property>
  <property name="astream">0</property>
  <property name="kdenlive:folderid">27</property>
  <property name="kdenlive:id">14</property>
  <property name="kdenlive:control_uuid">{c77bae37-7bf7-4ae2-a7b7-70132462ee57}</property>
  <property name="kdenlive:clip_type">1</property>
  <property name="kdenlive:file_size">802417</property>
  <property name="kdenlive:file_hash">e068c992a4ddd59201872db9b5770d24</property>
  <property name="meta.media.nb_streams">1</property>
  <property name="meta.media.0.stream.type">audio</property>
  <property name="meta.media.0.codec.sample_fmt">fltp</property>
  <property name="meta.media.0.codec.sample_rate">44100</property>
  <property name="meta.media.0.codec.channels">1</property>
  <property name="meta.media.0.codec.layout">mono</property>
  <property name="meta.media.0.codec.name">mp3float</property>
  <property name="meta.media.0.codec.long_name">MP3 (MPEG audio layer 3)</property>
  <property name="meta.media.0.codec.bit_rate">128000</property>
  <property name="meta.attr.encoder.markup">Lavf60.16.100</property>
  <property name="xml">was here</property>
  <property name="mute_on_pause">0</property>
  <property name="set.test_audio">0</property>
  <property name="set.test_image">1</property>
 </chain>
 <chain id="chain8" out="00:00:41.467">
  <property name="length">1245</property>
  <property name="eof">pause</property>
  <property name="resource">7-audios/3.mp3</property>
  <property name="mlt_service">avformat-novalidate</property>
  <property name="seekable">1</property>
  <property name="audio_index">0</property>
  <property name="video_index">-1</property>
  <property name="astream">0</property>
  <property name="kdenlive:folderid">27</property>
  <property name="kdenlive:id">16</property>
  <property name="kdenlive:control_uuid">{3cf9a4ef-5691-4348-aa6f-7886cea971d8}</property>
  <property name="kdenlive:clip_type">1</property>
  <property name="kdenlive:file_size">681209</property>
  <property name="kdenlive:file_hash">8ef260f9a51402d05f457b4ef6825b17</property>
  <property name="kdenlive:kextractor">1</property>
  <property name="kdenlive:meta.extractor.Bitrate:">128 kb/s</property>
  <property name="meta.media.nb_streams">1</property>
  <property name="meta.media.0.stream.type">audio</property>
  <property name="meta.media.0.codec.sample_fmt">fltp</property>
  <property name="meta.media.0.codec.sample_rate">44100</property>
  <property name="meta.media.0.codec.channels">1</property>
  <property name="meta.media.0.codec.layout">mono</property>
  <property name="meta.media.0.codec.name">mp3float</property>
  <property name="meta.media.0.codec.long_name">MP3 (MPEG audio layer 3)</property>
  <property name="meta.media.0.codec.bit_rate">128000</property>
  <property name="meta.attr.encoder.markup">Lavf60.16.100</property>
  <property name="xml">was here</property>
  <property name="mute_on_pause">0</property>
  <property name="set.test_audio">0</property>
  <property name="set.test_image">1</property>
 </chain>
 <chain id="chain10" out="00:00:42.500">
  <property name="length">1276</property>
  <property name="eof">pause</property>
  <property name="resource">7-audios/4.mp3</property>
  <property name="mlt_service">avformat-novalidate</property>
  <property name="seekable">1</property>
  <property name="audio_index">0</property>
  <property name="video_index">-1</property>
  <property name="astream">0</property>
  <property name="kdenlive:folderid">27</property>
  <property name="kdenlive:id">17</property>
  <property name="kdenlive:control_uuid">{49cc2b77-9737-40c1-95b1-9f1991e5f8a8}</property>
  <property name="kdenlive:clip_type">1</property>
  <property name="kdenlive:file_size">697509</property>
  <property name="kdenlive:file_hash">46b198877b2479e19b4edaa492373b8f</property>
  <property name="meta.media.nb_streams">1</property>
  <property name="meta.media.0.stream.type">audio</property>
  <property name="meta.media.0.codec.sample_fmt">fltp</property>
  <property name="meta.media.0.codec.sample_rate">44100</property>
  <property name="meta.media.0.codec.channels">1</property>
  <property name="meta.media.0.codec.layout">mono</property>
  <property name="meta.media.0.codec.name">mp3float</property>
  <property name="meta.media.0.codec.long_name">MP3 (MPEG audio layer 3)</property>
  <property name="meta.media.0.codec.bit_rate">128000</property>
  <property name="meta.attr.encoder.markup">Lavf60.16.100</property>
  <property name="xml">was here</property>
  <property name="mute_on_pause">0</property>
  <property name="set.test_audio">0</property>
  <property name="set.test_image">1</property>
 </chain>
 <chain id="chain11" out="00:00:50.367">
  <property name="length">1512</property>
  <property name="eof">pause</property>
  <property name="resource">7-audios/5.mp3</property>
  <property name="mlt_service">avformat-novalidate</property>
  <property name="seekable">1</property>
  <property name="audio_index">0</property>
  <property name="video_index">-1</property>
  <property name="astream">0</property>
  <property name="kdenlive:folderid">27</property>
  <property name="kdenlive:id">18</property>
  <property name="kdenlive:control_uuid">{e716bd0f-80cf-48cf-a4c8-4afaaefa7477}</property>
  <property name="kdenlive:clip_type">1</property>
  <property name="kdenlive:file_size">823315</property>
  <property name="kdenlive:file_hash">6f6255f02168dde4eda257b3d01967eb</property>
  <property name="meta.media.nb_streams">1</property>
  <property name="meta.media.0.stream.type">audio</property>
  <property name="meta.media.0.codec.sample_fmt">fltp</property>
  <property name="meta.media.0.codec.sample_rate">44100</property>
  <property name="meta.media.0.codec.channels">1</property>
  <property name="meta.media.0.codec.layout">mono</property>
  <property name="meta.media.0.codec.name">mp3float</property>
  <property name="meta.media.0.codec.long_name">MP3 (MPEG audio layer 3)</property>
  <property name="meta.media.0.codec.bit_rate">128000</property>
  <property name="meta.attr.encoder.markup">Lavf60.16.100</property>
  <property name="xml">was here</property>
  <property name="mute_on_pause">0</property>
  <property name="set.test_audio">0</property>
  <property name="set.test_image">1</property>
 </chain>
 <chain id="chain12" out="00:00:41.833">
  <property name="length">1256</property>
  <property name="eof">pause</property>
  <property name="resource">7-audios/6.mp3</property>
  <property name="mlt_service">avformat-novalidate</property>
  <property name="seekable">1</property>
  <property name="audio_index">0</property>
  <property name="video_index">-1</property>
  <property name="astream">0</property>
  <property name="kdenlive:folderid">27</property>
  <property name="kdenlive:id">20</property>
  <property name="kdenlive:control_uuid">{6dc0a3c8-1fac-48cd-9add-4898446a6c24}</property>
  <property name="kdenlive:clip_type">1</property>
  <property name="kdenlive:file_size">687060</property>
  <property name="kdenlive:file_hash">16435c49166b2bc9921d7b2697afbc3e</property>
  <property name="meta.media.nb_streams">1</property>
  <property name="meta.media.0.stream.type">audio</property>
  <property name="meta.media.0.codec.sample_fmt">fltp</property>
  <property name="meta.media.0.codec.sample_rate">44100</property>
  <property name="meta.media.0.codec.channels">1</property>
  <property name="meta.media.0.codec.layout">mono</property>
  <property name="meta.media.0.codec.name">mp3float</property>
  <property name="meta.media.0.codec.long_name">MP3 (MPEG audio layer 3)</property>
  <property name="meta.media.0.codec.bit_rate">128000</property>
  <property name="meta.attr.encoder.markup">Lavf60.16.100</property>
  <property name="xml">was here</property>
  <property name="mute_on_pause">0</property>
  <property name="set.test_audio">0</property>
  <property name="set.test_image">1</property>
 </chain>
 <chain id="chain13" out="00:00:39.200">
  <property name="length">1177</property>
  <property name="eof">pause</property>
  <property name="resource">7-audios/7.mp3</property>
  <property name="mlt_service">avformat-novalidate</property>
  <property name="seekable">1</property>
  <property name="audio_index">0</property>
  <property name="video_index">-1</property>
  <property name="astream">0</property>
  <property name="kdenlive:folderid">27</property>
  <property name="kdenlive:id">21</property>
  <property name="kdenlive:control_uuid">{77b15f93-0278-402c-9c01-d8a3082b288c}</property>
  <property name="kdenlive:clip_type">1</property>
  <property name="kdenlive:file_size">644846</property>
  <property name="kdenlive:file_hash">c0f56386c23ab641450a838a4f895dde</property>
  <property name="kdenlive:kextractor">1</property>
  <property name="kdenlive:meta.extractor.Bitrate:">128 kb/s</property>
  <property name="meta.media.nb_streams">1</property>
  <property name="meta.media.0.stream.type">audio</property>
  <property name="meta.media.0.codec.sample_fmt">fltp</property>
  <property name="meta.media.0.codec.sample_rate">44100</property>
  <property name="meta.media.0.codec.channels">1</property>
  <property name="meta.media.0.codec.layout">mono</property>
  <property name="meta.media.0.codec.name">mp3float</property>
  <property name="meta.media.0.codec.long_name">MP3 (MPEG audio layer 3)</property>
  <property name="meta.media.0.codec.bit_rate">128000</property>
  <property name="meta.attr.encoder.markup">Lavf60.16.100</property>
  <property name="xml">was here</property>
  <property name="mute_on_pause">0</property>
  <property name="set.test_audio">0</property>
  <property name="set.test_image">1</property>
 </chain>
 <playlist id="playlist6">
  <property name="kdenlive:audio_track">1</property>
  <blank length="00:00:07.000"/>
  <entry in="00:00:00.000" out="00:00:34.600" producer="chain4">
   <property name="kdenlive:id">36</property>
  </entry>
  <blank length="00:00:05.767"/>
  <entry in="00:00:00.000" out="00:00:49.067" producer="chain9">
   <property name="kdenlive:id">14</property>
  </entry>
  <blank length="00:00:06.233"/>
  <entry in="00:00:00.000" out="00:00:41.467" producer="chain8">
   <property name="kdenlive:id">16</property>
  </entry>
  <blank length="00:00:05.100"/>
  <entry in="00:00:00.000" out="00:00:42.500" producer="chain10">
   <property name="kdenlive:id">17</property>
  </entry>
  <blank length="00:00:06.700"/>
  <entry in="00:00:00.000" out="00:00:50.367" producer="chain11">
   <property name="kdenlive:id">18</property>
  </entry>
  <blank length="00:00:06.533"/>
  <entry in="00:00:00.000" out="00:00:41.833" producer="chain12">
   <property name="kdenlive:id">20</property>
  </entry>
  <blank length="00:00:06.367"/>
  <entry in="00:00:00.000" out="00:00:39.200" producer="chain13">
   <property name="kdenlive:id">21</property>
  </entry>
 </playlist>
 <playlist id="playlist7">
  <property name="kdenlive:audio_track">1</property>
 </playlist>
 <tractor id="tractor3" in="00:00:00.000" out="00:05:42.933">
  <property name="kdenlive:audio_track">1</property>
  <property name="kdenlive:trackheight">46</property>
  <property name="kdenlive:timeline_active">1</property>
  <property name="kdenlive:collapsed">0</property>
  <property name="kdenlive:thumbs_format"/>
  <property name="kdenlive:audio_rec"/>
  <track hide="video" producer="playlist6"/>
  <track hide="video" producer="playlist7"/>
  <filter id="filter25">
   <property name="window">75</property>
   <property name="max_gain">20dB</property>
   <property name="channel_mask">-1</property>
   <property name="mlt_service">volume</property>
   <property name="internal_added">237</property>
   <property name="disable">1</property>
  </filter>
  <filter id="filter26">
   <property name="channel">-1</property>
   <property name="mlt_service">panner</property>
   <property name="internal_added">237</property>
   <property name="start">0.5</property>
   <property name="disable">1</property>
  </filter>
  <filter id="filter24">
   <property name="iec_scale">0</property>
   <property name="mlt_service">audiolevel</property>
   <property name="dbpeak">1</property>
   <property name="disable">1</property>
  </filter>
 </tractor>
 <producer id="producer10" in="00:00:00.000" out="00:00:08.967">
  <property name="length">270</property>
  <property name="eof">pause</property>
  <property name="resource">0.900000:sound-effects/keyboard-typing-sound-effect.mp3</property>
  <property name="aspect_ratio">1</property>
  <property name="meta.media.nb_streams">1</property>
  <property name="meta.media.0.stream.type">audio</property>
  <property name="meta.media.0.codec.sample_fmt">fltp</property>
  <property name="meta.media.0.codec.sample_rate">44100</property>
  <property name="meta.media.0.codec.channels">2</property>
  <property name="meta.media.0.codec.layout">stereo</property>
  <property name="meta.media.0.codec.name">mp3float</property>
  <property name="meta.media.0.codec.long_name">MP3 (MPEG audio layer 3)</property>
  <property name="meta.media.0.codec.bit_rate">256000</property>
  <property name="seekable">1</property>
  <property name="audio_index">0</property>
  <property name="video_index">-1</property>
  <property name="warp_speed">0.9</property>
  <property name="warp_resource">sound-effects/keyboard-typing-sound-effect.mp3</property>
  <property name="mlt_service">timewarp</property>
  <property name="kdenlive:control_uuid">{5adca730-cb6d-4be9-a08c-360448def8e4}</property>
  <property name="astream">0</property>
  <property name="set.test_audio">0</property>
  <property name="set.test_image">1</property>
  <property name="kdenlive:id">23</property>
  <property name="warp_pitch">0</property>
 </producer>
 <producer id="producer11" in="00:00:00.000" out="00:00:08.967">
  <property name="length">270</property>
  <property name="eof">pause</property>
  <property name="resource">0.900000:sound-effects/keyboard-typing-sound-effect.mp3</property>
  <property name="aspect_ratio">1</property>
  <property name="meta.media.nb_streams">1</property>
  <property name="meta.media.0.stream.type">audio</property>
  <property name="meta.media.0.codec.sample_fmt">fltp</property>
  <property name="meta.media.0.codec.sample_rate">44100</property>
  <property name="meta.media.0.codec.channels">2</property>
  <property name="meta.media.0.codec.layout">stereo</property>
  <property name="meta.media.0.codec.name">mp3float</property>
  <property name="meta.media.0.codec.long_name">MP3 (MPEG audio layer 3)</property>
  <property name="meta.media.0.codec.bit_rate">256000</property>
  <property name="seekable">1</property>
  <property name="audio_index">0</property>
  <property name="video_index">-1</property>
  <property name="warp_speed">0.9</property>
  <property name="warp_resource">sound-effects/keyboard-typing-sound-effect.mp3</property>
  <property name="mlt_service">timewarp</property>
  <property name="kdenlive:control_uuid">{5adca730-cb6d-4be9-a08c-360448def8e4}</property>
  <property name="astream">0</property>
  <property name="set.test_audio">0</property>
  <property name="set.test_image">1</property>
  <property name="kdenlive:id">23</property>
  <property name="warp_pitch">0</property>
 </producer>
 <producer id="producer12" in="00:00:00.000" out="00:00:08.967">
  <property name="length">270</property>
  <property name="eof">pause</property>
  <property name="resource">0.900000:sound-effects/keyboard-typing-sound-effect.mp3</property>
  <property name="aspect_ratio">1</property>
  <property name="meta.media.nb_streams">1</property>
  <property name="meta.media.0.stream.type">audio</property>
  <property name="meta.media.0.codec.sample_fmt">fltp</property>
  <property name="meta.media.0.codec.sample_rate">44100</property>
  <property name="meta.media.0.codec.channels">2</property>
  <property name="meta.media.0.codec.layout">stereo</property>
  <property name="meta.media.0.codec.name">mp3float</property>
  <property name="meta.media.0.codec.long_name">MP3 (MPEG audio layer 3)</property>
  <property name="meta.media.0.codec.bit_rate">256000</property>
  <property name="seekable">1</property>
  <property name="audio_index">0</property>
  <property name="video_index">-1</property>
  <property name="warp_speed">0.9</property>
  <property name="warp_resource">sound-effects/keyboard-typing-sound-effect.mp3</property>
  <property name="mlt_service">timewarp</property>
  <property name="kdenlive:control_uuid">{5adca730-cb6d-4be9-a08c-360448def8e4}</property>
  <property name="astream">0</property>
  <property name="set.test_audio">0</property>
  <property name="set.test_image">1</property>
  <property name="kdenlive:id">23</property>
  <property name="warp_pitch">0</property>
 </producer>
 <producer id="producer13" in="00:00:00.000" out="00:00:08.967">
  <property name="length">270</property>
  <property name="eof">pause</property>
  <property name="resource">0.900000:sound-effects/keyboard-typing-sound-effect.mp3</property>
  <property name="aspect_ratio">1</property>
  <property name="meta.media.nb_streams">1</property>
  <property name="meta.media.0.stream.type">audio</property>
  <property name="meta.media.0.codec.sample_fmt">fltp</property>
  <property name="meta.media.0.codec.sample_rate">44100</property>
  <property name="meta.media.0.codec.channels">2</property>
  <property name="meta.media.0.codec.layout">stereo</property>
  <property name="meta.media.0.codec.name">mp3float</property>
  <property name="meta.media.0.codec.long_name">MP3 (MPEG audio layer 3)</property>
  <property name="meta.media.0.codec.bit_rate">256000</property>
  <property name="seekable">1</property>
  <property name="audio_index">0</property>
  <property name="video_index">-1</property>
  <property name="warp_speed">0.9</property>
  <property name="warp_resource">sound-effects/keyboard-typing-sound-effect.mp3</property>
  <property name="mlt_service">timewarp</property>
  <property name="kdenlive:control_uuid">{5adca730-cb6d-4be9-a08c-360448def8e4}</property>
  <property name="astream">0</property>
  <property name="set.test_audio">0</property>
  <property name="set.test_image">1</property>
  <property name="kdenlive:id">23</property>
  <property name="warp_pitch">0</property>
 </producer>
 <producer id="producer14" in="00:00:00.000" out="00:00:08.967">
  <property name="length">270</property>
  <property name="eof">pause</property>
  <property name="resource">0.900000:sound-effects/keyboard-typing-sound-effect.mp3</property>
  <property name="aspect_ratio">1</property>
  <property name="meta.media.nb_streams">1</property>
  <property name="meta.media.0.stream.type">audio</property>
  <property name="meta.media.0.codec.sample_fmt">fltp</property>
  <property name="meta.media.0.codec.sample_rate">44100</property>
  <property name="meta.media.0.codec.channels">2</property>
  <property name="meta.media.0.codec.layout">stereo</property>
  <property name="meta.media.0.codec.name">mp3float</property>
  <property name="meta.media.0.codec.long_name">MP3 (MPEG audio layer 3)</property>
  <property name="meta.media.0.codec.bit_rate">256000</property>
  <property name="seekable">1</property>
  <property name="audio_index">0</property>
  <property name="video_index">-1</property>
  <property name="warp_speed">0.9</property>
  <property name="warp_resource">sound-effects/keyboard-typing-sound-effect.mp3</property>
  <property name="mlt_service">timewarp</property>
  <property name="kdenlive:control_uuid">{5adca730-cb6d-4be9-a08c-360448def8e4}</property>
  <property name="astream">0</property>
  <property name="set.test_audio">0</property>
  <property name="set.test_image">1</property>
  <property name="kdenlive:id">23</property>
  <property name="warp_pitch">0</property>
 </producer>
 <producer id="producer15" in="00:00:00.000" out="00:00:08.967">
  <property name="length">270</property>
  <property name="eof">pause</property>
  <property name="resource">0.900000:sound-effects/keyboard-typing-sound-effect.mp3</property>
  <property name="aspect_ratio">1</property>
  <property name="meta.media.nb_streams">1</property>
  <property name="meta.media.0.stream.type">audio</property>
  <property name="meta.media.0.codec.sample_fmt">fltp</property>
  <property name="meta.media.0.codec.sample_rate">44100</property>
  <property name="meta.media.0.codec.channels">2</property>
  <property name="meta.media.0.codec.layout">stereo</property>
  <property name="meta.media.0.codec.name">mp3float</property>
  <property name="meta.media.0.codec.long_name">MP3 (MPEG audio layer 3)</property>
  <property name="meta.media.0.codec.bit_rate">256000</property>
  <property name="seekable">1</property>
  <property name="audio_index">0</property>
  <property name="video_index">-1</property>
  <property name="warp_speed">0.9</property>
  <property name="warp_resource">sound-effects/keyboard-typing-sound-effect.mp3</property>
  <property name="mlt_service">timewarp</property>
  <property name="kdenlive:control_uuid">{5adca730-cb6d-4be9-a08c-360448def8e4}</property>
  <property name="astream">0</property>
  <property name="set.test_audio">0</property>
  <property name="set.test_image">1</property>
  <property name="kdenlive:id">23</property>
  <property name="warp_pitch">0</property>
 </producer>
 <producer id="producer16" in="00:00:00.000" out="00:00:08.967">
  <property name="length">270</property>
  <property name="eof">pause</property>
  <property name="resource">0.900000:sound-effects/keyboard-typing-sound-effect.mp3</property>
  <property name="aspect_ratio">1</property>
  <property name="meta.media.nb_streams">1</property>
  <property name="meta.media.0.stream.type">audio</property>
  <property name="meta.media.0.codec.sample_fmt">fltp</property>
  <property name="meta.media.0.codec.sample_rate">44100</property>
  <property name="meta.media.0.codec.channels">2</property>
  <property name="meta.media.0.codec.layout">stereo</property>
  <property name="meta.media.0.codec.name">mp3float</property>
  <property name="meta.media.0.codec.long_name">MP3 (MPEG audio layer 3)</property>
  <property name="meta.media.0.codec.bit_rate">256000</property>
  <property name="seekable">1</property>
  <property name="audio_index">0</property>
  <property name="video_index">-1</property>
  <property name="warp_speed">0.9</property>
  <property name="warp_resource">sound-effects/keyboard-typing-sound-effect.mp3</property>
  <property name="mlt_service">timewarp</property>
  <property name="kdenlive:control_uuid">{5adca730-cb6d-4be9-a08c-360448def8e4}</property>
  <property name="astream">0</property>
  <property name="set.test_audio">0</property>
  <property name="set.test_image">1</property>
  <property name="kdenlive:id">23</property>
  <property name="warp_pitch">0</property>
 </producer>
 <producer id="producer17" in="00:00:00.000" out="00:00:08.967">
  <property name="length">270</property>
  <property name="eof">pause</property>
  <property name="resource">0.900000:sound-effects/keyboard-typing-sound-effect.mp3</property>
  <property name="aspect_ratio">1</property>
  <property name="meta.media.nb_streams">1</property>
  <property name="meta.media.0.stream.type">audio</property>
  <property name="meta.media.0.codec.sample_fmt">fltp</property>
  <property name="meta.media.0.codec.sample_rate">44100</property>
  <property name="meta.media.0.codec.channels">2</property>
  <property name="meta.media.0.codec.layout">stereo</property>
  <property name="meta.media.0.codec.name">mp3float</property>
  <property name="meta.media.0.codec.long_name">MP3 (MPEG audio layer 3)</property>
  <property name="meta.media.0.codec.bit_rate">256000</property>
  <property name="seekable">1</property>
  <property name="audio_index">0</property>
  <property name="video_index">-1</property>
  <property name="warp_speed">0.9</property>
  <property name="warp_resource">sound-effects/keyboard-typing-sound-effect.mp3</property>
  <property name="mlt_service">timewarp</property>
  <property name="kdenlive:control_uuid">{5adca730-cb6d-4be9-a08c-360448def8e4}</property>
  <property name="astream">0</property>
  <property name="set.test_audio">0</property>
  <property name="set.test_image">1</property>
  <property name="kdenlive:id">23</property>
  <property name="warp_pitch">0</property>
 </producer>
 <producer id="producer18" in="00:00:00.000" out="00:00:08.967">
  <property name="length">270</property>
  <property name="eof">pause</property>
  <property name="resource">0.900000:sound-effects/keyboard-typing-sound-effect.mp3</property>
  <property name="aspect_ratio">1</property>
  <property name="meta.media.nb_streams">1</property>
  <property name="meta.media.0.stream.type">audio</property>
  <property name="meta.media.0.codec.sample_fmt">fltp</property>
  <property name="meta.media.0.codec.sample_rate">44100</property>
  <property name="meta.media.0.codec.channels">2</property>
  <property name="meta.media.0.codec.layout">stereo</property>
  <property name="meta.media.0.codec.name">mp3float</property>
  <property name="meta.media.0.codec.long_name">MP3 (MPEG audio layer 3)</property>
  <property name="meta.media.0.codec.bit_rate">256000</property>
  <property name="seekable">1</property>
  <property name="audio_index">0</property>
  <property name="video_index">-1</property>
  <property name="warp_speed">0.9</property>
  <property name="warp_resource">sound-effects/keyboard-typing-sound-effect.mp3</property>
  <property name="mlt_service">timewarp</property>
  <property name="kdenlive:control_uuid">{5adca730-cb6d-4be9-a08c-360448def8e4}</property>
  <property name="astream">0</property>
  <property name="set.test_audio">0</property>
  <property name="set.test_image">1</property>
  <property name="kdenlive:id">23</property>
  <property name="warp_pitch">0</property>
 </producer>
 <producer id="producer19" in="00:00:00.000" out="00:00:08.967">
  <property name="length">270</property>
  <property name="eof">pause</property>
  <property name="resource">0.900000:sound-effects/keyboard-typing-sound-effect.mp3</property>
  <property name="aspect_ratio">1</property>
  <property name="meta.media.nb_streams">1</property>
  <property name="meta.media.0.stream.type">audio</property>
  <property name="meta.media.0.codec.sample_fmt">fltp</property>
  <property name="meta.media.0.codec.sample_rate">44100</property>
  <property name="meta.media.0.codec.channels">2</property>
  <property name="meta.media.0.codec.layout">stereo</property>
  <property name="meta.media.0.codec.name">mp3float</property>
  <property name="meta.media.0.codec.long_name">MP3 (MPEG audio layer 3)</property>
  <property name="meta.media.0.codec.bit_rate">256000</property>
  <property name="seekable">1</property>
  <property name="audio_index">0</property>
  <property name="video_index">-1</property>
  <property name="warp_speed">0.9</property>
  <property name="warp_resource">sound-effects/keyboard-typing-sound-effect.mp3</property>
  <property name="mlt_service">timewarp</property>
  <property name="kdenlive:control_uuid">{5adca730-cb6d-4be9-a08c-360448def8e4}</property>
  <property name="astream">0</property>
  <property name="set.test_audio">0</property>
  <property name="set.test_image">1</property>
  <property name="kdenlive:id">23</property>
  <property name="warp_pitch">0</property>
 </producer>
 <producer id="producer20" in="00:00:00.000" out="00:00:08.967">
  <property name="length">270</property>
  <property name="eof">pause</property>
  <property name="resource">0.900000:sound-effects/keyboard-typing-sound-effect.mp3</property>
  <property name="aspect_ratio">1</property>
  <property name="meta.media.nb_streams">1</property>
  <property name="meta.media.0.stream.type">audio</property>
  <property name="meta.media.0.codec.sample_fmt">fltp</property>
  <property name="meta.media.0.codec.sample_rate">44100</property>
  <property name="meta.media.0.codec.channels">2</property>
  <property name="meta.media.0.codec.layout">stereo</property>
  <property name="meta.media.0.codec.name">mp3float</property>
  <property name="meta.media.0.codec.long_name">MP3 (MPEG audio layer 3)</property>
  <property name="meta.media.0.codec.bit_rate">256000</property>
  <property name="seekable">1</property>
  <property name="audio_index">0</property>
  <property name="video_index">-1</property>
  <property name="warp_speed">0.9</property>
  <property name="warp_resource">sound-effects/keyboard-typing-sound-effect.mp3</property>
  <property name="mlt_service">timewarp</property>
  <property name="kdenlive:control_uuid">{5adca730-cb6d-4be9-a08c-360448def8e4}</property>
  <property name="astream">0</property>
  <property name="set.test_audio">0</property>
  <property name="set.test_image">1</property>
  <property name="kdenlive:id">23</property>
  <property name="warp_pitch">0</property>
 </producer>
 <producer id="producer21" in="00:00:00.000" out="00:00:08.967">
  <property name="length">270</property>
  <property name="eof">pause</property>
  <property name="resource">0.900000:sound-effects/keyboard-typing-sound-effect.mp3</property>
  <property name="aspect_ratio">1</property>
  <property name="meta.media.nb_streams">1</property>
  <property name="meta.media.0.stream.type">audio</property>
  <property name="meta.media.0.codec.sample_fmt">fltp</property>
  <property name="meta.media.0.codec.sample_rate">44100</property>
  <property name="meta.media.0.codec.channels">2</property>
  <property name="meta.media.0.codec.layout">stereo</property>
  <property name="meta.media.0.codec.name">mp3float</property>
  <property name="meta.media.0.codec.long_name">MP3 (MPEG audio layer 3)</property>
  <property name="meta.media.0.codec.bit_rate">256000</property>
  <property name="seekable">1</property>
  <property name="audio_index">0</property>
  <property name="video_index">-1</property>
  <property name="warp_speed">0.9</property>
  <property name="warp_resource">sound-effects/keyboard-typing-sound-effect.mp3</property>
  <property name="mlt_service">timewarp</property>
  <property name="kdenlive:control_uuid">{5adca730-cb6d-4be9-a08c-360448def8e4}</property>
  <property name="astream">0</property>
  <property name="set.test_audio">0</property>
  <property name="set.test_image">1</property>
  <property name="kdenlive:id">23</property>
  <property name="warp_pitch">0</property>
 </producer>
 <producer id="producer22" in="00:00:00.000" out="00:00:08.967">
  <property name="length">270</property>
  <property name="eof">pause</property>
  <property name="resource">0.900000:sound-effects/keyboard-typing-sound-effect.mp3</property>
  <property name="aspect_ratio">1</property>
  <property name="meta.media.nb_streams">1</property>
  <property name="meta.media.0.stream.type">audio</property>
  <property name="meta.media.0.codec.sample_fmt">fltp</property>
  <property name="meta.media.0.codec.sample_rate">44100</property>
  <property name="meta.media.0.codec.channels">2</property>
  <property name="meta.media.0.codec.layout">stereo</property>
  <property name="meta.media.0.codec.name">mp3float</property>
  <property name="meta.media.0.codec.long_name">MP3 (MPEG audio layer 3)</property>
  <property name="meta.media.0.codec.bit_rate">256000</property>
  <property name="seekable">1</property>
  <property name="audio_index">0</property>
  <property name="video_index">-1</property>
  <property name="warp_speed">0.9</property>
  <property name="warp_resource">sound-effects/keyboard-typing-sound-effect.mp3</property>
  <property name="mlt_service">timewarp</property>
  <property name="kdenlive:control_uuid">{5adca730-cb6d-4be9-a08c-360448def8e4}</property>
  <property name="astream">0</property>
  <property name="set.test_audio">0</property>
  <property name="set.test_image">1</property>
  <property name="kdenlive:id">23</property>
  <property name="warp_pitch">0</property>
 </producer>
 <producer id="producer23" in="00:00:00.000" out="00:00:08.967">
  <property name="length">270</property>
  <property name="eof">pause</property>
  <property name="resource">0.900000:sound-effects/keyboard-typing-sound-effect.mp3</property>
  <property name="aspect_ratio">1</property>
  <property name="meta.media.nb_streams">1</property>
  <property name="meta.media.0.stream.type">audio</property>
  <property name="meta.media.0.codec.sample_fmt">fltp</property>
  <property name="meta.media.0.codec.sample_rate">44100</property>
  <property name="meta.media.0.codec.channels">2</property>
  <property name="meta.media.0.codec.layout">stereo</property>
  <property name="meta.media.0.codec.name">mp3float</property>
  <property name="meta.media.0.codec.long_name">MP3 (MPEG audio layer 3)</property>
  <property name="meta.media.0.codec.bit_rate">256000</property>
  <property name="seekable">1</property>
  <property name="audio_index">0</property>
  <property name="video_index">-1</property>
  <property name="warp_speed">0.9</property>
  <property name="warp_resource">sound-effects/keyboard-typing-sound-effect.mp3</property>
  <property name="mlt_service">timewarp</property>
  <property name="kdenlive:control_uuid">{5adca730-cb6d-4be9-a08c-360448def8e4}</property>
  <property name="astream">0</property>
  <property name="set.test_audio">0</property>
  <property name="set.test_image">1</property>
  <property name="kdenlive:id">23</property>
  <property name="warp_pitch">0</property>
 </producer>
 <playlist id="playlist8">
  <property name="kdenlive:audio_track">1</property>
  <blank length="00:00:00.633"/>
  <entry in="00:00:01.567" out="00:00:03.000" producer="producer10">
   <property name="kdenlive:id">23</property>
  </entry>
  <entry in="00:00:01.567" out="00:00:02.833" producer="producer11">
   <property name="kdenlive:id">23</property>
  </entry>
  <entry in="00:00:01.567" out="00:00:02.833" producer="producer12">
   <property name="kdenlive:id">23</property>
  </entry>
  <entry in="00:00:01.567" out="00:00:01.733" producer="producer13">
   <property name="kdenlive:id">23</property>
  </entry>
  <blank length="00:00:37.600"/>
  <entry in="00:00:01.567" out="00:00:02.767" producer="producer14">
   <property name="kdenlive:id">23</property>
  </entry>
  <blank length="00:00:53.100"/>
  <entry in="00:00:01.567" out="00:00:02.767" producer="producer15">
   <property name="kdenlive:id">23</property>
  </entry>
  <entry in="00:00:01.567" out="00:00:02.533" producer="producer16">
   <property name="kdenlive:id">23</property>
  </entry>
  <blank length="00:00:45.633"/>
  <entry in="00:00:01.567" out="00:00:02.767" producer="producer17">
   <property name="kdenlive:id">23</property>
  </entry>
  <blank length="00:00:46.267"/>
  <entry in="00:00:01.567" out="00:00:02.767" producer="producer18">
   <property name="kdenlive:id">23</property>
  </entry>
  <entry in="00:00:01.567" out="00:00:02.233" producer="producer19">
   <property name="kdenlive:id">23</property>
  </entry>
  <blank length="00:00:55.667"/>
  <entry in="00:00:01.567" out="00:00:02.767" producer="producer20">
   <property name="kdenlive:id">23</property>
  </entry>
  <entry in="00:00:01.567" out="00:00:01.833" producer="producer21">
   <property name="kdenlive:id">23</property>
  </entry>
  <blank length="00:00:46.567"/>
  <entry in="00:00:01.567" out="00:00:02.767" producer="producer22">
   <property name="kdenlive:id">23</property>
  </entry>
  <entry in="00:00:01.567" out="00:00:01.900" producer="producer23">
   <property name="kdenlive:id">23</property>
  </entry>
 </playlist>
 <playlist id="playlist9">
  <property name="kdenlive:audio_track">1</property>
 </playlist>
 <tractor id="tractor4" in="00:00:00.000" out="00:04:59.467">
  <property name="kdenlive:audio_track">1</property>
  <property name="kdenlive:trackheight">54</property>
  <property name="kdenlive:timeline_active">1</property>
  <property name="kdenlive:collapsed">0</property>
  <property name="kdenlive:thumbs_format"/>
  <property name="kdenlive:audio_rec"/>
  <track hide="video" producer="playlist8"/>
  <track hide="video" producer="playlist9"/>
  <filter id="filter28">
   <property name="window">75</property>
   <property name="max_gain">20dB</property>
   <property name="level">-4.17502</property>
   <property name="channel_mask">-1</property>
   <property name="mlt_service">volume</property>
   <property name="internal_added">237</property>
   <property name="disable">0</property>
  </filter>
  <filter id="filter29">
   <property name="channel">-1</property>
   <property name="mlt_service">panner</property>
   <property name="internal_added">237</property>
   <property name="start">0.5</property>
   <property name="disable">1</property>
  </filter>
  <filter id="filter27">
   <property name="iec_scale">0</property>
   <property name="mlt_service">audiolevel</property>
   <property name="dbpeak">1</property>
   <property name="disable">1</property>
  </filter>
 </tractor>
 <producer id="producer24" in="00:00:00.000" out="00:00:06.633">
  <property name="length">200</property>
  <property name="eof">pause</property>
  <property name="resource">1.200000:first-7-videos/1 INTRO: “AI Everywhere”.mp4</property>
  <property name="aspect_ratio">1</property>
  <property name="meta.media.nb_streams">2</property>
  <property name="meta.media.0.stream.type">video</property>
  <property name="meta.media.0.stream.frame_rate">24</property>
  <property name="meta.media.0.stream.sample_aspect_ratio">0</property>
  <property name="meta.media.0.codec.width">1280</property>
  <property name="meta.media.0.codec.height">720</property>
  <property name="meta.media.0.codec.rotate">0</property>
  <property name="meta.media.0.codec.pix_fmt">yuv420p</property>
  <property name="meta.media.0.codec.sample_aspect_ratio">0</property>
  <property name="meta.media.0.codec.colorspace">709</property>
  <property name="meta.media.0.codec.name">h264</property>
  <property name="meta.media.0.codec.long_name">H.264 / AVC / MPEG-4 AVC / MPEG-4 part 10</property>
  <property name="meta.media.0.codec.bit_rate">4905066</property>
  <property name="meta.attr.0.stream.handler_name.markup">VideoHandler</property>
  <property name="meta.attr.0.stream.vendor_id.markup">[0][0][0][0]</property>
  <property name="meta.media.1.stream.type">audio</property>
  <property name="meta.media.1.codec.sample_fmt">fltp</property>
  <property name="meta.media.1.codec.sample_rate">48000</property>
  <property name="meta.media.1.codec.channels">2</property>
  <property name="meta.media.1.codec.layout">stereo</property>
  <property name="meta.media.1.codec.name">aac</property>
  <property name="meta.media.1.codec.long_name">AAC (Advanced Audio Coding)</property>
  <property name="meta.media.1.codec.bit_rate">140006</property>
  <property name="meta.attr.1.stream.handler_name.markup">SoundHandler</property>
  <property name="meta.attr.1.stream.vendor_id.markup">[0][0][0][0]</property>
  <property name="meta.attr.major_brand.markup">isom</property>
  <property name="meta.attr.minor_version.markup">512</property>
  <property name="meta.attr.compatible_brands.markup">isomiso2avc1mp41</property>
  <property name="meta.attr.encoder.markup">Google</property>
  <property name="seekable">1</property>
  <property name="meta.media.sample_aspect_num">1</property>
  <property name="meta.media.sample_aspect_den">1</property>
  <property name="format">3</property>
  <property name="audio_index">1</property>
  <property name="video_index">0</property>
  <property name="warp_speed">1.2</property>
  <property name="warp_resource">first-7-videos/1 INTRO: “AI Everywhere”.mp4</property>
  <property name="mlt_service">timewarp</property>
  <property name="kdenlive:control_uuid">{cd7cd5f9-3631-4a99-844d-dfda9cdb4c05}</property>
  <property name="vstream">0</property>
  <property name="astream">0</property>
  <property name="kdenlive:markers">[
]
</property>
  <property name="set.test_audio">1</property>
  <property name="set.test_image">0</property>
  <property name="kdenlive:id">7</property>
  <property name="warp_pitch">0</property>
  <property name="meta.media.frame_rate_num">24</property>
  <property name="meta.media.frame_rate_den">1</property>
  <property name="meta.media.colorspace">709</property>
  <property name="meta.media.color_trc">2</property>
  <property name="meta.media.has_b_frames">2</property>
  <property name="meta.media.width">1280</property>
  <property name="meta.media.height">720</property>
  <property name="meta.media.aspect_ratio">1</property>
  <property name="meta.media.color_range">mpeg</property>
  <property name="meta.media.top_field_first">0</property>
  <property name="meta.media.progressive">1</property>
 </producer>
 <producer id="producer25" in="00:00:00.000" out="00:00:12.467">
  <property name="length">375</property>
  <property name="eof">pause</property>
  <property name="resource">1.200000:videos/1/no-sci-fi.mp4</property>
  <property name="aspect_ratio">1</property>
  <property name="meta.media.nb_streams">1</property>
  <property name="meta.media.0.stream.type">video</property>
  <property name="meta.media.0.stream.frame_rate">25</property>
  <property name="meta.media.0.stream.sample_aspect_ratio">0</property>
  <property name="meta.media.0.codec.width">1920</property>
  <property name="meta.media.0.codec.height">1080</property>
  <property name="meta.media.0.codec.rotate">0</property>
  <property name="meta.media.0.codec.pix_fmt">yuv420p</property>
  <property name="meta.media.0.codec.sample_aspect_ratio">0</property>
  <property name="meta.media.0.codec.colorspace">709</property>
  <property name="meta.media.0.codec.name">h264</property>
  <property name="meta.media.0.codec.long_name">H.264 / AVC / MPEG-4 AVC / MPEG-4 part 10</property>
  <property name="meta.media.0.codec.bit_rate">2514747</property>
  <property name="meta.attr.0.stream.handler_name.markup">VideoHandler</property>
  <property name="meta.attr.0.stream.vendor_id.markup">[0][0][0][0]</property>
  <property name="meta.attr.major_brand.markup">isom</property>
  <property name="meta.attr.minor_version.markup">512</property>
  <property name="meta.attr.compatible_brands.markup">isomiso2avc1mp41</property>
  <property name="meta.attr.encoder.markup">Lavf58.29.100</property>
  <property name="seekable">1</property>
  <property name="meta.media.sample_aspect_num">1</property>
  <property name="meta.media.sample_aspect_den">1</property>
  <property name="format">3</property>
  <property name="audio_index">-1</property>
  <property name="video_index">0</property>
  <property name="warp_speed">1.2</property>
  <property name="warp_resource">videos/1/no-sci-fi.mp4</property>
  <property name="mlt_service">timewarp</property>
  <property name="kdenlive:control_uuid">{dc23ddd1-44ec-4ff8-8a5c-704d25a07921}</property>
  <property name="vstream">0</property>
  <property name="astream">-1</property>
  <property name="set.test_audio">1</property>
  <property name="set.test_image">0</property>
  <property name="kdenlive:id">46</property>
  <property name="warp_pitch">0</property>
  <property name="meta.media.frame_rate_num">25</property>
  <property name="meta.media.frame_rate_den">1</property>
  <property name="meta.media.colorspace">709</property>
  <property name="meta.media.color_trc">2</property>
  <property name="meta.media.has_b_frames">2</property>
  <property name="meta.media.width">1920</property>
  <property name="meta.media.height">1080</property>
  <property name="meta.media.aspect_ratio">1</property>
  <property name="meta.media.color_range">mpeg</property>
  <property name="meta.media.top_field_first">0</property>
  <property name="meta.media.progressive">1</property>
 </producer>
 <producer id="producer26" in="00:00:00.000" out="00:00:16.667">
  <property name="length">501</property>
  <property name="eof">pause</property>
  <property name="resource">1.200000:videos/1/in-phones.mp4</property>
  <property name="aspect_ratio">1</property>
  <property name="meta.media.nb_streams">1</property>
  <property name="meta.media.0.stream.type">video</property>
  <property name="meta.media.0.stream.frame_rate">25</property>
  <property name="meta.media.0.stream.sample_aspect_ratio">0</property>
  <property name="meta.media.0.codec.width">1920</property>
  <property name="meta.media.0.codec.height">1080</property>
  <property name="meta.media.0.codec.rotate">0</property>
  <property name="meta.media.0.codec.pix_fmt">yuvj422p</property>
  <property name="meta.media.0.codec.sample_aspect_ratio">1</property>
  <property name="meta.media.0.codec.colorspace">709</property>
  <property name="meta.media.0.codec.name">h264</property>
  <property name="meta.media.0.codec.long_name">H.264 / AVC / MPEG-4 AVC / MPEG-4 part 10</property>
  <property name="meta.media.0.codec.bit_rate">7742008</property>
  <property name="meta.attr.0.stream.language.markup">eng</property>
  <property name="meta.attr.0.stream.handler_name.markup">VideoHandler</property>
  <property name="meta.attr.0.stream.vendor_id.markup">[0][0][0][0]</property>
  <property name="meta.attr.major_brand.markup">isom</property>
  <property name="meta.attr.minor_version.markup">512</property>
  <property name="meta.attr.compatible_brands.markup">isomiso2avc1mp41</property>
  <property name="meta.attr.encoder.markup">Lavf56.4.101</property>
  <property name="seekable">1</property>
  <property name="meta.media.sample_aspect_num">1</property>
  <property name="meta.media.sample_aspect_den">1</property>
  <property name="format">3</property>
  <property name="audio_index">-1</property>
  <property name="video_index">0</property>
  <property name="warp_speed">1.2</property>
  <property name="warp_resource">videos/1/in-phones.mp4</property>
  <property name="mlt_service">timewarp</property>
  <property name="kdenlive:control_uuid">{a41f9dfa-a067-4e17-820f-af946630d2b9}</property>
  <property name="vstream">0</property>
  <property name="astream">-1</property>
  <property name="set.test_audio">1</property>
  <property name="set.test_image">0</property>
  <property name="kdenlive:id">45</property>
  <property name="warp_pitch">0</property>
  <property name="meta.media.frame_rate_num">25</property>
  <property name="meta.media.frame_rate_den">1</property>
  <property name="meta.media.colorspace">709</property>
  <property name="meta.media.color_trc">2</property>
  <property name="meta.media.has_b_frames">2</property>
  <property name="meta.media.width">1920</property>
  <property name="meta.media.height">1080</property>
  <property name="meta.media.aspect_ratio">1</property>
  <property name="meta.media.color_range">full</property>
  <property name="meta.media.top_field_first">0</property>
  <property name="meta.media.progressive">1</property>
 </producer>
 <producer id="producer27" in="00:00:00.000" out="00:00:22.733">
  <property name="length">683</property>
  <property name="eof">pause</property>
  <property name="resource">1.200000:videos/1/car-driving.mp4</property>
  <property name="aspect_ratio">1</property>
  <property name="meta.media.nb_streams">2</property>
  <property name="meta.media.0.stream.type">video</property>
  <property name="meta.media.0.stream.frame_rate">25</property>
  <property name="meta.media.0.stream.sample_aspect_ratio">0</property>
  <property name="meta.media.0.codec.width">1920</property>
  <property name="meta.media.0.codec.height">1080</property>
  <property name="meta.media.0.codec.rotate">0</property>
  <property name="meta.media.0.codec.pix_fmt">yuv420p</property>
  <property name="meta.media.0.codec.sample_aspect_ratio">0</property>
  <property name="meta.media.0.codec.colorspace">709</property>
  <property name="meta.media.0.codec.color_trc">1</property>
  <property name="meta.media.0.codec.name">h264</property>
  <property name="meta.media.0.codec.long_name">H.264 / AVC / MPEG-4 AVC / MPEG-4 part 10</property>
  <property name="meta.media.0.codec.bit_rate">4208957</property>
  <property name="meta.attr.0.stream.creation_time.markup">2022-10-06T17:44:12.000000Z</property>
  <property name="meta.attr.0.stream.handler_name.markup">Vimeo Artax Video Handler</property>
  <property name="meta.attr.0.stream.vendor_id.markup">[0][0][0][0]</property>
  <property name="meta.attr.0.stream.encoder.markup">AVC Coding</property>
  <property name="meta.media.1.stream.type">audio</property>
  <property name="meta.media.1.codec.sample_fmt">fltp</property>
  <property name="meta.media.1.codec.sample_rate">48000</property>
  <property name="meta.media.1.codec.channels">2</property>
  <property name="meta.media.1.codec.layout">stereo</property>
  <property name="meta.media.1.codec.name">aac</property>
  <property name="meta.media.1.codec.long_name">AAC (Advanced Audio Coding)</property>
  <property name="meta.media.1.codec.bit_rate">189384</property>
  <property name="meta.attr.1.stream.creation_time.markup">2022-10-06T17:44:12.000000Z</property>
  <property name="meta.attr.1.stream.handler_name.markup">Vimeo Artax Audio Handler</property>
  <property name="meta.attr.1.stream.vendor_id.markup">[0][0][0][0]</property>
  <property name="meta.attr.major_brand.markup">mp42</property>
  <property name="meta.attr.minor_version.markup">0</property>
  <property name="meta.attr.compatible_brands.markup">mp42isomavc1</property>
  <property name="meta.attr.creation_time.markup">2022-10-06T17:44:12.000000Z</property>
  <property name="seekable">1</property>
  <property name="meta.media.sample_aspect_num">1</property>
  <property name="meta.media.sample_aspect_den">1</property>
  <property name="format">3</property>
  <property name="audio_index">1</property>
  <property name="video_index">0</property>
  <property name="warp_speed">1.2</property>
  <property name="warp_resource">videos/1/car-driving.mp4</property>
  <property name="mlt_service">timewarp</property>
  <property name="kdenlive:control_uuid">{022da2ab-58c9-466d-b5a6-b123d365f4f5}</property>
  <property name="vstream">0</property>
  <property name="astream">0</property>
  <property name="set.test_audio">1</property>
  <property name="set.test_image">0</property>
  <property name="kdenlive:id">43</property>
  <property name="warp_pitch">0</property>
  <property name="meta.media.frame_rate_num">25</property>
  <property name="meta.media.frame_rate_den">1</property>
  <property name="meta.media.colorspace">709</property>
  <property name="meta.media.color_trc">1</property>
  <property name="meta.media.has_b_frames">2</property>
  <property name="meta.media.width">1920</property>
  <property name="meta.media.height">1080</property>
  <property name="meta.media.aspect_ratio">1</property>
  <property name="meta.media.color_range">mpeg</property>
  <property name="meta.media.top_field_first">0</property>
  <property name="meta.media.progressive">1</property>
 </producer>
 <producer id="producer28" in="00:00:00.000" out="00:00:06.467">
  <property name="length">195</property>
  <property name="eof">pause</property>
  <property name="resource">1.200000:videos/1/doctor tablet.mp4</property>
  <property name="aspect_ratio">1</property>
  <property name="meta.media.nb_streams">1</property>
  <property name="meta.media.0.stream.type">video</property>
  <property name="meta.media.0.stream.frame_rate">24</property>
  <property name="meta.media.0.stream.sample_aspect_ratio">1.00011</property>
  <property name="meta.media.0.codec.width">1920</property>
  <property name="meta.media.0.codec.height">1080</property>
  <property name="meta.media.0.codec.rotate">0</property>
  <property name="meta.media.0.codec.pix_fmt">yuv420p</property>
  <property name="meta.media.0.codec.sample_aspect_ratio">1</property>
  <property name="meta.media.0.codec.colorspace">709</property>
  <property name="meta.media.0.codec.name">h264</property>
  <property name="meta.media.0.codec.long_name">H.264 / AVC / MPEG-4 AVC / MPEG-4 part 10</property>
  <property name="meta.media.0.codec.bit_rate">3321738</property>
  <property name="meta.attr.0.stream.handler_name.markup">VideoHandler</property>
  <property name="meta.attr.0.stream.vendor_id.markup">[0][0][0][0]</property>
  <property name="meta.attr.0.stream.encoder.markup">Lavc59.37.100 libx264</property>
  <property name="meta.attr.major_brand.markup">iso5</property>
  <property name="meta.attr.minor_version.markup">512</property>
  <property name="meta.attr.compatible_brands.markup">iso5iso6mp41</property>
  <property name="meta.attr.title.markup">Dentist examines patient with virtual screen showing 3D jaw model data using advanced technology, dental care footage.</property>
  <property name="meta.attr.encoder.markup">Lavf59.27.100</property>
  <property name="seekable">1</property>
  <property name="meta.media.sample_aspect_num">8961</property>
  <property name="meta.media.sample_aspect_den">8960</property>
  <property name="format">3</property>
  <property name="audio_index">-1</property>
  <property name="video_index">0</property>
  <property name="warp_speed">1.2</property>
  <property name="warp_resource">videos/1/doctor tablet.mp4</property>
  <property name="mlt_service">timewarp</property>
  <property name="kdenlive:control_uuid">{9722301b-7a73-4943-9f9c-903b2f43b474}</property>
  <property name="vstream">0</property>
  <property name="astream">-1</property>
  <property name="set.test_audio">1</property>
  <property name="set.test_image">0</property>
  <property name="kdenlive:id">44</property>
  <property name="warp_pitch">0</property>
  <property name="meta.media.frame_rate_num">24</property>
  <property name="meta.media.frame_rate_den">1</property>
  <property name="meta.media.colorspace">709</property>
  <property name="meta.media.color_trc">2</property>
  <property name="meta.media.has_b_frames">2</property>
  <property name="meta.media.width">1920</property>
  <property name="meta.media.height">1080</property>
  <property name="meta.media.aspect_ratio">1.00011</property>
  <property name="meta.media.color_range">mpeg</property>
  <property name="meta.media.top_field_first">0</property>
  <property name="meta.media.progressive">1</property>
 </producer>
 <producer id="producer29" in="00:00:00.000" out="00:00:09.367">
  <property name="length">282</property>
  <property name="eof">pause</property>
  <property name="resource">1.200000:videos/1/recommend-system.mp4</property>
  <property name="aspect_ratio">1</property>
  <property name="meta.media.nb_streams">1</property>
  <property name="meta.media.0.stream.type">video</property>
  <property name="meta.media.0.stream.frame_rate">50</property>
  <property name="meta.media.0.stream.sample_aspect_ratio">0</property>
  <property name="meta.media.0.codec.width">1920</property>
  <property name="meta.media.0.codec.height">1080</property>
  <property name="meta.media.0.codec.rotate">0</property>
  <property name="meta.media.0.codec.pix_fmt">yuv420p</property>
  <property name="meta.media.0.codec.sample_aspect_ratio">1</property>
  <property name="meta.media.0.codec.colorspace">709</property>
  <property name="meta.media.0.codec.name">h264</property>
  <property name="meta.media.0.codec.long_name">H.264 / AVC / MPEG-4 AVC / MPEG-4 part 10</property>
  <property name="meta.media.0.codec.bit_rate">3859412</property>
  <property name="meta.attr.0.stream.creation_time.markup">2016-04-18T13:12:41.000000Z</property>
  <property name="meta.attr.0.stream.handler_name.markup">VideoHandler</property>
  <property name="meta.attr.0.stream.vendor_id.markup">[0][0][0][0]</property>
  <property name="meta.attr.major_brand.markup">isom</property>
  <property name="meta.attr.minor_version.markup">512</property>
  <property name="meta.attr.compatible_brands.markup">isomiso2avc1mp41</property>
  <property name="meta.attr.creation_time.markup">2016-04-18T13:12:41.000000Z</property>
  <property name="meta.attr.encoder.markup">Lavf55.33.100</property>
  <property name="seekable">1</property>
  <property name="meta.media.sample_aspect_num">1</property>
  <property name="meta.media.sample_aspect_den">1</property>
  <property name="format">3</property>
  <property name="audio_index">-1</property>
  <property name="video_index">0</property>
  <property name="warp_speed">1.2</property>
  <property name="warp_resource">videos/1/recommend-system.mp4</property>
  <property name="mlt_service">timewarp</property>
  <property name="kdenlive:control_uuid">{449aa7b5-b16f-4794-8dde-0a517c312a82}</property>
  <property name="vstream">0</property>
  <property name="astream">-1</property>
  <property name="set.test_audio">1</property>
  <property name="set.test_image">0</property>
  <property name="kdenlive:id">47</property>
  <property name="warp_pitch">0</property>
  <property name="meta.media.frame_rate_num">50</property>
  <property name="meta.media.frame_rate_den">1</property>
  <property name="meta.media.colorspace">709</property>
  <property name="meta.media.color_trc">2</property>
  <property name="meta.media.has_b_frames">0</property>
  <property name="meta.media.width">1920</property>
  <property name="meta.media.height">1080</property>
  <property name="meta.media.aspect_ratio">1</property>
  <property name="meta.media.color_range">mpeg</property>
  <property name="meta.media.top_field_first">0</property>
  <property name="meta.media.progressive">1</property>
 </producer>
 <producer id="producer30" in="00:00:00.000" out="00:00:16.633">
  <property name="length">501</property>
  <property name="eof">pause</property>
  <property name="resource">1.200000:videos/1/translate.mp4</property>
  <property name="aspect_ratio">1</property>
  <property name="meta.media.nb_streams">1</property>
  <property name="meta.media.0.stream.type">video</property>
  <property name="meta.media.0.stream.frame_rate">29.97</property>
  <property name="meta.media.0.stream.sample_aspect_ratio">0</property>
  <property name="meta.media.0.codec.width">960</property>
  <property name="meta.media.0.codec.height">540</property>
  <property name="meta.media.0.codec.rotate">0</property>
  <property name="meta.media.0.codec.pix_fmt">yuv420p</property>
  <property name="meta.media.0.codec.sample_aspect_ratio">1</property>
  <property name="meta.media.0.codec.colorspace">709</property>
  <property name="meta.media.0.codec.name">h264</property>
  <property name="meta.media.0.codec.long_name">H.264 / AVC / MPEG-4 AVC / MPEG-4 part 10</property>
  <property name="meta.media.0.codec.bit_rate">3287013</property>
  <property name="meta.attr.0.stream.vendor_id.markup">[0][0][0][0]</property>
  <property name="meta.attr.major_brand.markup">isom</property>
  <property name="meta.attr.minor_version.markup">1</property>
  <property name="meta.attr.compatible_brands.markup">isomavc1mp42</property>
  <property name="meta.attr.creation_time.markup">2025-10-01T03:05:34.000000Z</property>
  <property name="seekable">1</property>
  <property name="meta.media.sample_aspect_num">1</property>
  <property name="meta.media.sample_aspect_den">1</property>
  <property name="format">3</property>
  <property name="audio_index">-1</property>
  <property name="video_index">0</property>
  <property name="warp_speed">1.2</property>
  <property name="warp_resource">videos/1/translate.mp4</property>
  <property name="mlt_service">timewarp</property>
  <property name="kdenlive:control_uuid">{7da028d8-c0ce-4ec3-9844-bf21162ee309}</property>
  <property name="vstream">0</property>
  <property name="astream">-1</property>
  <property name="set.test_audio">1</property>
  <property name="set.test_image">0</property>
  <property name="kdenlive:id">48</property>
  <property name="warp_pitch">0</property>
  <property name="meta.media.frame_rate_num">30000</property>
  <property name="meta.media.frame_rate_den">1001</property>
  <property name="meta.media.colorspace">709</property>
  <property name="meta.media.color_trc">2</property>
  <property name="meta.media.has_b_frames">0</property>
  <property name="meta.media.width">960</property>
  <property name="meta.media.height">540</property>
  <property name="meta.media.aspect_ratio">1</property>
  <property name="meta.media.color_range">mpeg</property>
  <property name="meta.media.top_field_first">0</property>
  <property name="meta.media.progressive">1</property>
 </producer>
 <producer id="producer31" in="00:00:00.000" out="00:00:07.967">
  <property name="length">240</property>
  <property name="eof">pause</property>
  <property name="resource">1.200000:videos/1/diagnose-analyze.mp4</property>
  <property name="aspect_ratio">1</property>
  <property name="meta.media.nb_streams">3</property>
  <property name="meta.media.0.stream.type">video</property>
  <property name="meta.media.0.stream.frame_rate">24</property>
  <property name="meta.media.0.stream.sample_aspect_ratio">1</property>
  <property name="meta.media.0.codec.width">1920</property>
  <property name="meta.media.0.codec.height">1080</property>
  <property name="meta.media.0.codec.rotate">0</property>
  <property name="meta.media.0.codec.pix_fmt">yuv420p</property>
  <property name="meta.media.0.codec.sample_aspect_ratio">1</property>
  <property name="meta.media.0.codec.colorspace">709</property>
  <property name="meta.media.0.codec.name">h264</property>
  <property name="meta.media.0.codec.long_name">H.264 / AVC / MPEG-4 AVC / MPEG-4 part 10</property>
  <property name="meta.media.0.codec.bit_rate">12051528</property>
  <property name="meta.attr.0.stream.language.markup">eng</property>
  <property name="meta.attr.0.stream.handler_name.markup">VideoHandler</property>
  <property name="meta.attr.0.stream.vendor_id.markup">[0][0][0][0]</property>
  <property name="meta.attr.0.stream.timecode.markup">00:00:00:00</property>
  <property name="meta.media.1.stream.type">audio</property>
  <property name="meta.media.1.codec.sample_fmt">fltp</property>
  <property name="meta.media.1.codec.sample_rate">48000</property>
  <property name="meta.media.1.codec.channels">2</property>
  <property name="meta.media.1.codec.layout">stereo</property>
  <property name="meta.media.1.codec.name">mp3float</property>
  <property name="meta.media.1.codec.long_name">MP3 (MPEG audio layer 3)</property>
  <property name="meta.media.1.codec.bit_rate">128013</property>
  <property name="meta.attr.1.stream.language.markup">eng</property>
  <property name="meta.attr.1.stream.handler_name.markup">SoundHandler</property>
  <property name="meta.attr.1.stream.vendor_id.markup">[0][0][0][0]</property>
  <property name="meta.attr.major_brand.markup">isom</property>
  <property name="meta.attr.minor_version.markup">512</property>
  <property name="meta.attr.compatible_brands.markup">isomiso2avc1mp41</property>
  <property name="meta.attr.encoder.markup">Lavf58.45.100</property>
  <property name="seekable">1</property>
  <property name="meta.media.sample_aspect_num">1</property>
  <property name="meta.media.sample_aspect_den">1</property>
  <property name="format">3</property>
  <property name="audio_index">1</property>
  <property name="video_index">0</property>
  <property name="warp_speed">1.2</property>
  <property name="warp_resource">videos/1/diagnose-analyze.mp4</property>
  <property name="mlt_service">timewarp</property>
  <property name="kdenlive:control_uuid">{fedf5b37-c41b-488b-a72c-baaada517d23}</property>
  <property name="vstream">0</property>
  <property name="astream">0</property>
  <property name="set.test_audio">1</property>
  <property name="set.test_image">0</property>
  <property name="kdenlive:id">55</property>
  <property name="warp_pitch">0</property>
  <property name="meta.media.frame_rate_num">24</property>
  <property name="meta.media.frame_rate_den">1</property>
  <property name="meta.media.colorspace">709</property>
  <property name="meta.media.color_trc">2</property>
  <property name="meta.media.has_b_frames">2</property>
  <property name="meta.media.width">1920</property>
  <property name="meta.media.height">1080</property>
  <property name="meta.media.aspect_ratio">1</property>
  <property name="meta.media.color_range">mpeg</property>
  <property name="meta.media.top_field_first">0</property>
  <property name="meta.media.progressive">1</property>
 </producer>
 <producer id="producer32" in="00:00:00.000" out="00:00:12.467">
  <property name="length">375</property>
  <property name="eof">pause</property>
  <property name="resource">1.200000:videos/1/deeper.mp4</property>
  <property name="aspect_ratio">1</property>
  <property name="meta.media.nb_streams">1</property>
  <property name="meta.media.0.stream.type">video</property>
  <property name="meta.media.0.stream.frame_rate">29.97</property>
  <property name="meta.media.0.stream.sample_aspect_ratio">0</property>
  <property name="meta.media.0.codec.width">960</property>
  <property name="meta.media.0.codec.height">540</property>
  <property name="meta.media.0.codec.rotate">0</property>
  <property name="meta.media.0.codec.pix_fmt">yuv420p</property>
  <property name="meta.media.0.codec.sample_aspect_ratio">1</property>
  <property name="meta.media.0.codec.colorspace">709</property>
  <property name="meta.media.0.codec.color_trc">1</property>
  <property name="meta.media.0.codec.name">h264</property>
  <property name="meta.media.0.codec.long_name">H.264 / AVC / MPEG-4 AVC / MPEG-4 part 10</property>
  <property name="meta.media.0.codec.bit_rate">7607832</property>
  <property name="meta.attr.0.stream.vendor_id.markup">[0][0][0][0]</property>
  <property name="meta.attr.major_brand.markup">isom</property>
  <property name="meta.attr.minor_version.markup">1</property>
  <property name="meta.attr.compatible_brands.markup">isomavc1mp42</property>
  <property name="meta.attr.creation_time.markup">2025-05-15T00:50:35.000000Z</property>
  <property name="seekable">1</property>
  <property name="meta.media.sample_aspect_num">1</property>
  <property name="meta.media.sample_aspect_den">1</property>
  <property name="format">3</property>
  <property name="audio_index">-1</property>
  <property name="video_index">0</property>
  <property name="warp_speed">1.2</property>
  <property name="warp_resource">videos/1/deeper.mp4</property>
  <property name="mlt_service">timewarp</property>
  <property name="kdenlive:control_uuid">{d3a97a37-e574-4388-b453-6d5a620f3dc3}</property>
  <property name="vstream">0</property>
  <property name="astream">-1</property>
  <property name="set.test_audio">1</property>
  <property name="set.test_image">0</property>
  <property name="kdenlive:id">49</property>
  <property name="warp_pitch">0</property>
  <property name="meta.media.frame_rate_num">30000</property>
  <property name="meta.media.frame_rate_den">1001</property>
  <property name="meta.media.colorspace">709</property>
  <property name="meta.media.color_trc">1</property>
  <property name="meta.media.has_b_frames">0</property>
  <property name="meta.media.width">960</property>
  <property name="meta.media.height">540</property>
  <property name="meta.media.aspect_ratio">1</property>
  <property name="meta.media.color_range">mpeg</property>
  <property name="meta.media.top_field_first">0</property>
  <property name="meta.media.progressive">1</property>
 </producer>
 <producer id="producer33" in="00:00:00.000" out="00:00:07.633">
  <property name="length">230</property>
  <property name="eof">pause</property>
  <property name="resource">1.200000:videos/1/really-understand.mp4</property>
  <property name="aspect_ratio">1</property>
  <property name="meta.media.nb_streams">2</property>
  <property name="meta.media.0.stream.type">video</property>
  <property name="meta.media.0.stream.frame_rate">29.97</property>
  <property name="meta.media.0.stream.sample_aspect_ratio">0</property>
  <property name="meta.media.0.codec.width">1920</property>
  <property name="meta.media.0.codec.height">1080</property>
  <property name="meta.media.0.codec.rotate">0</property>
  <property name="meta.media.0.codec.pix_fmt">yuv420p</property>
  <property name="meta.media.0.codec.sample_aspect_ratio">0</property>
  <property name="meta.media.0.codec.colorspace">709</property>
  <property name="meta.media.0.codec.name">h264</property>
  <property name="meta.media.0.codec.long_name">H.264 / AVC / MPEG-4 AVC / MPEG-4 part 10</property>
  <property name="meta.media.0.codec.bit_rate">12049603</property>
  <property name="meta.attr.0.stream.language.markup">eng</property>
  <property name="meta.attr.0.stream.handler_name.markup">Mainconcept Video Media Handler</property>
  <property name="meta.attr.0.stream.vendor_id.markup">[0][0][0][0]</property>
  <property name="meta.media.1.stream.type">audio</property>
  <property name="meta.media.1.codec.sample_fmt">fltp</property>
  <property name="meta.media.1.codec.sample_rate">48000</property>
  <property name="meta.media.1.codec.channels">2</property>
  <property name="meta.media.1.codec.layout">stereo</property>
  <property name="meta.media.1.codec.name">mp3float</property>
  <property name="meta.media.1.codec.long_name">MP3 (MPEG audio layer 3)</property>
  <property name="meta.media.1.codec.bit_rate">128013</property>
  <property name="meta.attr.1.stream.language.markup">eng</property>
  <property name="meta.attr.1.stream.handler_name.markup">#Mainconcept MP4 Sound Media Handler</property>
  <property name="meta.attr.1.stream.vendor_id.markup">[0][0][0][0]</property>
  <property name="meta.attr.major_brand.markup">isom</property>
  <property name="meta.attr.minor_version.markup">512</property>
  <property name="meta.attr.compatible_brands.markup">isomiso2avc1mp41</property>
  <property name="meta.attr.encoder.markup">Lavf58.45.100</property>
  <property name="seekable">1</property>
  <property name="meta.media.sample_aspect_num">1</property>
  <property name="meta.media.sample_aspect_den">1</property>
  <property name="format">3</property>
  <property name="audio_index">1</property>
  <property name="video_index">0</property>
  <property name="warp_speed">1.2</property>
  <property name="warp_resource">videos/1/really-understand.mp4</property>
  <property name="mlt_service">timewarp</property>
  <property name="kdenlive:control_uuid">{28e04d97-ba00-47d8-950d-2a7c06a6a268}</property>
  <property name="vstream">0</property>
  <property name="astream">0</property>
  <property name="set.test_audio">1</property>
  <property name="set.test_image">0</property>
  <property name="kdenlive:id">52</property>
  <property name="warp_pitch">0</property>
  <property name="meta.media.frame_rate_num">30000</property>
  <property name="meta.media.frame_rate_den">1001</property>
  <property name="meta.media.colorspace">709</property>
  <property name="meta.media.color_trc">2</property>
  <property name="meta.media.has_b_frames">2</property>
  <property name="meta.media.width">1920</property>
  <property name="meta.media.height">1080</property>
  <property name="meta.media.aspect_ratio">1</property>
  <property name="meta.media.color_range">mpeg</property>
  <property name="meta.media.top_field_first">0</property>
  <property name="meta.media.progressive">1</property>
 </producer>
 <producer id="producer34" in="00:00:00.000" out="00:00:07.300">
  <property name="length">220</property>
  <property name="eof">pause</property>
  <property name="resource">1.200000:videos/1/mirroring.mp4</property>
  <property name="aspect_ratio">1</property>
  <property name="meta.media.nb_streams">2</property>
  <property name="meta.media.0.stream.type">video</property>
  <property name="meta.media.0.stream.frame_rate">30</property>
  <property name="meta.media.0.stream.sample_aspect_ratio">1</property>
  <property name="meta.media.0.codec.width">1920</property>
  <property name="meta.media.0.codec.height">1080</property>
  <property name="meta.media.0.codec.rotate">0</property>
  <property name="meta.media.0.codec.pix_fmt">yuv420p</property>
  <property name="meta.media.0.codec.sample_aspect_ratio">1</property>
  <property name="meta.media.0.codec.colorspace">709</property>
  <property name="meta.media.0.codec.name">h264</property>
  <property name="meta.media.0.codec.long_name">H.264 / AVC / MPEG-4 AVC / MPEG-4 part 10</property>
  <property name="meta.media.0.codec.bit_rate">14173603</property>
  <property name="meta.attr.0.stream.language.markup">eng</property>
  <property name="meta.attr.0.stream.handler_name.markup">Apple Video Media Handler</property>
  <property name="meta.attr.0.stream.vendor_id.markup">[0][0][0][0]</property>
  <property name="meta.attr.0.stream.timecode.markup">00:00:00:00</property>
  <property name="meta.attr.major_brand.markup">isom</property>
  <property name="meta.attr.minor_version.markup">512</property>
  <property name="meta.attr.compatible_brands.markup">isomiso2avc1mp41</property>
  <property name="meta.attr.encoder.markup">Lavf58.45.100</property>
  <property name="seekable">1</property>
  <property name="meta.media.sample_aspect_num">1</property>
  <property name="meta.media.sample_aspect_den">1</property>
  <property name="format">3</property>
  <property name="audio_index">-1</property>
  <property name="video_index">0</property>
  <property name="warp_speed">1.2</property>
  <property name="warp_resource">videos/1/mirroring.mp4</property>
  <property name="mlt_service">timewarp</property>
  <property name="kdenlive:control_uuid">{99e45cb5-9c05-4560-8b4e-7623771bbd88}</property>
  <property name="vstream">0</property>
  <property name="astream">-1</property>
  <property name="set.test_audio">1</property>
  <property name="set.test_image">0</property>
  <property name="kdenlive:id">59</property>
  <property name="warp_pitch">0</property>
  <property name="meta.media.frame_rate_num">30</property>
  <property name="meta.media.frame_rate_den">1</property>
  <property name="meta.media.colorspace">709</property>
  <property name="meta.media.color_trc">2</property>
  <property name="meta.media.has_b_frames">2</property>
  <property name="meta.media.width">1920</property>
  <property name="meta.media.height">1080</property>
  <property name="meta.media.aspect_ratio">1</property>
  <property name="meta.media.color_range">mpeg</property>
  <property name="meta.media.top_field_first">0</property>
  <property name="meta.media.progressive">1</property>
 </producer>
 <producer id="producer35" in="00:00:00.000" out="00:00:13.900">
  <property name="length">418</property>
  <property name="eof">pause</property>
  <property name="resource">1.200000:videos/1/philosophical.mp4</property>
  <property name="aspect_ratio">1</property>
  <property name="meta.media.nb_streams">2</property>
  <property name="meta.media.0.stream.type">video</property>
  <property name="meta.media.0.stream.frame_rate">24</property>
  <property name="meta.media.0.stream.sample_aspect_ratio">1</property>
  <property name="meta.media.0.codec.width">1920</property>
  <property name="meta.media.0.codec.height">1080</property>
  <property name="meta.media.0.codec.rotate">0</property>
  <property name="meta.media.0.codec.pix_fmt">yuv420p</property>
  <property name="meta.media.0.codec.sample_aspect_ratio">1</property>
  <property name="meta.media.0.codec.colorspace">709</property>
  <property name="meta.media.0.codec.name">h264</property>
  <property name="meta.media.0.codec.long_name">H.264 / AVC / MPEG-4 AVC / MPEG-4 part 10</property>
  <property name="meta.media.0.codec.bit_rate">12011511</property>
  <property name="meta.attr.0.stream.handler_name.markup">Core Media Video</property>
  <property name="meta.attr.0.stream.vendor_id.markup">[0][0][0][0]</property>
  <property name="meta.attr.0.stream.timecode.markup">03:23:15:14</property>
  <property name="meta.attr.major_brand.markup">isom</property>
  <property name="meta.attr.minor_version.markup">512</property>
  <property name="meta.attr.compatible_brands.markup">isomiso2avc1mp41</property>
  <property name="meta.attr.encoder.markup">Lavf58.76.100</property>
  <property name="seekable">1</property>
  <property name="meta.media.sample_aspect_num">1</property>
  <property name="meta.media.sample_aspect_den">1</property>
  <property name="format">3</property>
  <property name="audio_index">-1</property>
  <property name="video_index">0</property>
  <property name="warp_speed">1.2</property>
  <property name="warp_resource">videos/1/philosophical.mp4</property>
  <property name="mlt_service">timewarp</property>
  <property name="kdenlive:control_uuid">{1875ea6e-8841-4f22-aeea-35f38e04913c}</property>
  <property name="vstream">0</property>
  <property name="astream">-1</property>
  <property name="set.test_audio">1</property>
  <property name="set.test_image">0</property>
  <property name="kdenlive:id">53</property>
  <property name="warp_pitch">0</property>
  <property name="meta.media.frame_rate_num">24</property>
  <property name="meta.media.frame_rate_den">1</property>
  <property name="meta.media.colorspace">709</property>
  <property name="meta.media.color_trc">2</property>
  <property name="meta.media.has_b_frames">2</property>
  <property name="meta.media.width">1920</property>
  <property name="meta.media.height">1080</property>
  <property name="meta.media.aspect_ratio">1</property>
  <property name="meta.media.color_range">mpeg</property>
  <property name="meta.media.top_field_first">0</property>
  <property name="meta.media.progressive">1</property>
 </producer>
 <producer id="producer36" in="00:00:00.000" out="00:01:22.767">
  <property name="length">2484</property>
  <property name="eof">pause</property>
  <property name="resource">1.200000:videos/1/science-and-society.mp4</property>
  <property name="aspect_ratio">1</property>
  <property name="meta.media.nb_streams">1</property>
  <property name="meta.media.0.stream.type">video</property>
  <property name="meta.media.0.stream.frame_rate">25</property>
  <property name="meta.media.0.stream.sample_aspect_ratio">0</property>
  <property name="meta.media.0.codec.width">1920</property>
  <property name="meta.media.0.codec.height">1080</property>
  <property name="meta.media.0.codec.rotate">0</property>
  <property name="meta.media.0.codec.pix_fmt">yuv420p</property>
  <property name="meta.media.0.codec.sample_aspect_ratio">0</property>
  <property name="meta.media.0.codec.colorspace">709</property>
  <property name="meta.media.0.codec.color_trc">1</property>
  <property name="meta.media.0.codec.name">h264</property>
  <property name="meta.media.0.codec.long_name">H.264 / AVC / MPEG-4 AVC / MPEG-4 part 10</property>
  <property name="meta.media.0.codec.bit_rate">3538103</property>
  <property name="meta.attr.0.stream.creation_time.markup">2021-06-24T08:22:33.000000Z</property>
  <property name="meta.attr.0.stream.handler_name.markup">L-SMASH Video Handler</property>
  <property name="meta.attr.0.stream.vendor_id.markup">[0][0][0][0]</property>
  <property name="meta.attr.0.stream.encoder.markup">AVC Coding</property>
  <property name="meta.attr.major_brand.markup">mp42</property>
  <property name="meta.attr.minor_version.markup">0</property>
  <property name="meta.attr.compatible_brands.markup">mp42mp41isomavc1</property>
  <property name="meta.attr.creation_time.markup">2021-06-24T08:22:33.000000Z</property>
  <property name="seekable">1</property>
  <property name="meta.media.sample_aspect_num">1</property>
  <property name="meta.media.sample_aspect_den">1</property>
  <property name="format">3</property>
  <property name="audio_index">-1</property>
  <property name="video_index">0</property>
  <property name="warp_speed">1.2</property>
  <property name="warp_resource">videos/1/science-and-society.mp4</property>
  <property name="mlt_service">timewarp</property>
  <property name="kdenlive:control_uuid">{42cfc699-7b48-45f9-ab55-a281f9a68bc3}</property>
  <property name="vstream">0</property>
  <property name="astream">-1</property>
  <property name="set.test_audio">1</property>
  <property name="set.test_image">0</property>
  <property name="kdenlive:id">60</property>
  <property name="warp_pitch">0</property>
  <property name="meta.media.frame_rate_num">25</property>
  <property name="meta.media.frame_rate_den">1</property>
  <property name="meta.media.colorspace">709</property>
  <property name="meta.media.color_trc">1</property>
  <property name="meta.media.has_b_frames">2</property>
  <property name="meta.media.width">1920</property>
  <property name="meta.media.height">1080</property>
  <property name="meta.media.aspect_ratio">1</property>
  <property name="meta.media.color_range">mpeg</property>
  <property name="meta.media.top_field_first">0</property>
  <property name="meta.media.progressive">1</property>
 </producer>
 <producer id="producer37" in="00:00:00.000" out="00:00:05.300">
  <property name="length">160</property>
  <property name="eof">pause</property>
  <property name="resource">1.500000:first-7-videos/2 PHILOSOPHY: “Popper &amp; Kuhn”.mp4</property>
  <property name="aspect_ratio">1</property>
  <property name="meta.media.nb_streams">2</property>
  <property name="meta.media.0.stream.type">video</property>
  <property name="meta.media.0.stream.frame_rate">24</property>
  <property name="meta.media.0.stream.sample_aspect_ratio">0</property>
  <property name="meta.media.0.codec.width">1280</property>
  <property name="meta.media.0.codec.height">720</property>
  <property name="meta.media.0.codec.rotate">0</property>
  <property name="meta.media.0.codec.pix_fmt">yuv420p</property>
  <property name="meta.media.0.codec.sample_aspect_ratio">0</property>
  <property name="meta.media.0.codec.colorspace">709</property>
  <property name="meta.media.0.codec.name">h264</property>
  <property name="meta.media.0.codec.long_name">H.264 / AVC / MPEG-4 AVC / MPEG-4 part 10</property>
  <property name="meta.media.0.codec.bit_rate">4602478</property>
  <property name="meta.attr.0.stream.handler_name.markup">VideoHandler</property>
  <property name="meta.attr.0.stream.vendor_id.markup">[0][0][0][0]</property>
  <property name="meta.media.1.stream.type">audio</property>
  <property name="meta.media.1.codec.sample_fmt">fltp</property>
  <property name="meta.media.1.codec.sample_rate">48000</property>
  <property name="meta.media.1.codec.channels">2</property>
  <property name="meta.media.1.codec.layout">stereo</property>
  <property name="meta.media.1.codec.name">aac</property>
  <property name="meta.media.1.codec.long_name">AAC (Advanced Audio Coding)</property>
  <property name="meta.media.1.codec.bit_rate">139966</property>
  <property name="meta.attr.1.stream.handler_name.markup">SoundHandler</property>
  <property name="meta.attr.1.stream.vendor_id.markup">[0][0][0][0]</property>
  <property name="meta.attr.major_brand.markup">isom</property>
  <property name="meta.attr.minor_version.markup">512</property>
  <property name="meta.attr.compatible_brands.markup">isomiso2avc1mp41</property>
  <property name="meta.attr.encoder.markup">Google</property>
  <property name="seekable">1</property>
  <property name="meta.media.sample_aspect_num">1</property>
  <property name="meta.media.sample_aspect_den">1</property>
  <property name="format">3</property>
  <property name="audio_index">1</property>
  <property name="video_index">0</property>
  <property name="warp_speed">1.5</property>
  <property name="warp_resource">first-7-videos/2 PHILOSOPHY: “Popper &amp; Kuhn”.mp4</property>
  <property name="mlt_service">timewarp</property>
  <property name="kdenlive:control_uuid">{df78ef6d-9390-4a00-b909-deefd58ee056}</property>
  <property name="vstream">0</property>
  <property name="astream">0</property>
  <property name="set.test_audio">1</property>
  <property name="set.test_image">0</property>
  <property name="kdenlive:id">8</property>
  <property name="warp_pitch">0</property>
  <property name="meta.media.frame_rate_num">24</property>
  <property name="meta.media.frame_rate_den">1</property>
  <property name="meta.media.colorspace">709</property>
  <property name="meta.media.color_trc">2</property>
  <property name="meta.media.has_b_frames">2</property>
  <property name="meta.media.width">1280</property>
  <property name="meta.media.height">720</property>
  <property name="meta.media.aspect_ratio">1</property>
  <property name="meta.media.color_range">mpeg</property>
  <property name="meta.media.top_field_first">0</property>
  <property name="meta.media.progressive">1</property>
 </producer>
 <chain id="chain14" out="00:00:48.367">
  <property name="length">1452</property>
  <property name="eof">pause</property>
  <property name="resource">videos/2/2.mp4</property>
  <property name="mlt_service">avformat-novalidate</property>
  <property name="seekable">1</property>
  <property name="format">3</property>
  <property name="audio_index">1</property>
  <property name="video_index">0</property>
  <property name="vstream">0</property>
  <property name="astream">0</property>
  <property name="kdenlive:folderid">61</property>
  <property name="kdenlive:id">62</property>
  <property name="kdenlive:control_uuid">{45e6b4dd-b807-4544-842f-0bd484f82319}</property>
  <property name="mute_on_pause">0</property>
  <property name="kdenlive:clip_type">0</property>
  <property name="kdenlive:file_size">90375834</property>
  <property name="kdenlive:file_hash">6b0f90250bc91a4af9c4c2a493f5495d</property>
  <property name="kdenlive:kextractor">1</property>
  <property name="kdenlive:meta.extractor.Bitrate:">14943 kb/s</property>
  <property name="meta.media.nb_streams">3</property>
  <property name="meta.media.0.stream.type">video</property>
  <property name="meta.media.0.stream.frame_rate">30</property>
  <property name="meta.media.0.stream.sample_aspect_ratio">1</property>
  <property name="meta.media.0.codec.width">3840</property>
  <property name="meta.media.0.codec.height">2160</property>
  <property name="meta.media.0.codec.rotate">0</property>
  <property name="meta.media.0.codec.pix_fmt">yuv420p</property>
  <property name="meta.media.0.codec.sample_aspect_ratio">0</property>
  <property name="meta.media.0.codec.colorspace">709</property>
  <property name="meta.media.0.codec.color_trc">1</property>
  <property name="meta.media.0.codec.name">h264</property>
  <property name="meta.media.0.codec.long_name">H.264 / AVC / MPEG-4 AVC / MPEG-4 part 10</property>
  <property name="meta.media.0.codec.bit_rate">14623915</property>
  <property name="meta.attr.0.stream.creation_time.markup">2026-02-12T10:48:13.000000Z</property>
  <property name="meta.attr.0.stream.handler_name.markup">VideoHandler</property>
  <property name="meta.attr.0.stream.vendor_id.markup">[0][0][0][0]</property>
  <property name="meta.attr.0.stream.encoder.markup">H.264</property>
  <property name="meta.attr.0.stream.timecode.markup">01:00:00:00</property>
  <property name="meta.media.1.stream.type">audio</property>
  <property name="meta.media.1.codec.sample_fmt">fltp</property>
  <property name="meta.media.1.codec.sample_rate">48000</property>
  <property name="meta.media.1.codec.channels">2</property>
  <property name="meta.media.1.codec.layout">stereo</property>
  <property name="meta.media.1.codec.name">aac</property>
  <property name="meta.media.1.codec.long_name">AAC (Advanced Audio Coding)</property>
  <property name="meta.media.1.codec.bit_rate">320000</property>
  <property name="meta.attr.1.stream.creation_time.markup">2026-02-12T10:48:13.000000Z</property>
  <property name="meta.attr.1.stream.handler_name.markup">SoundHandler</property>
  <property name="meta.attr.1.stream.vendor_id.markup">[0][0][0][0]</property>
  <property name="meta.attr.major_brand.markup">isom</property>
  <property name="meta.attr.minor_version.markup">512</property>
  <property name="meta.attr.compatible_brands.markup">isomiso2avc1mp41</property>
  <property name="meta.attr.creation_time.markup">2026-02-12T10:48:13.000000Z</property>
  <property name="meta.attr.encoder.markup">Blackmagic Design DaVinci Resolve</property>
  <property name="meta.media.sample_aspect_num">1</property>
  <property name="meta.media.sample_aspect_den">1</property>
  <property name="meta.media.frame_rate_num">30</property>
  <property name="meta.media.frame_rate_den">1</property>
  <property name="meta.media.colorspace">709</property>
  <property name="meta.media.color_trc">1</property>
  <property name="meta.media.has_b_frames">1</property>
  <property name="meta.media.width">3840</property>
  <property name="meta.media.height">2160</property>
  <property name="meta.media.aspect_ratio">1</property>
  <property name="meta.media.color_range">mpeg</property>
  <property name="xml">was here</property>
  <property name="meta.media.top_field_first">0</property>
  <property name="meta.media.progressive">1</property>
  <property name="set.test_audio">1</property>
  <property name="set.test_image">0</property>
 </chain>
 <producer id="producer38" in="00:00:00.000" out="00:00:06.133">
  <property name="length">185</property>
  <property name="eof">pause</property>
  <property name="resource">1.300000:first-7-videos/3 NEURAL NETWORK: “What AI Models Are".mp4</property>
  <property name="aspect_ratio">1</property>
  <property name="meta.media.nb_streams">2</property>
  <property name="meta.media.0.stream.type">video</property>
  <property name="meta.media.0.stream.frame_rate">24</property>
  <property name="meta.media.0.stream.sample_aspect_ratio">0</property>
  <property name="meta.media.0.codec.width">1280</property>
  <property name="meta.media.0.codec.height">720</property>
  <property name="meta.media.0.codec.rotate">0</property>
  <property name="meta.media.0.codec.pix_fmt">yuv420p</property>
  <property name="meta.media.0.codec.sample_aspect_ratio">0</property>
  <property name="meta.media.0.codec.colorspace">709</property>
  <property name="meta.media.0.codec.name">h264</property>
  <property name="meta.media.0.codec.long_name">H.264 / AVC / MPEG-4 AVC / MPEG-4 part 10</property>
  <property name="meta.media.0.codec.bit_rate">17046226</property>
  <property name="meta.attr.0.stream.handler_name.markup">VideoHandler</property>
  <property name="meta.attr.0.stream.vendor_id.markup">[0][0][0][0]</property>
  <property name="meta.media.1.stream.type">audio</property>
  <property name="meta.media.1.codec.sample_fmt">fltp</property>
  <property name="meta.media.1.codec.sample_rate">48000</property>
  <property name="meta.media.1.codec.channels">2</property>
  <property name="meta.media.1.codec.layout">stereo</property>
  <property name="meta.media.1.codec.name">aac</property>
  <property name="meta.media.1.codec.long_name">AAC (Advanced Audio Coding)</property>
  <property name="meta.media.1.codec.bit_rate">140057</property>
  <property name="meta.attr.1.stream.handler_name.markup">SoundHandler</property>
  <property name="meta.attr.1.stream.vendor_id.markup">[0][0][0][0]</property>
  <property name="meta.attr.major_brand.markup">isom</property>
  <property name="meta.attr.minor_version.markup">512</property>
  <property name="meta.attr.compatible_brands.markup">isomiso2avc1mp41</property>
  <property name="meta.attr.encoder.markup">Google</property>
  <property name="seekable">1</property>
  <property name="meta.media.sample_aspect_num">1</property>
  <property name="meta.media.sample_aspect_den">1</property>
  <property name="format">3</property>
  <property name="audio_index">1</property>
  <property name="video_index">0</property>
  <property name="warp_speed">1.3</property>
  <property name="warp_resource">first-7-videos/3 NEURAL NETWORK: “What AI Models Are".mp4</property>
  <property name="mlt_service">timewarp</property>
  <property name="kdenlive:control_uuid">{59ee7135-b26d-4334-a14f-3e90a817a80b}</property>
  <property name="vstream">0</property>
  <property name="astream">0</property>
  <property name="set.test_audio">1</property>
  <property name="set.test_image">0</property>
  <property name="kdenlive:id">9</property>
  <property name="warp_pitch">0</property>
  <property name="meta.media.frame_rate_num">24</property>
  <property name="meta.media.frame_rate_den">1</property>
  <property name="meta.media.colorspace">709</property>
  <property name="meta.media.color_trc">2</property>
  <property name="meta.media.has_b_frames">2</property>
  <property name="meta.media.width">1280</property>
  <property name="meta.media.height">720</property>
  <property name="meta.media.aspect_ratio">1</property>
  <property name="meta.media.color_range">mpeg</property>
  <property name="meta.media.top_field_first">0</property>
  <property name="meta.media.progressive">1</property>
 </producer>
 <producer id="producer39" in="00:00:00.000" out="00:00:05.300">
  <property name="length">160</property>
  <property name="eof">pause</property>
  <property name="resource">1.500000:first-7-videos/4 AI IN SCIENCE: “The Laboratory”.mp4</property>
  <property name="aspect_ratio">1</property>
  <property name="meta.media.nb_streams">2</property>
  <property name="meta.media.0.stream.type">video</property>
  <property name="meta.media.0.stream.frame_rate">24</property>
  <property name="meta.media.0.stream.sample_aspect_ratio">0</property>
  <property name="meta.media.0.codec.width">1280</property>
  <property name="meta.media.0.codec.height">720</property>
  <property name="meta.media.0.codec.rotate">0</property>
  <property name="meta.media.0.codec.pix_fmt">yuv420p</property>
  <property name="meta.media.0.codec.sample_aspect_ratio">0</property>
  <property name="meta.media.0.codec.colorspace">709</property>
  <property name="meta.media.0.codec.name">h264</property>
  <property name="meta.media.0.codec.long_name">H.264 / AVC / MPEG-4 AVC / MPEG-4 part 10</property>
  <property name="meta.media.0.codec.bit_rate">2789283</property>
  <property name="meta.attr.0.stream.handler_name.markup">VideoHandler</property>
  <property name="meta.attr.0.stream.vendor_id.markup">[0][0][0][0]</property>
  <property name="meta.media.1.stream.type">audio</property>
  <property name="meta.media.1.codec.sample_fmt">fltp</property>
  <property name="meta.media.1.codec.sample_rate">48000</property>
  <property name="meta.media.1.codec.channels">2</property>
  <property name="meta.media.1.codec.layout">stereo</property>
  <property name="meta.media.1.codec.name">aac</property>
  <property name="meta.media.1.codec.long_name">AAC (Advanced Audio Coding)</property>
  <property name="meta.media.1.codec.bit_rate">140148</property>
  <property name="meta.attr.1.stream.handler_name.markup">SoundHandler</property>
  <property name="meta.attr.1.stream.vendor_id.markup">[0][0][0][0]</property>
  <property name="meta.attr.major_brand.markup">isom</property>
  <property name="meta.attr.minor_version.markup">512</property>
  <property name="meta.attr.compatible_brands.markup">isomiso2avc1mp41</property>
  <property name="meta.attr.encoder.markup">Google</property>
  <property name="seekable">1</property>
  <property name="meta.media.sample_aspect_num">1</property>
  <property name="meta.media.sample_aspect_den">1</property>
  <property name="format">3</property>
  <property name="audio_index">1</property>
  <property name="video_index">0</property>
  <property name="warp_speed">1.5</property>
  <property name="warp_resource">first-7-videos/4 AI IN SCIENCE: “The Laboratory”.mp4</property>
  <property name="mlt_service">timewarp</property>
  <property name="kdenlive:control_uuid">{81d59288-fce8-4b3d-9035-3e10d53398a7}</property>
  <property name="vstream">0</property>
  <property name="astream">0</property>
  <property name="set.test_audio">1</property>
  <property name="set.test_image">0</property>
  <property name="kdenlive:id">10</property>
  <property name="warp_pitch">0</property>
  <property name="meta.media.frame_rate_num">24</property>
  <property name="meta.media.frame_rate_den">1</property>
  <property name="meta.media.colorspace">709</property>
  <property name="meta.media.color_trc">2</property>
  <property name="meta.media.has_b_frames">2</property>
  <property name="meta.media.width">1280</property>
  <property name="meta.media.height">720</property>
  <property name="meta.media.aspect_ratio">1</property>
  <property name="meta.media.color_range">mpeg</property>
  <property name="meta.media.top_field_first">0</property>
  <property name="meta.media.progressive">1</property>
 </producer>
 <chain id="chain16" out="00:00:41.967">
  <property name="length">1260</property>
  <property name="eof">pause</property>
  <property name="resource">videos/4/4.mp4</property>
  <property name="mlt_service">avformat-novalidate</property>
  <property name="seekable">1</property>
  <property name="format">3</property>
  <property name="audio_index">1</property>
  <property name="video_index">0</property>
  <property name="vstream">0</property>
  <property name="astream">0</property>
  <property name="kdenlive:folderid">66</property>
  <property name="kdenlive:id">68</property>
  <property name="kdenlive:control_uuid">{3e97ab2a-86e8-41d6-8848-09ae0058fc55}</property>
  <property name="mute_on_pause">0</property>
  <property name="kdenlive:clip_type">0</property>
  <property name="kdenlive:file_size">75752458</property>
  <property name="kdenlive:file_hash">00d91561552a606f79b48a741f8f7c1a</property>
  <property name="kdenlive:kextractor">1</property>
  <property name="kdenlive:meta.extractor.Bitrate:">14427 kb/s</property>
  <property name="kdenlive:monitorPosition">0</property>
  <property name="meta.media.nb_streams">3</property>
  <property name="meta.media.0.stream.type">video</property>
  <property name="meta.media.0.stream.frame_rate">25</property>
  <property name="meta.media.0.stream.sample_aspect_ratio">1</property>
  <property name="meta.media.0.codec.width">3840</property>
  <property name="meta.media.0.codec.height">2160</property>
  <property name="meta.media.0.codec.rotate">0</property>
  <property name="meta.media.0.codec.pix_fmt">yuv420p</property>
  <property name="meta.media.0.codec.sample_aspect_ratio">0</property>
  <property name="meta.media.0.codec.colorspace">709</property>
  <property name="meta.media.0.codec.color_trc">1</property>
  <property name="meta.media.0.codec.name">h264</property>
  <property name="meta.media.0.codec.long_name">H.264 / AVC / MPEG-4 AVC / MPEG-4 part 10</property>
  <property name="meta.media.0.codec.bit_rate">14105000</property>
  <property name="meta.attr.0.stream.creation_time.markup">2026-02-12T11:07:12.000000Z</property>
  <property name="meta.attr.0.stream.handler_name.markup">VideoHandler</property>
  <property name="meta.attr.0.stream.vendor_id.markup">[0][0][0][0]</property>
  <property name="meta.attr.0.stream.encoder.markup">H.264</property>
  <property name="meta.attr.0.stream.timecode.markup">01:00:00:00</property>
  <property name="meta.media.1.stream.type">audio</property>
  <property name="meta.media.1.codec.sample_fmt">fltp</property>
  <property name="meta.media.1.codec.sample_rate">48000</property>
  <property name="meta.media.1.codec.channels">2</property>
  <property name="meta.media.1.codec.layout">stereo</property>
  <property name="meta.media.1.codec.name">aac</property>
  <property name="meta.media.1.codec.long_name">AAC (Advanced Audio Coding)</property>
  <property name="meta.media.1.codec.bit_rate">320000</property>
  <property name="meta.attr.1.stream.creation_time.markup">2026-02-12T11:07:12.000000Z</property>
  <property name="meta.attr.1.stream.handler_name.markup">SoundHandler</property>
  <property name="meta.attr.1.stream.vendor_id.markup">[0][0][0][0]</property>
  <property name="meta.attr.major_brand.markup">isom</property>
  <property name="meta.attr.minor_version.markup">512</property>
  <property name="meta.attr.compatible_brands.markup">isomiso2avc1mp41</property>
  <property name="meta.attr.creation_time.markup">2026-02-12T11:07:12.000000Z</property>
  <property name="meta.attr.encoder.markup">Blackmagic Design DaVinci Resolve</property>
  <property name="meta.media.sample_aspect_num">1</property>
  <property name="meta.media.sample_aspect_den">1</property>
  <property name="meta.media.frame_rate_num">25</property>
  <property name="meta.media.frame_rate_den">1</property>
  <property name="meta.media.colorspace">709</property>
  <property name="meta.media.color_trc">1</property>
  <property name="meta.media.has_b_frames">1</property>
  <property name="meta.media.width">3840</property>
  <property name="meta.media.height">2160</property>
  <property name="meta.media.aspect_ratio">1</property>
  <property name="meta.media.color_range">mpeg</property>
  <property name="xml">was here</property>
  <property name="meta.media.top_field_first">0</property>
  <property name="meta.media.progressive">1</property>
  <property name="set.test_audio">1</property>
  <property name="set.test_image">0</property>
 </chain>
 <producer id="producer40" in="00:00:00.000" out="00:00:06.633">
  <property name="length">200</property>
  <property name="eof">pause</property>
  <property name="resource">1.200000:first-7-videos/5 AI AS SIMULATION: “No Consciousness”.mp4</property>
  <property name="aspect_ratio">1</property>
  <property name="meta.media.nb_streams">2</property>
  <property name="meta.media.0.stream.type">video</property>
  <property name="meta.media.0.stream.frame_rate">24</property>
  <property name="meta.media.0.stream.sample_aspect_ratio">0</property>
  <property name="meta.media.0.codec.width">1280</property>
  <property name="meta.media.0.codec.height">720</property>
  <property name="meta.media.0.codec.rotate">0</property>
  <property name="meta.media.0.codec.pix_fmt">yuv420p</property>
  <property name="meta.media.0.codec.sample_aspect_ratio">0</property>
  <property name="meta.media.0.codec.colorspace">709</property>
  <property name="meta.media.0.codec.name">h264</property>
  <property name="meta.media.0.codec.long_name">H.264 / AVC / MPEG-4 AVC / MPEG-4 part 10</property>
  <property name="meta.media.0.codec.bit_rate">5784842</property>
  <property name="meta.attr.0.stream.handler_name.markup">VideoHandler</property>
  <property name="meta.attr.0.stream.vendor_id.markup">[0][0][0][0]</property>
  <property name="meta.media.1.stream.type">audio</property>
  <property name="meta.media.1.codec.sample_fmt">fltp</property>
  <property name="meta.media.1.codec.sample_rate">48000</property>
  <property name="meta.media.1.codec.channels">2</property>
  <property name="meta.media.1.codec.layout">stereo</property>
  <property name="meta.media.1.codec.name">aac</property>
  <property name="meta.media.1.codec.long_name">AAC (Advanced Audio Coding)</property>
  <property name="meta.media.1.codec.bit_rate">140084</property>
  <property name="meta.attr.1.stream.handler_name.markup">SoundHandler</property>
  <property name="meta.attr.1.stream.vendor_id.markup">[0][0][0][0]</property>
  <property name="meta.attr.major_brand.markup">isom</property>
  <property name="meta.attr.minor_version.markup">512</property>
  <property name="meta.attr.compatible_brands.markup">isomiso2avc1mp41</property>
  <property name="meta.attr.encoder.markup">Google</property>
  <property name="seekable">1</property>
  <property name="meta.media.sample_aspect_num">1</property>
  <property name="meta.media.sample_aspect_den">1</property>
  <property name="format">3</property>
  <property name="audio_index">1</property>
  <property name="video_index">0</property>
  <property name="warp_speed">1.2</property>
  <property name="warp_resource">first-7-videos/5 AI AS SIMULATION: “No Consciousness”.mp4</property>
  <property name="mlt_service">timewarp</property>
  <property name="kdenlive:control_uuid">{793ef39f-d6ee-4bd8-9cdc-5e8d15e5b0a3}</property>
  <property name="vstream">0</property>
  <property name="astream">0</property>
  <property name="set.test_audio">1</property>
  <property name="set.test_image">0</property>
  <property name="kdenlive:id">11</property>
  <property name="warp_pitch">0</property>
  <property name="meta.media.frame_rate_num">24</property>
  <property name="meta.media.frame_rate_den">1</property>
  <property name="meta.media.colorspace">709</property>
  <property name="meta.media.color_trc">2</property>
  <property name="meta.media.has_b_frames">2</property>
  <property name="meta.media.width">1280</property>
  <property name="meta.media.height">720</property>
  <property name="meta.media.aspect_ratio">1</property>
  <property name="meta.media.color_range">mpeg</property>
  <property name="meta.media.top_field_first">0</property>
  <property name="meta.media.progressive">1</property>
 </producer>
 <producer id="producer41" in="00:00:00.000" out="00:00:06.133">
  <property name="length">185</property>
  <property name="eof">pause</property>
  <property name="resource">1.300000:first-7-videos/6 HUMAN + AI: “The Partnership”.mp4</property>
  <property name="aspect_ratio">1</property>
  <property name="meta.media.nb_streams">2</property>
  <property name="meta.media.0.stream.type">video</property>
  <property name="meta.media.0.stream.frame_rate">24</property>
  <property name="meta.media.0.stream.sample_aspect_ratio">0</property>
  <property name="meta.media.0.codec.width">1280</property>
  <property name="meta.media.0.codec.height">720</property>
  <property name="meta.media.0.codec.rotate">0</property>
  <property name="meta.media.0.codec.pix_fmt">yuv420p</property>
  <property name="meta.media.0.codec.sample_aspect_ratio">0</property>
  <property name="meta.media.0.codec.colorspace">709</property>
  <property name="meta.media.0.codec.name">h264</property>
  <property name="meta.media.0.codec.long_name">H.264 / AVC / MPEG-4 AVC / MPEG-4 part 10</property>
  <property name="meta.media.0.codec.bit_rate">3791068</property>
  <property name="meta.attr.0.stream.handler_name.markup">VideoHandler</property>
  <property name="meta.attr.0.stream.vendor_id.markup">[0][0][0][0]</property>
  <property name="meta.media.1.stream.type">audio</property>
  <property name="meta.media.1.codec.sample_fmt">fltp</property>
  <property name="meta.media.1.codec.sample_rate">48000</property>
  <property name="meta.media.1.codec.channels">2</property>
  <property name="meta.media.1.codec.layout">stereo</property>
  <property name="meta.media.1.codec.name">aac</property>
  <property name="meta.media.1.codec.long_name">AAC (Advanced Audio Coding)</property>
  <property name="meta.media.1.codec.bit_rate">139994</property>
  <property name="meta.attr.1.stream.handler_name.markup">SoundHandler</property>
  <property name="meta.attr.1.stream.vendor_id.markup">[0][0][0][0]</property>
  <property name="meta.attr.major_brand.markup">isom</property>
  <property name="meta.attr.minor_version.markup">512</property>
  <property name="meta.attr.compatible_brands.markup">isomiso2avc1mp41</property>
  <property name="meta.attr.encoder.markup">Google</property>
  <property name="seekable">1</property>
  <property name="meta.media.sample_aspect_num">1</property>
  <property name="meta.media.sample_aspect_den">1</property>
  <property name="format">3</property>
  <property name="audio_index">1</property>
  <property name="video_index">0</property>
  <property name="warp_speed">1.3</property>
  <property name="warp_resource">first-7-videos/6 HUMAN + AI: “The Partnership”.mp4</property>
  <property name="mlt_service">timewarp</property>
  <property name="kdenlive:control_uuid">{3f53cd60-3ed9-48f8-b9a3-1fcb78a579fc}</property>
  <property name="vstream">0</property>
  <property name="astream">0</property>
  <property name="set.test_audio">1</property>
  <property name="set.test_image">0</property>
  <property name="kdenlive:id">12</property>
  <property name="warp_pitch">0</property>
  <property name="meta.media.frame_rate_num">24</property>
  <property name="meta.media.frame_rate_den">1</property>
  <property name="meta.media.colorspace">709</property>
  <property name="meta.media.color_trc">2</property>
  <property name="meta.media.has_b_frames">2</property>
  <property name="meta.media.width">1280</property>
  <property name="meta.media.height">720</property>
  <property name="meta.media.aspect_ratio">1</property>
  <property name="meta.media.color_range">mpeg</property>
  <property name="meta.media.top_field_first">0</property>
  <property name="meta.media.progressive">1</property>
 </producer>
 <chain id="chain17" out="00:00:40.300">
  <property name="length">1210</property>
  <property name="eof">pause</property>
  <property name="resource">videos/6/6.mp4</property>
  <property name="mlt_service">avformat-novalidate</property>
  <property name="seekable">1</property>
  <property name="format">3</property>
  <property name="audio_index">1</property>
  <property name="video_index">0</property>
  <property name="vstream">0</property>
  <property name="astream">0</property>
  <property name="kdenlive:folderid">67</property>
  <property name="kdenlive:id">69</property>
  <property name="kdenlive:control_uuid">{9cf69388-b4a9-43fb-8fe3-9a378b7794d4}</property>
  <property name="mute_on_pause">0</property>
  <property name="kdenlive:clip_type">0</property>
  <property name="kdenlive:file_size">78014330</property>
  <property name="kdenlive:file_hash">f87af01fecc2881f7144a39f7790926f</property>
  <property name="kdenlive:kextractor">1</property>
  <property name="kdenlive:meta.extractor.Bitrate:">15470 kb/s</property>
  <property name="kdenlive:monitorPosition">0</property>
  <property name="meta.media.nb_streams">3</property>
  <property name="meta.media.0.stream.type">video</property>
  <property name="meta.media.0.stream.frame_rate">30</property>
  <property name="meta.media.0.stream.sample_aspect_ratio">1</property>
  <property name="meta.media.0.codec.width">3840</property>
  <property name="meta.media.0.codec.height">2160</property>
  <property name="meta.media.0.codec.rotate">0</property>
  <property name="meta.media.0.codec.pix_fmt">yuv420p</property>
  <property name="meta.media.0.codec.sample_aspect_ratio">0</property>
  <property name="meta.media.0.codec.colorspace">709</property>
  <property name="meta.media.0.codec.color_trc">1</property>
  <property name="meta.media.0.codec.name">h264</property>
  <property name="meta.media.0.codec.long_name">H.264 / AVC / MPEG-4 AVC / MPEG-4 part 10</property>
  <property name="meta.media.0.codec.bit_rate">15149363</property>
  <property name="meta.attr.0.stream.creation_time.markup">2026-02-12T11:29:02.000000Z</property>
  <property name="meta.attr.0.stream.handler_name.markup">VideoHandler</property>
  <property name="meta.attr.0.stream.vendor_id.markup">[0][0][0][0]</property>
  <property name="meta.attr.0.stream.encoder.markup">H.264</property>
  <property name="meta.attr.0.stream.timecode.markup">01:00:00:00</property>
  <property name="meta.media.1.stream.type">audio</property>
  <property name="meta.media.1.codec.sample_fmt">fltp</property>
  <property name="meta.media.1.codec.sample_rate">48000</property>
  <property name="meta.media.1.codec.channels">2</property>
  <property name="meta.media.1.codec.layout">stereo</property>
  <property name="meta.media.1.codec.name">aac</property>
  <property name="meta.media.1.codec.long_name">AAC (Advanced Audio Coding)</property>
  <property name="meta.media.1.codec.bit_rate">320000</property>
  <property name="meta.attr.1.stream.creation_time.markup">2026-02-12T11:29:02.000000Z</property>
  <property name="meta.attr.1.stream.handler_name.markup">SoundHandler</property>
  <property name="meta.attr.1.stream.vendor_id.markup">[0][0][0][0]</property>
  <property name="meta.attr.major_brand.markup">isom</property>
  <property name="meta.attr.minor_version.markup">512</property>
  <property name="meta.attr.compatible_brands.markup">isomiso2avc1mp41</property>
  <property name="meta.attr.creation_time.markup">2026-02-12T11:29:02.000000Z</property>
  <property name="meta.attr.encoder.markup">Blackmagic Design DaVinci Resolve</property>
  <property name="meta.media.sample_aspect_num">1</property>
  <property name="meta.media.sample_aspect_den">1</property>
  <property name="meta.media.frame_rate_num">30</property>
  <property name="meta.media.frame_rate_den">1</property>
  <property name="meta.media.colorspace">709</property>
  <property name="meta.media.color_trc">1</property>
  <property name="meta.media.has_b_frames">1</property>
  <property name="meta.media.width">3840</property>
  <property name="meta.media.height">2160</property>
  <property name="meta.media.aspect_ratio">1</property>
  <property name="meta.media.color_range">mpeg</property>
  <property name="xml">was here</property>
  <property name="meta.media.top_field_first">0</property>
  <property name="meta.media.progressive">1</property>
  <property name="set.test_audio">1</property>
  <property name="set.test_image">0</property>
 </chain>
 <producer id="producer42" in="00:00:00.000" out="00:00:50.400">
  <property name="length">1513</property>
  <property name="eof">pause</property>
  <property name="resource">0.800000:videos/6/6.mp4</property>
  <property name="aspect_ratio">1</property>
  <property name="meta.media.nb_streams">3</property>
  <property name="meta.media.0.stream.type">video</property>
  <property name="meta.media.0.stream.frame_rate">30</property>
  <property name="meta.media.0.stream.sample_aspect_ratio">1</property>
  <property name="meta.media.0.codec.width">3840</property>
  <property name="meta.media.0.codec.height">2160</property>
  <property name="meta.media.0.codec.rotate">0</property>
  <property name="meta.media.0.codec.pix_fmt">yuv420p</property>
  <property name="meta.media.0.codec.sample_aspect_ratio">0</property>
  <property name="meta.media.0.codec.colorspace">709</property>
  <property name="meta.media.0.codec.color_trc">1</property>
  <property name="meta.media.0.codec.name">h264</property>
  <property name="meta.media.0.codec.long_name">H.264 / AVC / MPEG-4 AVC / MPEG-4 part 10</property>
  <property name="meta.media.0.codec.bit_rate">15149363</property>
  <property name="meta.attr.0.stream.creation_time.markup">2026-02-12T11:29:02.000000Z</property>
  <property name="meta.attr.0.stream.handler_name.markup">VideoHandler</property>
  <property name="meta.attr.0.stream.vendor_id.markup">[0][0][0][0]</property>
  <property name="meta.attr.0.stream.encoder.markup">H.264</property>
  <property name="meta.attr.0.stream.timecode.markup">01:00:00:00</property>
  <property name="meta.media.1.stream.type">audio</property>
  <property name="meta.media.1.codec.sample_fmt">fltp</property>
  <property name="meta.media.1.codec.sample_rate">48000</property>
  <property name="meta.media.1.codec.channels">2</property>
  <property name="meta.media.1.codec.layout">stereo</property>
  <property name="meta.media.1.codec.name">aac</property>
  <property name="meta.media.1.codec.long_name">AAC (Advanced Audio Coding)</property>
  <property name="meta.media.1.codec.bit_rate">320000</property>
  <property name="meta.attr.1.stream.creation_time.markup">2026-02-12T11:29:02.000000Z</property>
  <property name="meta.attr.1.stream.handler_name.markup">SoundHandler</property>
  <property name="meta.attr.1.stream.vendor_id.markup">[0][0][0][0]</property>
  <property name="meta.attr.major_brand.markup">isom</property>
  <property name="meta.attr.minor_version.markup">512</property>
  <property name="meta.attr.compatible_brands.markup">isomiso2avc1mp41</property>
  <property name="meta.attr.creation_time.markup">2026-02-12T11:29:02.000000Z</property>
  <property name="meta.attr.encoder.markup">Blackmagic Design DaVinci Resolve</property>
  <property name="seekable">1</property>
  <property name="meta.media.sample_aspect_num">1</property>
  <property name="meta.media.sample_aspect_den">1</property>
  <property name="format">3</property>
  <property name="audio_index">1</property>
  <property name="video_index">0</property>
  <property name="warp_speed">0.8</property>
  <property name="warp_resource">videos/6/6.mp4</property>
  <property name="mlt_service">timewarp</property>
  <property name="kdenlive:control_uuid">{9cf69388-b4a9-43fb-8fe3-9a378b7794d4}</property>
  <property name="vstream">0</property>
  <property name="astream">0</property>
  <property name="set.test_audio">1</property>
  <property name="set.test_image">0</property>
  <property name="kdenlive:id">69</property>
  <property name="warp_pitch">0</property>
  <property name="meta.media.frame_rate_num">30</property>
  <property name="meta.media.frame_rate_den">1</property>
  <property name="meta.media.colorspace">709</property>
  <property name="meta.media.color_trc">1</property>
  <property name="meta.media.has_b_frames">1</property>
  <property name="meta.media.width">3840</property>
  <property name="meta.media.height">2160</property>
  <property name="meta.media.aspect_ratio">1</property>
  <property name="meta.media.color_range">mpeg</property>
  <property name="meta.media.top_field_first">0</property>
  <property name="meta.media.progressive">1</property>
 </producer>
 <producer id="producer43" in="00:00:00.000" out="00:00:06.133">
  <property name="length">185</property>
  <property name="eof">pause</property>
  <property name="resource">1.300000:first-7-videos/7 CONCLUSION: “Future Smart City".mp4</property>
  <property name="aspect_ratio">1</property>
  <property name="meta.media.nb_streams">2</property>
  <property name="meta.media.0.stream.type">video</property>
  <property name="meta.media.0.stream.frame_rate">24</property>
  <property name="meta.media.0.stream.sample_aspect_ratio">0</property>
  <property name="meta.media.0.codec.width">1280</property>
  <property name="meta.media.0.codec.height">720</property>
  <property name="meta.media.0.codec.rotate">0</property>
  <property name="meta.media.0.codec.pix_fmt">yuv420p</property>
  <property name="meta.media.0.codec.sample_aspect_ratio">0</property>
  <property name="meta.media.0.codec.colorspace">709</property>
  <property name="meta.media.0.codec.name">h264</property>
  <property name="meta.media.0.codec.long_name">H.264 / AVC / MPEG-4 AVC / MPEG-4 part 10</property>
  <property name="meta.media.0.codec.bit_rate">6635533</property>
  <property name="meta.attr.0.stream.handler_name.markup">VideoHandler</property>
  <property name="meta.attr.0.stream.vendor_id.markup">[0][0][0][0]</property>
  <property name="meta.media.1.stream.type">audio</property>
  <property name="meta.media.1.codec.sample_fmt">fltp</property>
  <property name="meta.media.1.codec.sample_rate">48000</property>
  <property name="meta.media.1.codec.channels">2</property>
  <property name="meta.media.1.codec.layout">stereo</property>
  <property name="meta.media.1.codec.name">aac</property>
  <property name="meta.media.1.codec.long_name">AAC (Advanced Audio Coding)</property>
  <property name="meta.media.1.codec.bit_rate">140005</property>
  <property name="meta.attr.1.stream.handler_name.markup">SoundHandler</property>
  <property name="meta.attr.1.stream.vendor_id.markup">[0][0][0][0]</property>
  <property name="meta.attr.major_brand.markup">isom</property>
  <property name="meta.attr.minor_version.markup">512</property>
  <property name="meta.attr.compatible_brands.markup">isomiso2avc1mp41</property>
  <property name="meta.attr.encoder.markup">Google</property>
  <property name="seekable">1</property>
  <property name="meta.media.sample_aspect_num">1</property>
  <property name="meta.media.sample_aspect_den">1</property>
  <property name="format">3</property>
  <property name="audio_index">1</property>
  <property name="video_index">0</property>
  <property name="warp_speed">1.3</property>
  <property name="warp_resource">first-7-videos/7 CONCLUSION: “Future Smart City".mp4</property>
  <property name="mlt_service">timewarp</property>
  <property name="kdenlive:control_uuid">{9bef7225-46e3-4cb1-bf03-b5c43671c043}</property>
  <property name="vstream">0</property>
  <property name="astream">0</property>
  <property name="set.test_audio">1</property>
  <property name="set.test_image">0</property>
  <property name="kdenlive:id">13</property>
  <property name="warp_pitch">0</property>
  <property name="meta.media.frame_rate_num">24</property>
  <property name="meta.media.frame_rate_den">1</property>
  <property name="meta.media.colorspace">709</property>
  <property name="meta.media.color_trc">2</property>
  <property name="meta.media.has_b_frames">2</property>
  <property name="meta.media.width">1280</property>
  <property name="meta.media.height">720</property>
  <property name="meta.media.aspect_ratio">1</property>
  <property name="meta.media.color_range">mpeg</property>
  <property name="meta.media.top_field_first">0</property>
  <property name="meta.media.progressive">1</property>
 </producer>
 <playlist id="playlist10">
  <entry in="00:00:00.000" out="00:00:06.633" producer="producer24">
   <property name="kdenlive:id">7</property>
   <filter id="filter31" in="00:00:05.500" out="00:00:06.633">
    <property name="start">1</property>
    <property name="level">1</property>
    <property name="mlt_service">brightness</property>
    <property name="kdenlive_id">fade_to_black</property>
    <property name="alpha">00:00:00.000=1;00:00:01.133=0</property>
    <property name="kdenlive:collapsed">0</property>
   </filter>
   <filter id="filter32" out="00:00:00.767">
    <property name="start">1</property>
    <property name="level">1</property>
    <property name="mlt_service">brightness</property>
    <property name="kdenlive_id">fade_from_black</property>
    <property name="alpha">00:00:00.000=0;00:00:00.767=1</property>
    <property name="kdenlive:collapsed">0</property>
   </filter>
  </entry>
  <entry in="00:00:00.000" out="00:00:03.333" producer="producer25">
   <property name="kdenlive:id">46</property>
  </entry>
  <entry in="00:00:04.267" out="00:00:05.900" producer="producer26">
   <property name="kdenlive:id">45</property>
  </entry>
  <entry in="00:00:00.000" out="00:00:01.000" producer="producer27">
   <property name="kdenlive:id">43</property>
  </entry>
  <entry in="00:00:00.267" out="00:00:01.633" producer="producer28">
   <property name="kdenlive:id">44</property>
  </entry>
  <entry in="00:00:00.000" out="00:00:01.967" producer="producer29">
   <property name="kdenlive:id">47</property>
   <property name="kdenlive:activeeffect">-1</property>
  </entry>
  <entry in="00:00:03.800" out="00:00:06.333" producer="producer30">
   <property name="kdenlive:id">48</property>
  </entry>
  <entry in="00:00:00.000" out="00:00:02.633" producer="producer31">
   <property name="kdenlive:id">55</property>
  </entry>
  <entry in="00:00:00.000" out="00:00:02.933" producer="producer32">
   <property name="kdenlive:id">49</property>
  </entry>
  <entry in="00:00:00.000" out="00:00:05.067" producer="producer33">
   <property name="kdenlive:id">52</property>
  </entry>
  <entry in="00:00:00.000" out="00:00:03.367" producer="producer34">
   <property name="kdenlive:id">59</property>
  </entry>
  <entry in="00:00:05.100" out="00:00:09.800" producer="producer35">
   <property name="kdenlive:id">53</property>
  </entry>
  <entry in="00:00:11.467" out="00:00:15.733" producer="producer36">
   <property name="kdenlive:id">60</property>
   <property name="kdenlive:activeeffect">0</property>
   <filter id="filter30" in="00:00:14.533" out="00:00:15.767">
    <property name="start">1</property>
    <property name="level">1</property>
    <property name="mlt_service">brightness</property>
    <property name="kdenlive_id">fade_to_black</property>
    <property name="alpha">00:00:00.000=1;00:00:01.233=0</property>
    <property name="kdenlive:collapsed">0</property>
   </filter>
  </entry>
  <entry in="00:00:00.000" out="00:00:05.300" producer="producer37">
   <property name="kdenlive:id">8</property>
   <filter id="filter33" in="00:00:03.633" out="00:00:05.300">
    <property name="start">1</property>
    <property name="level">1</property>
    <property name="mlt_service">brightness</property>
    <property name="kdenlive_id">fade_to_black</property>
    <property name="alpha">00:00:00.000=1;00:00:01.667=0</property>
    <property name="kdenlive:collapsed">0</property>
   </filter>
   <filter id="filter34" out="00:00:01.400">
    <property name="start">1</property>
    <property name="level">1</property>
    <property name="mlt_service">brightness</property>
    <property name="kdenlive_id">fade_from_black</property>
    <property name="alpha">00:00:00.000=0;00:00:01.400=1</property>
    <property name="kdenlive:collapsed">0</property>
   </filter>
  </entry>
  <blank length="00:00:00.200"/>
  <entry in="00:00:00.000" out="00:00:48.367" producer="chain14">
   <property name="kdenlive:id">62</property>
   <property name="kdenlive:activeeffect">1</property>
   <filter id="filter35" in="00:00:45.367" out="00:00:48.367">
    <property name="start">1</property>
    <property name="level">1</property>
    <property name="mlt_service">brightness</property>
    <property name="kdenlive_id">fade_to_black</property>
    <property name="alpha">00:00:00.000=1;00:00:03.000=0</property>
    <property name="kdenlive:collapsed">0</property>
   </filter>
   <filter id="filter36" out="00:00:03.000">
    <property name="start">1</property>
    <property name="level">1</property>
    <property name="mlt_service">brightness</property>
    <property name="kdenlive_id">fade_from_black</property>
    <property name="alpha">00:00:00.000=0;00:00:03.000=1</property>
    <property name="kdenlive:collapsed">0</property>
   </filter>
  </entry>
  <blank length="00:00:00.700"/>
  <entry in="00:00:00.000" out="00:00:06.133" producer="producer38">
   <property name="kdenlive:id">9</property>
   <filter id="filter37" out="00:00:01.367">
    <property name="start">1</property>
    <property name="level">1</property>
    <property name="mlt_service">brightness</property>
    <property name="kdenlive_id">fade_from_black</property>
    <property name="alpha">00:00:00.000=0;00:00:01.367=1</property>
    <property name="kdenlive:collapsed">0</property>
   </filter>
   <filter id="filter38" in="00:00:03.667" out="00:00:06.133">
    <property name="start">1</property>
    <property name="level">1</property>
    <property name="mlt_service">brightness</property>
    <property name="kdenlive_id">fade_to_black</property>
    <property name="alpha">00:00:00.000=1;00:00:02.467=0</property>
    <property name="kdenlive:collapsed">0</property>
   </filter>
  </entry>
  <blank length="00:00:41.567"/>
  <entry in="00:00:00.000" out="00:00:04.833" producer="producer39">
   <property name="kdenlive:id">10</property>
   <filter id="filter39" out="00:00:01.133">
    <property name="start">1</property>
    <property name="level">1</property>
    <property name="mlt_service">brightness</property>
    <property name="kdenlive_id">fade_from_black</property>
    <property name="alpha">00:00:00.000=0;00:00:01.133=1</property>
    <property name="kdenlive:collapsed">0</property>
   </filter>
   <filter id="filter40" in="00:00:03.567" out="00:00:04.833">
    <property name="start">1</property>
    <property name="level">1</property>
    <property name="mlt_service">brightness</property>
    <property name="kdenlive_id">fade_to_black</property>
    <property name="alpha">00:00:00.000=1;00:00:01.267=0</property>
    <property name="kdenlive:collapsed">0</property>
   </filter>
  </entry>
  <blank length="00:00:00.233"/>
  <entry in="00:00:00.000" out="00:00:41.967" producer="chain16">
   <property name="kdenlive:id">68</property>
   <property name="kdenlive:activeeffect">1</property>
   <filter id="filter41" out="00:00:03.000">
    <property name="start">1</property>
    <property name="level">1</property>
    <property name="mlt_service">brightness</property>
    <property name="kdenlive_id">fade_from_black</property>
    <property name="alpha">00:00:00.000=0;00:00:03.000=1</property>
    <property name="kdenlive:collapsed">0</property>
   </filter>
   <filter id="filter42" in="00:00:38.967" out="00:00:41.967">
    <property name="start">1</property>
    <property name="level">1</property>
    <property name="mlt_service">brightness</property>
    <property name="kdenlive_id">fade_to_black</property>
    <property name="alpha">00:00:00.000=1;00:00:03.000=0</property>
    <property name="kdenlive:collapsed">0</property>
   </filter>
  </entry>
  <blank length="00:00:00.533"/>
  <entry in="00:00:00.000" out="00:00:06.633" producer="producer40">
   <property name="kdenlive:id">11</property>
   <filter id="filter43" out="00:00:01.133">
    <property name="start">1</property>
    <property name="level">1</property>
    <property name="mlt_service">brightness</property>
    <property name="kdenlive_id">fade_from_black</property>
    <property name="alpha">00:00:00.000=0;00:00:01.133=1</property>
    <property name="kdenlive:collapsed">0</property>
   </filter>
   <filter id="filter44" in="00:00:04.900" out="00:00:06.633">
    <property name="start">1</property>
    <property name="level">1</property>
    <property name="mlt_service">brightness</property>
    <property name="kdenlive_id">fade_to_black</property>
    <property name="alpha">00:00:00.000=1;00:00:01.733=0</property>
    <property name="kdenlive:collapsed">0</property>
   </filter>
  </entry>
  <blank length="00:00:50.433"/>
  <entry in="00:00:00.000" out="00:00:06.067" producer="producer41">
   <property name="kdenlive:id">12</property>
   <filter id="filter45" in="00:00:04.500" out="00:00:06.067">
    <property name="start">1</property>
    <property name="level">1</property>
    <property name="mlt_service">brightness</property>
    <property name="kdenlive_id">fade_to_black</property>
    <property name="alpha">00:00:00.000=1;00:00:01.567=0</property>
    <property name="kdenlive:collapsed">0</property>
   </filter>
   <filter id="filter46" out="00:00:01.600">
    <property name="start">1</property>
    <property name="level">1</property>
    <property name="mlt_service">brightness</property>
    <property name="kdenlive_id">fade_from_black</property>
    <property name="alpha">00:00:00.000=0;00:00:01.600=1</property>
    <property name="kdenlive:collapsed">0</property>
   </filter>
  </entry>
  <blank length="00:00:00.433"/>
  <entry in="00:00:00.000" out="00:00:36.033" producer="chain17">
   <property name="kdenlive:id">69</property>
   <filter id="filter47" out="00:00:03.000">
    <property name="start">1</property>
    <property name="level">1</property>
    <property name="mlt_service">brightness</property>
    <property name="kdenlive_id">fade_from_black</property>
    <property name="alpha">00:00:00.000=0;00:00:03.000=1</property>
    <property name="kdenlive:collapsed">0</property>
   </filter>
  </entry>
  <entry in="00:00:45.067" out="00:00:50.367" producer="producer42">
   <property name="kdenlive:id">69</property>
   <filter id="filter48" in="00:00:47.400" out="00:00:50.400">
    <property name="start">1</property>
    <property name="level">1</property>
    <property name="mlt_service">brightness</property>
    <property name="kdenlive_id">fade_to_black</property>
    <property name="alpha">00:00:00.000=1;00:00:03.000=0</property>
    <property name="kdenlive:collapsed">0</property>
   </filter>
  </entry>
  <blank length="00:00:00.467"/>
  <entry in="00:00:00.000" out="00:00:06.133" producer="producer43">
   <property name="kdenlive:id">13</property>
   <filter id="filter49" in="00:00:04.233" out="00:00:06.133">
    <property name="start">1</property>
    <property name="level">1</property>
    <property name="mlt_service">brightness</property>
    <property name="kdenlive_id">fade_to_black</property>
    <property name="alpha">00:00:00.000=1;00:00:01.900=0</property>
    <property name="kdenlive:collapsed">0</property>
   </filter>
   <filter id="filter50" out="00:00:00.633">
    <property name="start">1</property>
    <property name="level">1</property>
    <property name="mlt_service">brightness</property>
    <property name="kdenlive_id">fade_from_black</property>
    <property name="alpha">00:00:00.000=0;00:00:00.633=1</property>
    <property name="kdenlive:collapsed">0</property>
   </filter>
  </entry>
 </playlist>
 <playlist id="playlist11"/>
 <tractor id="tractor5" in="00:00:00.000" out="00:05:03.500">
  <property name="kdenlive:trackheight">50</property>
  <property name="kdenlive:timeline_active">1</property>
  <property name="kdenlive:collapsed">0</property>
  <property name="kdenlive:thumbs_format"/>
  <property name="kdenlive:audio_rec"/>
  <track hide="audio" producer="playlist10"/>
  <track hide="audio" producer="playlist11"/>
 </tractor>
 <playlist id="playlist12">
  <entry in="00:00:00.000" out="00:00:06.633" producer="producer2">
   <property name="kdenlive:id">31</property>
   <filter id="filter51">
    <property name="version">0.9</property>
    <property name="mlt_service">frei0r.transparency</property>
    <property name="kdenlive_id">frei0r.transparency</property>
    <property name="0">00:00:00.000=0.6</property>
    <property name="kdenlive:collapsed">0</property>
   </filter>
  </entry>
  <blank length="00:00:35.200"/>
  <entry in="00:00:00.000" out="00:00:05.300" producer="producer2">
   <property name="kdenlive:id">31</property>
   <filter id="filter52">
    <property name="version">0.9</property>
    <property name="mlt_service">frei0r.transparency</property>
    <property name="kdenlive_id">frei0r.transparency</property>
    <property name="0">00:00:00.000=0.6</property>
    <property name="kdenlive:collapsed">0</property>
   </filter>
  </entry>
  <blank length="00:00:49.300"/>
  <entry in="00:00:00.000" out="00:00:05.300" producer="producer2">
   <property name="kdenlive:id">31</property>
   <filter id="filter53">
    <property name="version">0.9</property>
    <property name="mlt_service">frei0r.transparency</property>
    <property name="kdenlive_id">frei0r.transparency</property>
    <property name="0">00:00:00.000=0.6</property>
    <property name="kdenlive:collapsed">0</property>
   </filter>
  </entry>
  <blank length="00:00:42.400"/>
  <entry in="00:00:00.000" out="00:00:04.833" producer="producer2">
   <property name="kdenlive:id">31</property>
   <filter id="filter54">
    <property name="version">0.9</property>
    <property name="mlt_service">frei0r.transparency</property>
    <property name="kdenlive_id">frei0r.transparency</property>
    <property name="0">00:00:00.000=0.6</property>
    <property name="kdenlive:collapsed">0</property>
   </filter>
  </entry>
  <blank length="00:00:42.767"/>
  <entry in="00:00:00.000" out="00:00:06.633" producer="producer2">
   <property name="kdenlive:id">31</property>
   <filter id="filter55">
    <property name="version">0.9</property>
    <property name="mlt_service">frei0r.transparency</property>
    <property name="kdenlive_id">frei0r.transparency</property>
    <property name="0">00:00:00.000=0.6</property>
    <property name="kdenlive:collapsed">0</property>
   </filter>
  </entry>
  <blank length="00:00:50.433"/>
  <entry in="00:00:00.000" out="00:00:06.067" producer="producer2">
   <property name="kdenlive:id">31</property>
   <filter id="filter56">
    <property name="version">0.9</property>
    <property name="mlt_service">frei0r.transparency</property>
    <property name="kdenlive_id">frei0r.transparency</property>
    <property name="0">00:00:00.000=0.6</property>
    <property name="kdenlive:collapsed">0</property>
   </filter>
  </entry>
  <blank length="00:00:42.300"/>
  <entry in="00:00:00.000" out="00:00:06.133" producer="producer2">
   <property name="kdenlive:id">31</property>
   <filter id="filter57">
    <property name="version">0.9</property>
    <property name="mlt_service">frei0r.transparency</property>
    <property name="kdenlive_id">frei0r.transparency</property>
    <property name="0">00:00:00.000=0.6</property>
    <property name="kdenlive:collapsed">0</property>
   </filter>
  </entry>
 </playlist>
 <playlist id="playlist13"/>
 <tractor id="tractor6" in="00:00:00.000" out="00:05:03.500">
  <property name="kdenlive:trackheight">47</property>
  <property name="kdenlive:timeline_active">1</property>
  <property name="kdenlive:collapsed">0</property>
  <property name="kdenlive:thumbs_format"/>
  <property name="kdenlive:audio_rec"/>
  <track hide="audio" producer="playlist12"/>
  <track hide="audio" producer="playlist13"/>
 </tractor>
 <playlist id="playlist14">
  <blank length="00:00:00.733"/>
  <entry in="00:00:00.000" out="00:00:05.633" producer="producer9">
   <property name="kdenlive:id">22</property>
   <filter id="filter58" in="00:00:04.067" out="00:00:05.633">
    <property name="start">1</property>
    <property name="level">1</property>
    <property name="mlt_service">brightness</property>
    <property name="kdenlive_id">fade_to_black</property>
    <property name="alpha">00:00:00.000=1;00:00:01.567=0</property>
    <property name="kdenlive:collapsed">0</property>
   </filter>
  </entry>
  <blank length="00:00:36.100"/>
  <entry in="00:00:00.000" out="00:00:04.667" producer="producer3">
   <property name="kdenlive:id">24</property>
   <filter id="filter59" in="00:00:02.800" out="00:00:04.667">
    <property name="start">1</property>
    <property name="level">1</property>
    <property name="mlt_service">brightness</property>
    <property name="kdenlive_id">fade_to_black</property>
    <property name="alpha">00:00:00.000=1;00:00:01.867=0</property>
    <property name="kdenlive:collapsed">0</property>
   </filter>
  </entry>
  <blank length="00:00:49.800"/>
  <entry in="00:00:00.000" out="00:00:05.633" producer="producer4">
   <property name="kdenlive:id">25</property>
   <filter id="filter60" in="00:00:03.033" out="00:00:05.633">
    <property name="start">1</property>
    <property name="level">1</property>
    <property name="mlt_service">brightness</property>
    <property name="kdenlive_id">fade_to_black</property>
    <property name="alpha">00:00:00.000=1;00:00:02.600=0</property>
    <property name="kdenlive:collapsed">0</property>
   </filter>
  </entry>
  <blank length="00:00:42.033"/>
  <entry in="00:00:00.000" out="00:00:04.333" producer="producer5">
   <property name="kdenlive:id">26</property>
   <filter id="filter61" in="00:00:02.833" out="00:00:04.333">
    <property name="start">1</property>
    <property name="level">1</property>
    <property name="mlt_service">brightness</property>
    <property name="kdenlive_id">fade_to_black</property>
    <property name="alpha">00:00:00.000=1;00:00:01.500=0</property>
    <property name="kdenlive:collapsed">0</property>
   </filter>
  </entry>
  <blank length="00:00:43.333"/>
  <entry in="00:00:00.000" out="00:00:06.100" producer="producer6">
   <property name="kdenlive:id">28</property>
   <filter id="filter62" in="00:00:04.300" out="00:00:06.100">
    <property name="start">1</property>
    <property name="level">1</property>
    <property name="mlt_service">brightness</property>
    <property name="kdenlive_id">fade_to_black</property>
    <property name="alpha">00:00:00.000=1;00:00:01.800=0</property>
    <property name="kdenlive:collapsed">0</property>
   </filter>
  </entry>
  <blank length="00:00:51.267"/>
  <entry in="00:00:00.000" out="00:00:05.233" producer="producer7">
   <property name="kdenlive:id">29</property>
   <filter id="filter63" in="00:00:03.733" out="00:00:05.233">
    <property name="start">1</property>
    <property name="level">1</property>
    <property name="mlt_service">brightness</property>
    <property name="kdenlive_id">fade_to_black</property>
    <property name="alpha">00:00:00.000=1;00:00:01.533=0.233333</property>
    <property name="kdenlive:collapsed">0</property>
   </filter>
  </entry>
  <blank length="00:00:42.867"/>
  <entry in="00:00:00.000" out="00:00:05.567" producer="producer8">
   <property name="kdenlive:id">30</property>
   <filter id="filter64" in="00:00:02.867" out="00:00:05.567">
    <property name="start">1</property>
    <property name="level">1</property>
    <property name="mlt_service">brightness</property>
    <property name="kdenlive_id">fade_to_black</property>
    <property name="alpha">00:00:00.000=1;00:00:02.700=0</property>
    <property name="kdenlive:collapsed">0</property>
   </filter>
  </entry>
 </playlist>
 <playlist id="playlist15"/>
 <tractor id="tractor7" in="00:00:00.000" out="00:05:03.500">
  <property name="kdenlive:trackheight">51</property>
  <property name="kdenlive:timeline_active">1</property>
  <property name="kdenlive:collapsed">0</property>
  <property name="kdenlive:thumbs_format"/>
  <property name="kdenlive:audio_rec"/>
  <track hide="audio" producer="playlist14"/>
  <track hide="audio" producer="playlist15"/>
 </tractor>
 <tractor id="tractor8" in="00:00:00.000" out="00:06:28.367">
  <property name="kdenlive:duration">00:06:28.400</property>
  <property name="kdenlive:maxduration">11652</property>
  <property name="kdenlive:clipname">Sequence 1</property>
  <property name="kdenlive:description"/>
  <property name="kdenlive:uuid">{7beb0241-7c06-4d1f-89cb-be4e9ad332ec}</property>
  <property name="kdenlive:producer_type">17</property>
  <property name="kdenlive:zone_in">0</property>
  <property name="kdenlive:zone_out">11165</property>
  <property name="kdenlive:control_uuid">{7beb0241-7c06-4d1f-89cb-be4e9ad332ec}</property>
  <property name="kdenlive:id">3</property>
  <property name="kdenlive:clip_type">0</property>
  <property name="kdenlive:file_hash">e2a54c026d66aeee77ae25615c861870</property>
  <property name="kdenlive:folderid">2</property>
  <property name="kdenlive:sequenceproperties.activeTrack">4</property>
  <property name="kdenlive:sequenceproperties.audioTarget">2</property>
  <property name="kdenlive:sequenceproperties.disablepreview">0</property>
  <property name="kdenlive:sequenceproperties.documentuuid">{7beb0241-7c06-4d1f-89cb-be4e9ad332ec}</property>
  <property name="kdenlive:sequenceproperties.hasAudio">1</property>
  <property name="kdenlive:sequenceproperties.hasVideo">1</property>
  <property name="kdenlive:sequenceproperties.position">6610</property>
  <property name="kdenlive:sequenceproperties.scrollPos">1520</property>
  <property name="kdenlive:sequenceproperties.tracks">6</property>
  <property name="kdenlive:sequenceproperties.tracksCount">7</property>
  <property name="kdenlive:sequenceproperties.verticalzoom">1</property>
  <property name="kdenlive:sequenceproperties.videoTarget">3</property>
  <property name="kdenlive:sequenceproperties.zonein">0</property>
  <property name="kdenlive:sequenceproperties.zoneout">75</property>
  <property name="kdenlive:sequenceproperties.zoom">9</property>
  <property name="kdenlive:sequenceproperties.groups">[
    {
        "children": [
            {
                "data": "1:1256:-1",
                "leaf": "clip",
                "type": "Leaf"
            },
            {
                "data": "3:1275:-1",
                "leaf": "clip",
                "type": "Leaf"
            },
            {
                "data": "4:1256:-1",
                "leaf": "clip",
                "type": "Leaf"
            },
            {
                "data": "5:1256:-1",
                "leaf": "clip",
                "type": "Leaf"
            },
            {
                "data": "6:1275:-1",
                "leaf": "clip",
                "type": "Leaf"
            }
        ],
        "type": "Normal"
    },
    {
        "children": [
            {
                "data": "6:2910:-1",
                "leaf": "clip",
                "type": "Leaf"
            },
            {
                "data": "5:2895:-1",
                "leaf": "clip",
                "type": "Leaf"
            },
            {
                "data": "4:2895:-1",
                "leaf": "clip",
                "type": "Leaf"
            },
            {
                "data": "3:2905:-1",
                "leaf": "clip",
                "type": "Leaf"
            },
            {
                "data": "3:2942:-1",
                "leaf": "clip",
                "type": "Leaf"
            },
            {
                "data": "1:2895:-1",
                "leaf": "clip",
                "type": "Leaf"
            }
        ],
        "type": "Normal"
    },
    {
        "children": [
            {
                "data": "6:4341:-1",
                "leaf": "clip",
                "type": "Leaf"
            },
            {
                "data": "5:4327:-1",
                "leaf": "clip",
                "type": "Leaf"
            },
            {
                "data": "4:4327:-1",
                "leaf": "clip",
                "type": "Leaf"
            },
            {
                "data": "3:4341:-1",
                "leaf": "clip",
                "type": "Leaf"
            }
        ],
        "type": "Normal"
    },
    {
        "children": [
            {
                "data": "6:5772:-1",
                "leaf": "clip",
                "type": "Leaf"
            },
            {
                "data": "3:5766:-1",
                "leaf": "clip",
                "type": "Leaf"
            },
            {
                "data": "5:5756:-1",
                "leaf": "clip",
                "type": "Leaf"
            },
            {
                "data": "4:5756:-1",
                "leaf": "clip",
                "type": "Leaf"
            },
            {
                "data": "3:5803:-1",
                "leaf": "clip",
                "type": "Leaf"
            },
            {
                "data": "1:5756:-1",
                "leaf": "clip",
                "type": "Leaf"
            }
        ],
        "type": "Normal"
    }
]
</property>
  <property name="kdenlive:sequenceproperties.guides">[
]
</property>
  <track producer="producer0"/>
  <track producer="tractor1"/>
  <track producer="tractor2"/>
  <track producer="tractor3"/>
  <track producer="tractor4"/>
  <track producer="tractor5"/>
  <track producer="tractor6"/>
  <track producer="tractor7"/>
  <transition id="transition1">
   <property name="a_track">0</property>
   <property name="b_track">1</property>
   <property name="mlt_service">mix</property>
   <property name="kdenlive_id">mix</property>
   <property name="internal_added">237</property>
   <property name="always_active">1</property>
   <property name="accepts_blanks">1</property>
   <property name="sum">1</property>
  </transition>
  <transition id="transition2">
   <property name="a_track">0</property>
   <property name="b_track">2</property>
   <property name="mlt_service">mix</property>
   <property name="kdenlive_id">mix</property>
   <property name="internal_added">237</property>
   <property name="always_active">1</property>
   <property name="accepts_blanks">1</property>
   <property name="sum">1</property>
  </transition>
  <transition id="transition3">
   <property name="a_track">0</property>
   <property name="b_track">3</property>
   <property name="mlt_service">mix</property>
   <property name="kdenlive_id">mix</property>
   <property name="internal_added">237</property>
   <property name="always_active">1</property>
   <property name="accepts_blanks">1</property>
   <property name="sum">1</property>
  </transition>
  <transition id="transition4">
   <property name="a_track">0</property>
   <property name="b_track">4</property>
   <property name="mlt_service">mix</property>
   <property name="kdenlive_id">mix</property>
   <property name="internal_added">237</property>
   <property name="always_active">1</property>
   <property name="accepts_blanks">1</property>
   <property name="sum">1</property>
  </transition>
  <transition id="transition5">
   <property name="a_track">0</property>
   <property name="b_track">5</property>
   <property name="compositing">0</property>
   <property name="distort">0</property>
   <property name="rotate_center">0</property>
   <property name="mlt_service">qtblend</property>
   <property name="kdenlive_id">qtblend</property>
   <property name="internal_added">237</property>
   <property name="always_active">1</property>
  </transition>
  <transition id="transition6">
   <property name="a_track">0</property>
   <property name="b_track">6</property>
   <property name="compositing">0</property>
   <property name="distort">0</property>
   <property name="rotate_center">0</property>
   <property name="mlt_service">qtblend</property>
   <property name="kdenlive_id">qtblend</property>
   <property name="internal_added">237</property>
   <property name="always_active">1</property>
  </transition>
  <transition id="transition7">
   <property name="a_track">0</property>
   <property name="b_track">7</property>
   <property name="compositing">0</property>
   <property name="distort">0</property>
   <property name="rotate_center">0</property>
   <property name="mlt_service">qtblend</property>
   <property name="kdenlive_id">qtblend</property>
   <property name="internal_added">237</property>
   <property name="always_active">1</property>
  </transition>
  <filter id="filter65">
   <property name="window">75</property>
   <property name="max_gain">20dB</property>
   <property name="channel_mask">-1</property>
   <property name="mlt_service">volume</property>
   <property name="internal_added">237</property>
   <property name="disable">1</property>
  </filter>
  <filter id="filter66">
   <property name="channel">-1</property>
   <property name="mlt_service">panner</property>
   <property name="internal_added">237</property>
   <property name="start">0.5</property>
   <property name="disable">1</property>
  </filter>
 </tractor>
 <chain id="chain19" out="00:00:27.300">
  <property name="length">820</property>
  <property name="eof">pause</property>
  <property name="resource">videos/1/car-driving.mp4</property>
  <property name="mlt_service">avformat-novalidate</property>
  <property name="meta.media.nb_streams">2</property>
  <property name="meta.media.0.stream.type">video</property>
  <property name="meta.media.0.stream.frame_rate">25</property>
  <property name="meta.media.0.stream.sample_aspect_ratio">0</property>
  <property name="meta.media.0.codec.width">1920</property>
  <property name="meta.media.0.codec.height">1080</property>
  <property name="meta.media.0.codec.rotate">0</property>
  <property name="meta.media.0.codec.pix_fmt">yuv420p</property>
  <property name="meta.media.0.codec.sample_aspect_ratio">0</property>
  <property name="meta.media.0.codec.colorspace">709</property>
  <property name="meta.media.0.codec.color_trc">1</property>
  <property name="meta.media.0.codec.name">h264</property>
  <property name="meta.media.0.codec.long_name">H.264 / AVC / MPEG-4 AVC / MPEG-4 part 10</property>
  <property name="meta.media.0.codec.bit_rate">4208957</property>
  <property name="meta.attr.0.stream.creation_time.markup">2022-10-06T17:44:12.000000Z</property>
  <property name="meta.attr.0.stream.handler_name.markup">Vimeo Artax Video Handler</property>
  <property name="meta.attr.0.stream.vendor_id.markup">[0][0][0][0]</property>
  <property name="meta.attr.0.stream.encoder.markup">AVC Coding</property>
  <property name="meta.media.1.stream.type">audio</property>
  <property name="meta.media.1.codec.sample_fmt">fltp</property>
  <property name="meta.media.1.codec.sample_rate">48000</property>
  <property name="meta.media.1.codec.channels">2</property>
  <property name="meta.media.1.codec.layout">stereo</property>
  <property name="meta.media.1.codec.name">aac</property>
  <property name="meta.media.1.codec.long_name">AAC (Advanced Audio Coding)</property>
  <property name="meta.media.1.codec.bit_rate">189384</property>
  <property name="meta.attr.1.stream.creation_time.markup">2022-10-06T17:44:12.000000Z</property>
  <property name="meta.attr.1.stream.handler_name.markup">Vimeo Artax Audio Handler</property>
  <property name="meta.attr.1.stream.vendor_id.markup">[0][0][0][0]</property>
  <property name="meta.attr.major_brand.markup">mp42</property>
  <property name="meta.attr.minor_version.markup">0</property>
  <property name="meta.attr.compatible_brands.markup">mp42isomavc1</property>
  <property name="meta.attr.creation_time.markup">2022-10-06T17:44:12.000000Z</property>
  <property name="seekable">1</property>
  <property name="meta.media.sample_aspect_num">1</property>
  <property name="meta.media.sample_aspect_den">1</property>
  <property name="format">3</property>
  <property name="audio_index">1</property>
  <property name="video_index">0</property>
  <property name="vstream">0</property>
  <property name="meta.media.frame_rate_num">25</property>
  <property name="meta.media.frame_rate_den">1</property>
  <property name="meta.media.colorspace">709</property>
  <property name="meta.media.color_trc">1</property>
  <property name="meta.media.has_b_frames">2</property>
  <property name="meta.media.width">1920</property>
  <property name="meta.media.height">1080</property>
  <property name="meta.media.aspect_ratio">1</property>
  <property name="meta.media.color_range">mpeg</property>
  <property name="astream">0</property>
  <property name="meta.media.top_field_first">0</property>
  <property name="meta.media.progressive">1</property>
  <property name="kdenlive:folderid">40</property>
  <property name="kdenlive:id">43</property>
  <property name="kdenlive:control_uuid">{022da2ab-58c9-466d-b5a6-b123d365f4f5}</property>
  <property name="mute_on_pause">0</property>
  <property name="kdenlive:clip_type">0</property>
  <property name="kdenlive:file_size">15037216</property>
  <property name="kdenlive:file_hash">2b55938200669b8517047e8bcf10b4c0</property>
  <property name="kdenlive:monitorPosition">0</property>
  <property name="kdenlive:kextractor">1</property>
  <property name="kdenlive:meta.extractor.Bitrate:">4402 kb/s</property>
 </chain>
 <chain id="chain30" out="00:00:07.767">
  <property name="length">234</property>
  <property name="eof">pause</property>
  <property name="resource">videos/1/doctor tablet.mp4</property>
  <property name="mlt_service">avformat-novalidate</property>
  <property name="meta.media.nb_streams">1</property>
  <property name="meta.media.0.stream.type">video</property>
  <property name="meta.media.0.stream.frame_rate">24</property>
  <property name="meta.media.0.stream.sample_aspect_ratio">1.00011</property>
  <property name="meta.media.0.codec.width">1920</property>
  <property name="meta.media.0.codec.height">1080</property>
  <property name="meta.media.0.codec.rotate">0</property>
  <property name="meta.media.0.codec.pix_fmt">yuv420p</property>
  <property name="meta.media.0.codec.sample_aspect_ratio">1</property>
  <property name="meta.media.0.codec.colorspace">709</property>
  <property name="meta.media.0.codec.name">h264</property>
  <property name="meta.media.0.codec.long_name">H.264 / AVC / MPEG-4 AVC / MPEG-4 part 10</property>
  <property name="meta.media.0.codec.bit_rate">3321738</property>
  <property name="meta.attr.0.stream.handler_name.markup">VideoHandler</property>
  <property name="meta.attr.0.stream.vendor_id.markup">[0][0][0][0]</property>
  <property name="meta.attr.0.stream.encoder.markup">Lavc59.37.100 libx264</property>
  <property name="meta.attr.major_brand.markup">iso5</property>
  <property name="meta.attr.minor_version.markup">512</property>
  <property name="meta.attr.compatible_brands.markup">iso5iso6mp41</property>
  <property name="meta.attr.title.markup">Dentist examines patient with virtual screen showing 3D jaw model data using advanced technology, dental care footage.</property>
  <property name="meta.attr.encoder.markup">Lavf59.27.100</property>
  <property name="seekable">1</property>
  <property name="meta.media.sample_aspect_num">8961</property>
  <property name="meta.media.sample_aspect_den">8960</property>
  <property name="format">3</property>
  <property name="audio_index">-1</property>
  <property name="video_index">0</property>
  <property name="vstream">0</property>
  <property name="meta.media.frame_rate_num">24</property>
  <property name="meta.media.frame_rate_den">1</property>
  <property name="meta.media.colorspace">709</property>
  <property name="meta.media.color_trc">2</property>
  <property name="meta.media.has_b_frames">2</property>
  <property name="meta.media.width">1920</property>
  <property name="meta.media.height">1080</property>
  <property name="meta.media.aspect_ratio">1.00011</property>
  <property name="meta.media.color_range">mpeg</property>
  <property name="meta.media.top_field_first">0</property>
  <property name="meta.media.progressive">1</property>
  <property name="kdenlive:folderid">40</property>
  <property name="kdenlive:id">44</property>
  <property name="kdenlive:control_uuid">{9722301b-7a73-4943-9f9c-903b2f43b474}</property>
  <property name="mute_on_pause">0</property>
  <property name="kdenlive:clip_type">2</property>
  <property name="kdenlive:file_size">3237801</property>
  <property name="kdenlive:file_hash">3b062ee20a48a347044b0c0871a24e4c</property>
  <property name="kdenlive:kextractor">1</property>
  <property name="kdenlive:meta.extractor.Bitrate:">3324 kb/s</property>
  <property name="kdenlive:meta.extractor.Title:">Dentist examines patient with virtual screen showing 3D jaw model data using advanced technology, dental care footage.</property>
  <property name="kdenlive:monitorPosition">36</property>
 </chain>
 <chain id="chain38" out="00:00:14.967">
  <property name="length">450</property>
  <property name="eof">pause</property>
  <property name="resource">videos/1/no-sci-fi.mp4</property>
  <property name="mlt_service">avformat-novalidate</property>
  <property name="meta.media.nb_streams">1</property>
  <property name="meta.media.0.stream.type">video</property>
  <property name="meta.media.0.stream.frame_rate">25</property>
  <property name="meta.media.0.stream.sample_aspect_ratio">0</property>
  <property name="meta.media.0.codec.width">1920</property>
  <property name="meta.media.0.codec.height">1080</property>
  <property name="meta.media.0.codec.rotate">0</property>
  <property name="meta.media.0.codec.pix_fmt">yuv420p</property>
  <property name="meta.media.0.codec.sample_aspect_ratio">0</property>
  <property name="meta.media.0.codec.colorspace">709</property>
  <property name="meta.media.0.codec.name">h264</property>
  <property name="meta.media.0.codec.long_name">H.264 / AVC / MPEG-4 AVC / MPEG-4 part 10</property>
  <property name="meta.media.0.codec.bit_rate">2514747</property>
  <property name="meta.attr.0.stream.handler_name.markup">VideoHandler</property>
  <property name="meta.attr.0.stream.vendor_id.markup">[0][0][0][0]</property>
  <property name="meta.attr.major_brand.markup">isom</property>
  <property name="meta.attr.minor_version.markup">512</property>
  <property name="meta.attr.compatible_brands.markup">isomiso2avc1mp41</property>
  <property name="meta.attr.encoder.markup">Lavf58.29.100</property>
  <property name="seekable">1</property>
  <property name="meta.media.sample_aspect_num">1</property>
  <property name="meta.media.sample_aspect_den">1</property>
  <property name="format">3</property>
  <property name="audio_index">-1</property>
  <property name="video_index">0</property>
  <property name="vstream">0</property>
  <property name="meta.media.frame_rate_num">25</property>
  <property name="meta.media.frame_rate_den">1</property>
  <property name="meta.media.colorspace">709</property>
  <property name="meta.media.color_trc">2</property>
  <property name="meta.media.has_b_frames">2</property>
  <property name="meta.media.width">1920</property>
  <property name="meta.media.height">1080</property>
  <property name="meta.media.aspect_ratio">1</property>
  <property name="meta.media.color_range">mpeg</property>
  <property name="meta.media.top_field_first">0</property>
  <property name="meta.media.progressive">1</property>
  <property name="kdenlive:folderid">40</property>
  <property name="kdenlive:id">46</property>
  <property name="kdenlive:control_uuid">{dc23ddd1-44ec-4ff8-8a5c-704d25a07921}</property>
  <property name="mute_on_pause">0</property>
  <property name="kdenlive:clip_type">2</property>
  <property name="kdenlive:file_size">4720548</property>
  <property name="kdenlive:file_hash">b7e589147a5bb06f165f6544a72943c6</property>
  <property name="kdenlive:kextractor">1</property>
  <property name="kdenlive:meta.extractor.Bitrate:">2517 kb/s</property>
  <property name="kdenlive:monitorPosition">0</property>
 </chain>
 <chain id="chain40" out="00:00:20.000">
  <property name="length">601</property>
  <property name="eof">pause</property>
  <property name="resource">videos/1/in-phones.mp4</property>
  <property name="mlt_service">avformat-novalidate</property>
  <property name="meta.media.nb_streams">1</property>
  <property name="meta.media.0.stream.type">video</property>
  <property name="meta.media.0.stream.frame_rate">25</property>
  <property name="meta.media.0.stream.sample_aspect_ratio">0</property>
  <property name="meta.media.0.codec.width">1920</property>
  <property name="meta.media.0.codec.height">1080</property>
  <property name="meta.media.0.codec.rotate">0</property>
  <property name="meta.media.0.codec.pix_fmt">yuvj422p</property>
  <property name="meta.media.0.codec.sample_aspect_ratio">1</property>
  <property name="meta.media.0.codec.colorspace">709</property>
  <property name="meta.media.0.codec.name">h264</property>
  <property name="meta.media.0.codec.long_name">H.264 / AVC / MPEG-4 AVC / MPEG-4 part 10</property>
  <property name="meta.media.0.codec.bit_rate">7742008</property>
  <property name="meta.attr.0.stream.language.markup">eng</property>
  <property name="meta.attr.0.stream.handler_name.markup">VideoHandler</property>
  <property name="meta.attr.0.stream.vendor_id.markup">[0][0][0][0]</property>
  <property name="meta.attr.major_brand.markup">isom</property>
  <property name="meta.attr.minor_version.markup">512</property>
  <property name="meta.attr.compatible_brands.markup">isomiso2avc1mp41</property>
  <property name="meta.attr.encoder.markup">Lavf56.4.101</property>
  <property name="seekable">1</property>
  <property name="meta.media.sample_aspect_num">1</property>
  <property name="meta.media.sample_aspect_den">1</property>
  <property name="format">3</property>
  <property name="audio_index">-1</property>
  <property name="video_index">0</property>
  <property name="vstream">0</property>
  <property name="meta.media.frame_rate_num">25</property>
  <property name="meta.media.frame_rate_den">1</property>
  <property name="meta.media.colorspace">709</property>
  <property name="meta.media.color_trc">2</property>
  <property name="meta.media.has_b_frames">2</property>
  <property name="meta.media.width">1920</property>
  <property name="meta.media.height">1080</property>
  <property name="meta.media.aspect_ratio">1</property>
  <property name="meta.media.color_range">full</property>
  <property name="meta.media.top_field_first">0</property>
  <property name="meta.media.progressive">1</property>
  <property name="kdenlive:folderid">40</property>
  <property name="kdenlive:id">45</property>
  <property name="kdenlive:control_uuid">{a41f9dfa-a067-4e17-820f-af946630d2b9}</property>
  <property name="mute_on_pause">0</property>
  <property name="kdenlive:clip_type">2</property>
  <property name="kdenlive:file_size">19397488</property>
  <property name="kdenlive:file_hash">c0109a3916dc469c4f381584ef896b2f</property>
  <property name="kdenlive:kextractor">1</property>
  <property name="kdenlive:meta.extractor.Bitrate:">7743 kb/s</property>
  <property name="kdenlive:monitorPosition">0</property>
 </chain>
 <chain id="chain41" out="00:00:11.233">
  <property name="length">338</property>
  <property name="eof">pause</property>
  <property name="resource">videos/1/recommend-system.mp4</property>
  <property name="mlt_service">avformat-novalidate</property>
  <property name="meta.media.nb_streams">1</property>
  <property name="meta.media.0.stream.type">video</property>
  <property name="meta.media.0.stream.frame_rate">50</property>
  <property name="meta.media.0.stream.sample_aspect_ratio">0</property>
  <property name="meta.media.0.codec.width">1920</property>
  <property name="meta.media.0.codec.height">1080</property>
  <property name="meta.media.0.codec.rotate">0</property>
  <property name="meta.media.0.codec.pix_fmt">yuv420p</property>
  <property name="meta.media.0.codec.sample_aspect_ratio">1</property>
  <property name="meta.media.0.codec.colorspace">709</property>
  <property name="meta.media.0.codec.name">h264</property>
  <property name="meta.media.0.codec.long_name">H.264 / AVC / MPEG-4 AVC / MPEG-4 part 10</property>
  <property name="meta.media.0.codec.bit_rate">3859412</property>
  <property name="meta.attr.0.stream.creation_time.markup">2016-04-18T13:12:41.000000Z</property>
  <property name="meta.attr.0.stream.handler_name.markup">VideoHandler</property>
  <property name="meta.attr.0.stream.vendor_id.markup">[0][0][0][0]</property>
  <property name="meta.attr.major_brand.markup">isom</property>
  <property name="meta.attr.minor_version.markup">512</property>
  <property name="meta.attr.compatible_brands.markup">isomiso2avc1mp41</property>
  <property name="meta.attr.creation_time.markup">2016-04-18T13:12:41.000000Z</property>
  <property name="meta.attr.encoder.markup">Lavf55.33.100</property>
  <property name="seekable">1</property>
  <property name="meta.media.sample_aspect_num">1</property>
  <property name="meta.media.sample_aspect_den">1</property>
  <property name="format">3</property>
  <property name="audio_index">-1</property>
  <property name="video_index">0</property>
  <property name="vstream">0</property>
  <property name="meta.media.frame_rate_num">50</property>
  <property name="meta.media.frame_rate_den">1</property>
  <property name="meta.media.colorspace">709</property>
  <property name="meta.media.color_trc">2</property>
  <property name="meta.media.has_b_frames">0</property>
  <property name="meta.media.width">1920</property>
  <property name="meta.media.height">1080</property>
  <property name="meta.media.aspect_ratio">1</property>
  <property name="meta.media.color_range">mpeg</property>
  <property name="meta.media.top_field_first">0</property>
  <property name="meta.media.progressive">1</property>
  <property name="kdenlive:folderid">40</property>
  <property name="kdenlive:id">47</property>
  <property name="kdenlive:control_uuid">{449aa7b5-b16f-4794-8dde-0a517c312a82}</property>
  <property name="mute_on_pause">0</property>
  <property name="kdenlive:clip_type">2</property>
  <property name="kdenlive:file_size">5445183</property>
  <property name="kdenlive:file_hash">13ae3ab9160c3bcf14668e2576f1d3d5</property>
  <property name="kdenlive:kextractor">1</property>
  <property name="kdenlive:meta.extractor.Bitrate:">3861 kb/s</property>
  <property name="kdenlive:monitorPosition">0</property>
 </chain>
 <chain id="chain42" out="00:00:20.000">
  <property name="length">601</property>
  <property name="eof">pause</property>
  <property name="resource">videos/1/translate.mp4</property>
  <property name="mlt_service">avformat-novalidate</property>
  <property name="meta.media.nb_streams">1</property>
  <property name="meta.media.0.stream.type">video</property>
  <property name="meta.media.0.stream.frame_rate">29.97</property>
  <property name="meta.media.0.stream.sample_aspect_ratio">0</property>
  <property name="meta.media.0.codec.width">960</property>
  <property name="meta.media.0.codec.height">540</property>
  <property name="meta.media.0.codec.rotate">0</property>
  <property name="meta.media.0.codec.pix_fmt">yuv420p</property>
  <property name="meta.media.0.codec.sample_aspect_ratio">1</property>
  <property name="meta.media.0.codec.colorspace">709</property>
  <property name="meta.media.0.codec.name">h264</property>
  <property name="meta.media.0.codec.long_name">H.264 / AVC / MPEG-4 AVC / MPEG-4 part 10</property>
  <property name="meta.media.0.codec.bit_rate">3287013</property>
  <property name="meta.attr.0.stream.vendor_id.markup">[0][0][0][0]</property>
  <property name="meta.attr.major_brand.markup">isom</property>
  <property name="meta.attr.minor_version.markup">1</property>
  <property name="meta.attr.compatible_brands.markup">isomavc1mp42</property>
  <property name="meta.attr.creation_time.markup">2025-10-01T03:05:34.000000Z</property>
  <property name="seekable">1</property>
  <property name="meta.media.sample_aspect_num">1</property>
  <property name="meta.media.sample_aspect_den">1</property>
  <property name="format">3</property>
  <property name="audio_index">-1</property>
  <property name="video_index">0</property>
  <property name="vstream">0</property>
  <property name="meta.media.frame_rate_num">30000</property>
  <property name="meta.media.frame_rate_den">1001</property>
  <property name="meta.media.colorspace">709</property>
  <property name="meta.media.color_trc">2</property>
  <property name="meta.media.has_b_frames">0</property>
  <property name="meta.media.width">960</property>
  <property name="meta.media.height">540</property>
  <property name="meta.media.aspect_ratio">1</property>
  <property name="meta.media.color_range">mpeg</property>
  <property name="meta.media.top_field_first">0</property>
  <property name="meta.media.progressive">1</property>
  <property name="kdenlive:folderid">40</property>
  <property name="kdenlive:id">48</property>
  <property name="kdenlive:control_uuid">{7da028d8-c0ce-4ec3-9844-bf21162ee309}</property>
  <property name="mute_on_pause">0</property>
  <property name="kdenlive:clip_type">2</property>
  <property name="kdenlive:file_size">8229111</property>
  <property name="kdenlive:file_hash">ed3170402e448a7bdb3c29752c93afec</property>
  <property name="kdenlive:kextractor">1</property>
  <property name="kdenlive:meta.extractor.Bitrate:">3288 kb/s</property>
  <property name="kdenlive:monitorPosition">0</property>
 </chain>
 <chain id="chain43" out="00:00:14.967">
  <property name="length">450</property>
  <property name="eof">pause</property>
  <property name="resource">videos/1/deeper.mp4</property>
  <property name="mlt_service">avformat-novalidate</property>
  <property name="meta.media.nb_streams">1</property>
  <property name="meta.media.0.stream.type">video</property>
  <property name="meta.media.0.stream.frame_rate">29.97</property>
  <property name="meta.media.0.stream.sample_aspect_ratio">0</property>
  <property name="meta.media.0.codec.width">960</property>
  <property name="meta.media.0.codec.height">540</property>
  <property name="meta.media.0.codec.rotate">0</property>
  <property name="meta.media.0.codec.pix_fmt">yuv420p</property>
  <property name="meta.media.0.codec.sample_aspect_ratio">1</property>
  <property name="meta.media.0.codec.colorspace">709</property>
  <property name="meta.media.0.codec.color_trc">1</property>
  <property name="meta.media.0.codec.name">h264</property>
  <property name="meta.media.0.codec.long_name">H.264 / AVC / MPEG-4 AVC / MPEG-4 part 10</property>
  <property name="meta.media.0.codec.bit_rate">7607832</property>
  <property name="meta.attr.0.stream.vendor_id.markup">[0][0][0][0]</property>
  <property name="meta.attr.major_brand.markup">isom</property>
  <property name="meta.attr.minor_version.markup">1</property>
  <property name="meta.attr.compatible_brands.markup">isomavc1mp42</property>
  <property name="meta.attr.creation_time.markup">2025-05-15T00:50:35.000000Z</property>
  <property name="seekable">1</property>
  <property name="meta.media.sample_aspect_num">1</property>
  <property name="meta.media.sample_aspect_den">1</property>
  <property name="format">3</property>
  <property name="audio_index">-1</property>
  <property name="video_index">0</property>
  <property name="vstream">0</property>
  <property name="meta.media.frame_rate_num">30000</property>
  <property name="meta.media.frame_rate_den">1001</property>
  <property name="meta.media.colorspace">709</property>
  <property name="meta.media.color_trc">1</property>
  <property name="meta.media.has_b_frames">0</property>
  <property name="meta.media.width">960</property>
  <property name="meta.media.height">540</property>
  <property name="meta.media.aspect_ratio">1</property>
  <property name="meta.media.color_range">mpeg</property>
  <property name="meta.media.top_field_first">0</property>
  <property name="meta.media.progressive">1</property>
  <property name="kdenlive:folderid">40</property>
  <property name="kdenlive:id">49</property>
  <property name="kdenlive:control_uuid">{d3a97a37-e574-4388-b453-6d5a620f3dc3}</property>
  <property name="mute_on_pause">0</property>
  <property name="kdenlive:clip_type">2</property>
  <property name="kdenlive:file_size">14281685</property>
  <property name="kdenlive:file_hash">efbb885f6f0c46c70ab5c1bdb12a6b64</property>
  <property name="kdenlive:kextractor">1</property>
  <property name="kdenlive:meta.extractor.Bitrate:">7609 kb/s</property>
  <property name="kdenlive:monitorPosition">0</property>
 </chain>
 <chain id="chain44" out="00:00:09.167">
  <property name="length">276</property>
  <property name="eof">pause</property>
  <property name="resource">videos/1/really-understand.mp4</property>
  <property name="mlt_service">avformat-novalidate</property>
  <property name="meta.media.nb_streams">2</property>
  <property name="meta.media.0.stream.type">video</property>
  <property name="meta.media.0.stream.frame_rate">29.97</property>
  <property name="meta.media.0.stream.sample_aspect_ratio">0</property>
  <property name="meta.media.0.codec.width">1920</property>
  <property name="meta.media.0.codec.height">1080</property>
  <property name="meta.media.0.codec.rotate">0</property>
  <property name="meta.media.0.codec.pix_fmt">yuv420p</property>
  <property name="meta.media.0.codec.sample_aspect_ratio">0</property>
  <property name="meta.media.0.codec.colorspace">709</property>
  <property name="meta.media.0.codec.name">h264</property>
  <property name="meta.media.0.codec.long_name">H.264 / AVC / MPEG-4 AVC / MPEG-4 part 10</property>
  <property name="meta.media.0.codec.bit_rate">12049603</property>
  <property name="meta.attr.0.stream.language.markup">eng</property>
  <property name="meta.attr.0.stream.handler_name.markup">Mainconcept Video Media Handler</property>
  <property name="meta.attr.0.stream.vendor_id.markup">[0][0][0][0]</property>
  <property name="meta.media.1.stream.type">audio</property>
  <property name="meta.media.1.codec.sample_fmt">fltp</property>
  <property name="meta.media.1.codec.sample_rate">48000</property>
  <property name="meta.media.1.codec.channels">2</property>
  <property name="meta.media.1.codec.layout">stereo</property>
  <property name="meta.media.1.codec.name">mp3float</property>
  <property name="meta.media.1.codec.long_name">MP3 (MPEG audio layer 3)</property>
  <property name="meta.media.1.codec.bit_rate">128013</property>
  <property name="meta.attr.1.stream.language.markup">eng</property>
  <property name="meta.attr.1.stream.handler_name.markup">#Mainconcept MP4 Sound Media Handler</property>
  <property name="meta.attr.1.stream.vendor_id.markup">[0][0][0][0]</property>
  <property name="meta.attr.major_brand.markup">isom</property>
  <property name="meta.attr.minor_version.markup">512</property>
  <property name="meta.attr.compatible_brands.markup">isomiso2avc1mp41</property>
  <property name="meta.attr.encoder.markup">Lavf58.45.100</property>
  <property name="seekable">1</property>
  <property name="meta.media.sample_aspect_num">1</property>
  <property name="meta.media.sample_aspect_den">1</property>
  <property name="format">3</property>
  <property name="audio_index">1</property>
  <property name="video_index">0</property>
  <property name="vstream">0</property>
  <property name="meta.media.frame_rate_num">30000</property>
  <property name="meta.media.frame_rate_den">1001</property>
  <property name="meta.media.colorspace">709</property>
  <property name="meta.media.color_trc">2</property>
  <property name="meta.media.has_b_frames">2</property>
  <property name="meta.media.width">1920</property>
  <property name="meta.media.height">1080</property>
  <property name="meta.media.aspect_ratio">1</property>
  <property name="meta.media.color_range">mpeg</property>
  <property name="astream">0</property>
  <property name="meta.media.top_field_first">0</property>
  <property name="meta.media.progressive">1</property>
  <property name="kdenlive:folderid">40</property>
  <property name="kdenlive:id">52</property>
  <property name="kdenlive:control_uuid">{28e04d97-ba00-47d8-950d-2a7c06a6a268}</property>
  <property name="mute_on_pause">0</property>
  <property name="kdenlive:clip_type">0</property>
  <property name="kdenlive:file_size">14028198</property>
  <property name="kdenlive:file_hash">11cb3f0d8edcb17ad640fabfdd715490</property>
  <property name="kdenlive:kextractor">1</property>
  <property name="kdenlive:meta.extractor.Bitrate:">12177 kb/s</property>
  <property name="kdenlive:monitorPosition">0</property>
 </chain>
 <chain id="chain45" out="00:00:16.667">
  <property name="length">501</property>
  <property name="eof">pause</property>
  <property name="resource">videos/1/philosophical.mp4</property>
  <property name="mlt_service">avformat-novalidate</property>
  <property name="meta.media.nb_streams">2</property>
  <property name="meta.media.0.stream.type">video</property>
  <property name="meta.media.0.stream.frame_rate">24</property>
  <property name="meta.media.0.stream.sample_aspect_ratio">1</property>
  <property name="meta.media.0.codec.width">1920</property>
  <property name="meta.media.0.codec.height">1080</property>
  <property name="meta.media.0.codec.rotate">0</property>
  <property name="meta.media.0.codec.pix_fmt">yuv420p</property>
  <property name="meta.media.0.codec.sample_aspect_ratio">1</property>
  <property name="meta.media.0.codec.colorspace">709</property>
  <property name="meta.media.0.codec.name">h264</property>
  <property name="meta.media.0.codec.long_name">H.264 / AVC / MPEG-4 AVC / MPEG-4 part 10</property>
  <property name="meta.media.0.codec.bit_rate">12011511</property>
  <property name="meta.attr.0.stream.handler_name.markup">Core Media Video</property>
  <property name="meta.attr.0.stream.vendor_id.markup">[0][0][0][0]</property>
  <property name="meta.attr.0.stream.timecode.markup">03:23:15:14</property>
  <property name="meta.attr.major_brand.markup">isom</property>
  <property name="meta.attr.minor_version.markup">512</property>
  <property name="meta.attr.compatible_brands.markup">isomiso2avc1mp41</property>
  <property name="meta.attr.encoder.markup">Lavf58.76.100</property>
  <property name="seekable">1</property>
  <property name="meta.media.sample_aspect_num">1</property>
  <property name="meta.media.sample_aspect_den">1</property>
  <property name="format">3</property>
  <property name="audio_index">-1</property>
  <property name="video_index">0</property>
  <property name="vstream">0</property>
  <property name="meta.media.frame_rate_num">24</property>
  <property name="meta.media.frame_rate_den">1</property>
  <property name="meta.media.colorspace">709</property>
  <property name="meta.media.color_trc">2</property>
  <property name="meta.media.has_b_frames">2</property>
  <property name="meta.media.width">1920</property>
  <property name="meta.media.height">1080</property>
  <property name="meta.media.aspect_ratio">1</property>
  <property name="meta.media.color_range">mpeg</property>
  <property name="meta.media.top_field_first">0</property>
  <property name="meta.media.progressive">1</property>
  <property name="kdenlive:folderid">40</property>
  <property name="kdenlive:id">53</property>
  <property name="kdenlive:control_uuid">{1875ea6e-8841-4f22-aeea-35f38e04913c}</property>
  <property name="mute_on_pause">0</property>
  <property name="kdenlive:clip_type">2</property>
  <property name="kdenlive:file_size">25093002</property>
  <property name="kdenlive:file_hash">431762d41f41ff0f646e10178ced4742</property>
  <property name="kdenlive:kextractor">1</property>
  <property name="kdenlive:meta.extractor.Bitrate:">12014 kb/s</property>
  <property name="kdenlive:monitorPosition">0</property>
 </chain>
 <chain id="chain46" out="00:00:09.567">
  <property name="length">288</property>
  <property name="eof">pause</property>
  <property name="resource">videos/1/diagnose-analyze.mp4</property>
  <property name="mlt_service">avformat-novalidate</property>
  <property name="meta.media.nb_streams">3</property>
  <property name="meta.media.0.stream.type">video</property>
  <property name="meta.media.0.stream.frame_rate">24</property>
  <property name="meta.media.0.stream.sample_aspect_ratio">1</property>
  <property name="meta.media.0.codec.width">1920</property>
  <property name="meta.media.0.codec.height">1080</property>
  <property name="meta.media.0.codec.rotate">0</property>
  <property name="meta.media.0.codec.pix_fmt">yuv420p</property>
  <property name="meta.media.0.codec.sample_aspect_ratio">1</property>
  <property name="meta.media.0.codec.colorspace">709</property>
  <property name="meta.media.0.codec.name">h264</property>
  <property name="meta.media.0.codec.long_name">H.264 / AVC / MPEG-4 AVC / MPEG-4 part 10</property>
  <property name="meta.media.0.codec.bit_rate">12051528</property>
  <property name="meta.attr.0.stream.language.markup">eng</property>
  <property name="meta.attr.0.stream.handler_name.markup">VideoHandler</property>
  <property name="meta.attr.0.stream.vendor_id.markup">[0][0][0][0]</property>
  <property name="meta.attr.0.stream.timecode.markup">00:00:00:00</property>
  <property name="meta.media.1.stream.type">audio</property>
  <property name="meta.media.1.codec.sample_fmt">fltp</property>
  <property name="meta.media.1.codec.sample_rate">48000</property>
  <property name="meta.media.1.codec.channels">2</property>
  <property name="meta.media.1.codec.layout">stereo</property>
  <property name="meta.media.1.codec.name">mp3float</property>
  <property name="meta.media.1.codec.long_name">MP3 (MPEG audio layer 3)</property>
  <property name="meta.media.1.codec.bit_rate">128013</property>
  <property name="meta.attr.1.stream.language.markup">eng</property>
  <property name="meta.attr.1.stream.handler_name.markup">SoundHandler</property>
  <property name="meta.attr.1.stream.vendor_id.markup">[0][0][0][0]</property>
  <property name="meta.attr.major_brand.markup">isom</property>
  <property name="meta.attr.minor_version.markup">512</property>
  <property name="meta.attr.compatible_brands.markup">isomiso2avc1mp41</property>
  <property name="meta.attr.encoder.markup">Lavf58.45.100</property>
  <property name="seekable">1</property>
  <property name="meta.media.sample_aspect_num">1</property>
  <property name="meta.media.sample_aspect_den">1</property>
  <property name="format">3</property>
  <property name="audio_index">1</property>
  <property name="video_index">0</property>
  <property name="vstream">0</property>
  <property name="meta.media.frame_rate_num">24</property>
  <property name="meta.media.frame_rate_den">1</property>
  <property name="meta.media.colorspace">709</property>
  <property name="meta.media.color_trc">2</property>
  <property name="meta.media.has_b_frames">2</property>
  <property name="meta.media.width">1920</property>
  <property name="meta.media.height">1080</property>
  <property name="meta.media.aspect_ratio">1</property>
  <property name="meta.media.color_range">mpeg</property>
  <property name="astream">0</property>
  <property name="meta.media.top_field_first">0</property>
  <property name="meta.media.progressive">1</property>
  <property name="kdenlive:folderid">40</property>
  <property name="kdenlive:id">55</property>
  <property name="kdenlive:control_uuid">{fedf5b37-c41b-488b-a72c-baaada517d23}</property>
  <property name="mute_on_pause">0</property>
  <property name="kdenlive:clip_type">0</property>
  <property name="kdenlive:file_size">14598540</property>
  <property name="kdenlive:file_hash">ead9b7c79b5e64da8356cce18ca52c8a</property>
  <property name="kdenlive:kextractor">1</property>
  <property name="kdenlive:meta.extractor.Bitrate:">12165 kb/s</property>
  <property name="kdenlive:monitorPosition">0</property>
 </chain>
 <chain id="chain47" out="00:00:08.767">
  <property name="length">264</property>
  <property name="eof">pause</property>
  <property name="resource">videos/1/mirroring.mp4</property>
  <property name="mlt_service">avformat-novalidate</property>
  <property name="meta.media.nb_streams">2</property>
  <property name="meta.media.0.stream.type">video</property>
  <property name="meta.media.0.stream.frame_rate">30</property>
  <property name="meta.media.0.stream.sample_aspect_ratio">1</property>
  <property name="meta.media.0.codec.width">1920</property>
  <property name="meta.media.0.codec.height">1080</property>
  <property name="meta.media.0.codec.rotate">0</property>
  <property name="meta.media.0.codec.pix_fmt">yuv420p</property>
  <property name="meta.media.0.codec.sample_aspect_ratio">1</property>
  <property name="meta.media.0.codec.colorspace">709</property>
  <property name="meta.media.0.codec.name">h264</property>
  <property name="meta.media.0.codec.long_name">H.264 / AVC / MPEG-4 AVC / MPEG-4 part 10</property>
  <property name="meta.media.0.codec.bit_rate">14173603</property>
  <property name="meta.attr.0.stream.language.markup">eng</property>
  <property name="meta.attr.0.stream.handler_name.markup">Apple Video Media Handler</property>
  <property name="meta.attr.0.stream.vendor_id.markup">[0][0][0][0]</property>
  <property name="meta.attr.0.stream.timecode.markup">00:00:00:00</property>
  <property name="meta.attr.major_brand.markup">isom</property>
  <property name="meta.attr.minor_version.markup">512</property>
  <property name="meta.attr.compatible_brands.markup">isomiso2avc1mp41</property>
  <property name="meta.attr.encoder.markup">Lavf58.45.100</property>
  <property name="seekable">1</property>
  <property name="meta.media.sample_aspect_num">1</property>
  <property name="meta.media.sample_aspect_den">1</property>
  <property name="format">3</property>
  <property name="audio_index">-1</property>
  <property name="video_index">0</property>
  <property name="vstream">0</property>
  <property name="meta.media.frame_rate_num">30</property>
  <property name="meta.media.frame_rate_den">1</property>
  <property name="meta.media.colorspace">709</property>
  <property name="meta.media.color_trc">2</property>
  <property name="meta.media.has_b_frames">2</property>
  <property name="meta.media.width">1920</property>
  <property name="meta.media.height">1080</property>
  <property name="meta.media.aspect_ratio">1</property>
  <property name="meta.media.color_range">mpeg</property>
  <property name="meta.media.top_field_first">0</property>
  <property name="meta.media.progressive">1</property>
  <property name="kdenlive:folderid">40</property>
  <property name="kdenlive:id">59</property>
  <property name="kdenlive:control_uuid">{99e45cb5-9c05-4560-8b4e-7623771bbd88}</property>
  <property name="mute_on_pause">0</property>
  <property name="kdenlive:clip_type">2</property>
  <property name="kdenlive:file_size">15595702</property>
  <property name="kdenlive:file_hash">e4d264c5409455f757102286a56010a6</property>
  <property name="kdenlive:kextractor">1</property>
  <property name="kdenlive:meta.extractor.Bitrate:">14177 kb/s</property>
  <property name="kdenlive:monitorPosition">0</property>
 </chain>
 <chain id="chain48" out="00:01:39.333">
  <property name="length">2981</property>
  <property name="eof">pause</property>
  <property name="resource">videos/1/science-and-society.mp4</property>
  <property name="mlt_service">avformat-novalidate</property>
  <property name="meta.media.nb_streams">1</property>
  <property name="meta.media.0.stream.type">video</property>
  <property name="meta.media.0.stream.frame_rate">25</property>
  <property name="meta.media.0.stream.sample_aspect_ratio">0</property>
  <property name="meta.media.0.codec.width">1920</property>
  <property name="meta.media.0.codec.height">1080</property>
  <property name="meta.media.0.codec.rotate">0</property>
  <property name="meta.media.0.codec.pix_fmt">yuv420p</property>
  <property name="meta.media.0.codec.sample_aspect_ratio">0</property>
  <property name="meta.media.0.codec.colorspace">709</property>
  <property name="meta.media.0.codec.color_trc">1</property>
  <property name="meta.media.0.codec.name">h264</property>
  <property name="meta.media.0.codec.long_name">H.264 / AVC / MPEG-4 AVC / MPEG-4 part 10</property>
  <property name="meta.media.0.codec.bit_rate">3538103</property>
  <property name="meta.attr.0.stream.creation_time.markup">2021-06-24T08:22:33.000000Z</property>
  <property name="meta.attr.0.stream.handler_name.markup">L-SMASH Video Handler</property>
  <property name="meta.attr.0.stream.vendor_id.markup">[0][0][0][0]</property>
  <property name="meta.attr.0.stream.encoder.markup">AVC Coding</property>
  <property name="meta.attr.major_brand.markup">mp42</property>
  <property name="meta.attr.minor_version.markup">0</property>
  <property name="meta.attr.compatible_brands.markup">mp42mp41isomavc1</property>
  <property name="meta.attr.creation_time.markup">2021-06-24T08:22:33.000000Z</property>
  <property name="seekable">1</property>
  <property name="meta.media.sample_aspect_num">1</property>
  <property name="meta.media.sample_aspect_den">1</property>
  <property name="format">3</property>
  <property name="audio_index">-1</property>
  <property name="video_index">0</property>
  <property name="vstream">0</property>
  <property name="meta.media.frame_rate_num">25</property>
  <property name="meta.media.frame_rate_den">1</property>
  <property name="meta.media.colorspace">709</property>
  <property name="meta.media.color_trc">1</property>
  <property name="meta.media.has_b_frames">2</property>
  <property name="meta.media.width">1920</property>
  <property name="meta.media.height">1080</property>
  <property name="meta.media.aspect_ratio">1</property>
  <property name="meta.media.color_range">mpeg</property>
  <property name="meta.media.top_field_first">0</property>
  <property name="meta.media.progressive">1</property>
  <property name="kdenlive:folderid">40</property>
  <property name="kdenlive:id">60</property>
  <property name="kdenlive:control_uuid">{42cfc699-7b48-45f9-ab55-a281f9a68bc3}</property>
  <property name="mute_on_pause">0</property>
  <property name="kdenlive:clip_type">2</property>
  <property name="kdenlive:file_size">43976745</property>
  <property name="kdenlive:file_hash">2d7aaf3e5327ae04e47310efe6b23fb9</property>
  <property name="kdenlive:kextractor">1</property>
  <property name="kdenlive:meta.extractor.Bitrate:">3540 kb/s</property>
  <property name="kdenlive:monitorPosition">0</property>
 </chain>
 <chain id="chain49" out="00:00:48.367">
  <property name="length">1452</property>
  <property name="eof">pause</property>
  <property name="resource">videos/2/2.mp4</property>
  <property name="mlt_service">avformat-novalidate</property>
  <property name="meta.media.nb_streams">3</property>
  <property name="meta.media.0.stream.type">video</property>
  <property name="meta.media.0.stream.frame_rate">30</property>
  <property name="meta.media.0.stream.sample_aspect_ratio">1</property>
  <property name="meta.media.0.codec.width">3840</property>
  <property name="meta.media.0.codec.height">2160</property>
  <property name="meta.media.0.codec.rotate">0</property>
  <property name="meta.media.0.codec.pix_fmt">yuv420p</property>
  <property name="meta.media.0.codec.sample_aspect_ratio">0</property>
  <property name="meta.media.0.codec.colorspace">709</property>
  <property name="meta.media.0.codec.color_trc">1</property>
  <property name="meta.media.0.codec.name">h264</property>
  <property name="meta.media.0.codec.long_name">H.264 / AVC / MPEG-4 AVC / MPEG-4 part 10</property>
  <property name="meta.media.0.codec.bit_rate">14623915</property>
  <property name="meta.attr.0.stream.creation_time.markup">2026-02-12T10:48:13.000000Z</property>
  <property name="meta.attr.0.stream.handler_name.markup">VideoHandler</property>
  <property name="meta.attr.0.stream.vendor_id.markup">[0][0][0][0]</property>
  <property name="meta.attr.0.stream.encoder.markup">H.264</property>
  <property name="meta.attr.0.stream.timecode.markup">01:00:00:00</property>
  <property name="meta.media.1.stream.type">audio</property>
  <property name="meta.media.1.codec.sample_fmt">fltp</property>
  <property name="meta.media.1.codec.sample_rate">48000</property>
  <property name="meta.media.1.codec.channels">2</property>
  <property name="meta.media.1.codec.layout">stereo</property>
  <property name="meta.media.1.codec.name">aac</property>
  <property name="meta.media.1.codec.long_name">AAC (Advanced Audio Coding)</property>
  <property name="meta.media.1.codec.bit_rate">320000</property>
  <property name="meta.attr.1.stream.creation_time.markup">2026-02-12T10:48:13.000000Z</property>
  <property name="meta.attr.1.stream.handler_name.markup">SoundHandler</property>
  <property name="meta.attr.1.stream.vendor_id.markup">[0][0][0][0]</property>
  <property name="meta.attr.major_brand.markup">isom</property>
  <property name="meta.attr.minor_version.markup">512</property>
  <property name="meta.attr.compatible_brands.markup">isomiso2avc1mp41</property>
  <property name="meta.attr.creation_time.markup">2026-02-12T10:48:13.000000Z</property>
  <property name="meta.attr.encoder.markup">Blackmagic Design DaVinci Resolve</property>
  <property name="seekable">1</property>
  <property name="meta.media.sample_aspect_num">1</property>
  <property name="meta.media.sample_aspect_den">1</property>
  <property name="format">3</property>
  <property name="audio_index">1</property>
  <property name="video_index">0</property>
  <property name="vstream">0</property>
  <property name="meta.media.frame_rate_num">30</property>
  <property name="meta.media.frame_rate_den">1</property>
  <property name="meta.media.colorspace">709</property>
  <property name="meta.media.color_trc">1</property>
  <property name="meta.media.has_b_frames">1</property>
  <property name="meta.media.width">3840</property>
  <property name="meta.media.height">2160</property>
  <property name="meta.media.aspect_ratio">1</property>
  <property name="meta.media.color_range">mpeg</property>
  <property name="astream">0</property>
  <property name="meta.media.top_field_first">0</property>
  <property name="meta.media.progressive">1</property>
  <property name="kdenlive:folderid">61</property>
  <property name="kdenlive:id">62</property>
  <property name="kdenlive:control_uuid">{45e6b4dd-b807-4544-842f-0bd484f82319}</property>
  <property name="mute_on_pause">0</property>
  <property name="kdenlive:clip_type">0</property>
  <property name="kdenlive:file_size">90375834</property>
  <property name="kdenlive:file_hash">6b0f90250bc91a4af9c4c2a493f5495d</property>
  <property name="kdenlive:kextractor">1</property>
  <property name="kdenlive:meta.extractor.Bitrate:">14943 kb/s</property>
  <property name="kdenlive:monitorPosition">0</property>
 </chain>
 <producer id="producer44" in="00:00:00.000" out="00:00:23.200">
  <property name="length">697</property>
  <property name="eof">pause</property>
  <property name="resource"/>
  <property name="meta.media.progressive">1</property>
  <property name="aspect_ratio">1</property>
  <property name="seekable">1</property>
  <property name="mlt_service">kdenlivetitle</property>
  <property name="kdenlive:duration">00:00:08.000</property>
  <property name="kdenlive:clipname">“A theory is...</property>
  <property name="xmldata">&lt;kdenlivetitle LC_NUMERIC="C" duration="240" height="1080" out="239" width="1920">
 &lt;item type="QGraphicsTextItem" z-index="1001">
  &lt;position x="166" y="652">
   &lt;transform>1,0,0,0,1,0,0,0,1&lt;/transform>
  &lt;/position>
  &lt;content alignment="1" box-height="300" box-width="1597.19" font="Ubuntu Sans" font-color="255,255,255,255" font-italic="0" font-outline="5" font-outline-color="0,0,0,255" font-pixel-size="50" font-underline="0" font-weight="700" letter-spacing="10" line-spacing="0" shadow="0;#64000000;3;3;3" tab-width="80" typewriter="1;2;1;0;0">“A theory is scientific only if it is falsifiable — 
if it makes predictions that can be tested and 
potentially proven wrong.”
									
														— Karl Popper&lt;/content>
 &lt;/item>
 &lt;startviewport rect="0,0,1920,1080"/>
 &lt;endviewport rect="0,0,1920,1080"/>
 &lt;background color="0,0,0,0"/>
&lt;/kdenlivetitle>
</property>
  <property name="xml">was here</property>
  <property name="kdenlive:folderid">50</property>
  <property name="kdenlive:id">63</property>
  <property name="kdenlive:clip_type">2</property>
  <property name="kdenlive:file_hash">84345673f316b99a6f7e24843f43c4e9</property>
  <property name="force_reload">0</property>
  <property name="kdenlive:monitorPosition">88</property>
  <property name="kdenlive:control_uuid">{7886a307-b487-4ef1-9f8d-a263ec0e4297}</property>
  <property name="kdenlive:uniqueId">{6263546c-a36b-4f1b-a3b2-115a51ebc228}</property>
  <property name="meta.media.width">1920</property>
  <property name="meta.media.height">1080</property>
 </producer>
 <producer id="producer45" in="00:00:00.000" out="00:00:12.867">
  <property name="length">387</property>
  <property name="eof">pause</property>
  <property name="resource">videos/2/popper1.jpg</property>
  <property name="ttl">25</property>
  <property name="aspect_ratio">1</property>
  <property name="meta.media.progressive">1</property>
  <property name="seekable">1</property>
  <property name="format">1</property>
  <property name="meta.media.width">780</property>
  <property name="meta.media.height">330</property>
  <property name="mlt_service">qimage</property>
  <property name="kdenlive:duration">00:00:05:00</property>
  <property name="xml">was here</property>
  <property name="kdenlive:folderid">61</property>
  <property name="kdenlive:id">65</property>
  <property name="kdenlive:control_uuid">{438e6642-5925-4037-a1e1-4b26c6524267}</property>
  <property name="kdenlive:clip_type">2</property>
  <property name="kdenlive:file_size">43599</property>
  <property name="kdenlive:file_hash">6897426fe94ed7b5c8aed08ecbc49751</property>
  <property name="kdenlive:kextractor">1</property>
  <property name="kdenlive:monitorPosition">0</property>
 </producer>
 <chain id="chain50" out="00:00:41.967">
  <property name="length">1260</property>
  <property name="eof">pause</property>
  <property name="resource">videos/4/4.mp4</property>
  <property name="mlt_service">avformat-novalidate</property>
  <property name="meta.media.nb_streams">3</property>
  <property name="meta.media.0.stream.type">video</property>
  <property name="meta.media.0.stream.frame_rate">25</property>
  <property name="meta.media.0.stream.sample_aspect_ratio">1</property>
  <property name="meta.media.0.codec.width">3840</property>
  <property name="meta.media.0.codec.height">2160</property>
  <property name="meta.media.0.codec.rotate">0</property>
  <property name="meta.media.0.codec.pix_fmt">yuv420p</property>
  <property name="meta.media.0.codec.sample_aspect_ratio">0</property>
  <property name="meta.media.0.codec.colorspace">709</property>
  <property name="meta.media.0.codec.color_trc">1</property>
  <property name="meta.media.0.codec.name">h264</property>
  <property name="meta.media.0.codec.long_name">H.264 / AVC / MPEG-4 AVC / MPEG-4 part 10</property>
  <property name="meta.media.0.codec.bit_rate">14105000</property>
  <property name="meta.attr.0.stream.creation_time.markup">2026-02-12T11:07:12.000000Z</property>
  <property name="meta.attr.0.stream.handler_name.markup">VideoHandler</property>
  <property name="meta.attr.0.stream.vendor_id.markup">[0][0][0][0]</property>
  <property name="meta.attr.0.stream.encoder.markup">H.264</property>
  <property name="meta.attr.0.stream.timecode.markup">01:00:00:00</property>
  <property name="meta.media.1.stream.type">audio</property>
  <property name="meta.media.1.codec.sample_fmt">fltp</property>
  <property name="meta.media.1.codec.sample_rate">48000</property>
  <property name="meta.media.1.codec.channels">2</property>
  <property name="meta.media.1.codec.layout">stereo</property>
  <property name="meta.media.1.codec.name">aac</property>
  <property name="meta.media.1.codec.long_name">AAC (Advanced Audio Coding)</property>
  <property name="meta.media.1.codec.bit_rate">320000</property>
  <property name="meta.attr.1.stream.creation_time.markup">2026-02-12T11:07:12.000000Z</property>
  <property name="meta.attr.1.stream.handler_name.markup">SoundHandler</property>
  <property name="meta.attr.1.stream.vendor_id.markup">[0][0][0][0]</property>
  <property name="meta.attr.major_brand.markup">isom</property>
  <property name="meta.attr.minor_version.markup">512</property>
  <property name="meta.attr.compatible_brands.markup">isomiso2avc1mp41</property>
  <property name="meta.attr.creation_time.markup">2026-02-12T11:07:12.000000Z</property>
  <property name="meta.attr.encoder.markup">Blackmagic Design DaVinci Resolve</property>
  <property name="seekable">1</property>
  <property name="meta.media.sample_aspect_num">1</property>
  <property name="meta.media.sample_aspect_den">1</property>
  <property name="format">3</property>
  <property name="audio_index">1</property>
  <property name="video_index">0</property>
  <property name="vstream">0</property>
  <property name="meta.media.frame_rate_num">25</property>
  <property name="meta.media.frame_rate_den">1</property>
  <property name="meta.media.colorspace">709</property>
  <property name="meta.media.color_trc">1</property>
  <property name="meta.media.has_b_frames">1</property>
  <property name="meta.media.width">3840</property>
  <property name="meta.media.height">2160</property>
  <property name="meta.media.aspect_ratio">1</property>
  <property name="meta.media.color_range">mpeg</property>
  <property name="astream">0</property>
  <property name="meta.media.top_field_first">0</property>
  <property name="meta.media.progressive">1</property>
  <property name="kdenlive:folderid">66</property>
  <property name="kdenlive:id">68</property>
  <property name="kdenlive:control_uuid">{3e97ab2a-86e8-41d6-8848-09ae0058fc55}</property>
  <property name="mute_on_pause">0</property>
  <property name="kdenlive:clip_type">0</property>
  <property name="kdenlive:file_size">75752458</property>
  <property name="kdenlive:file_hash">00d91561552a606f79b48a741f8f7c1a</property>
  <property name="kdenlive:kextractor">1</property>
  <property name="kdenlive:meta.extractor.Bitrate:">14427 kb/s</property>
  <property name="kdenlive:monitorPosition">0</property>
 </chain>
 <chain id="chain51" out="00:00:40.300">
  <property name="length">1210</property>
  <property name="eof">pause</property>
  <property name="resource">videos/6/6.mp4</property>
  <property name="mlt_service">avformat-novalidate</property>
  <property name="meta.media.nb_streams">3</property>
  <property name="meta.media.0.stream.type">video</property>
  <property name="meta.media.0.stream.frame_rate">30</property>
  <property name="meta.media.0.stream.sample_aspect_ratio">1</property>
  <property name="meta.media.0.codec.width">3840</property>
  <property name="meta.media.0.codec.height">2160</property>
  <property name="meta.media.0.codec.rotate">0</property>
  <property name="meta.media.0.codec.pix_fmt">yuv420p</property>
  <property name="meta.media.0.codec.sample_aspect_ratio">0</property>
  <property name="meta.media.0.codec.colorspace">709</property>
  <property name="meta.media.0.codec.color_trc">1</property>
  <property name="meta.media.0.codec.name">h264</property>
  <property name="meta.media.0.codec.long_name">H.264 / AVC / MPEG-4 AVC / MPEG-4 part 10</property>
  <property name="meta.media.0.codec.bit_rate">15149363</property>
  <property name="meta.attr.0.stream.creation_time.markup">2026-02-12T11:29:02.000000Z</property>
  <property name="meta.attr.0.stream.handler_name.markup">VideoHandler</property>
  <property name="meta.attr.0.stream.vendor_id.markup">[0][0][0][0]</property>
  <property name="meta.attr.0.stream.encoder.markup">H.264</property>
  <property name="meta.attr.0.stream.timecode.markup">01:00:00:00</property>
  <property name="meta.media.1.stream.type">audio</property>
  <property name="meta.media.1.codec.sample_fmt">fltp</property>
  <property name="meta.media.1.codec.sample_rate">48000</property>
  <property name="meta.media.1.codec.channels">2</property>
  <property name="meta.media.1.codec.layout">stereo</property>
  <property name="meta.media.1.codec.name">aac</property>
  <property name="meta.media.1.codec.long_name">AAC (Advanced Audio Coding)</property>
  <property name="meta.media.1.codec.bit_rate">320000</property>
  <property name="meta.attr.1.stream.creation_time.markup">2026-02-12T11:29:02.000000Z</property>
  <property name="meta.attr.1.stream.handler_name.markup">SoundHandler</property>
  <property name="meta.attr.1.stream.vendor_id.markup">[0][0][0][0]</property>
  <property name="meta.attr.major_brand.markup">isom</property>
  <property name="meta.attr.minor_version.markup">512</property>
  <property name="meta.attr.compatible_brands.markup">isomiso2avc1mp41</property>
  <property name="meta.attr.creation_time.markup">2026-02-12T11:29:02.000000Z</property>
  <property name="meta.attr.encoder.markup">Blackmagic Design DaVinci Resolve</property>
  <property name="seekable">1</property>
  <property name="meta.media.sample_aspect_num">1</property>
  <property name="meta.media.sample_aspect_den">1</property>
  <property name="format">3</property>
  <property name="audio_index">1</property>
  <property name="video_index">0</property>
  <property name="vstream">0</property>
  <property name="meta.media.frame_rate_num">30</property>
  <property name="meta.media.frame_rate_den">1</property>
  <property name="meta.media.colorspace">709</property>
  <property name="meta.media.color_trc">1</property>
  <property name="meta.media.has_b_frames">1</property>
  <property name="meta.media.width">3840</property>
  <property name="meta.media.height">2160</property>
  <property name="meta.media.aspect_ratio">1</property>
  <property name="meta.media.color_range">mpeg</property>
  <property name="astream">0</property>
  <property name="meta.media.top_field_first">0</property>
  <property name="meta.media.progressive">1</property>
  <property name="kdenlive:folderid">67</property>
  <property name="kdenlive:id">69</property>
  <property name="kdenlive:control_uuid">{9cf69388-b4a9-43fb-8fe3-9a378b7794d4}</property>
  <property name="mute_on_pause">0</property>
  <property name="kdenlive:clip_type">0</property>
  <property name="kdenlive:file_size">78014330</property>
  <property name="kdenlive:file_hash">f87af01fecc2881f7144a39f7790926f</property>
  <property name="kdenlive:kextractor">1</property>
  <property name="kdenlive:meta.extractor.Bitrate:">15470 kb/s</property>
  <property name="kdenlive:monitorPosition">0</property>
 </chain>
 <playlist id="main_bin">
  <property name="kdenlive:folder.-1.2">Sequences</property>
  <property name="kdenlive:folder.-1.15">additional-3-videos</property>
  <property name="kdenlive:folder.-1.19">first-7-videos</property>
  <property name="kdenlive:folder.-1.27">7-audios</property>
  <property name="kdenlive:folder.-1.37">sound-effects</property>
  <property name="kdenlive:folder.-1.50">Text</property>
  <property name="kdenlive:folder.-1.35">sounds</property>
  <property name="kdenlive:folder.-1.39">videos</property>
  <property name="kdenlive:folder.39.40">1</property>
  <property name="kdenlive:sequenceFolder">2</property>
  <property name="kdenlive:docproperties.activetimeline">{7beb0241-7c06-4d1f-89cb-be4e9ad332ec}</property>
  <property name="kdenlive:docproperties.audioChannels">2</property>
  <property name="kdenlive:docproperties.binsort">0</property>
  <property name="kdenlive:docproperties.browserurl">/home/ansinitro/Videos/</property>
  <property name="kdenlive:docproperties.documentid">1770845613507</property>
  <property name="kdenlive:docproperties.enableTimelineZone">0</property>
  <property name="kdenlive:docproperties.enableexternalproxy">0</property>
  <property name="kdenlive:docproperties.enableproxy">1</property>
  <property name="kdenlive:docproperties.externalproxyparams">./;;.LRV;./;;.MP4</property>
  <property name="kdenlive:docproperties.generateimageproxy">0</property>
  <property name="kdenlive:docproperties.generateproxy">0</property>
  <property name="kdenlive:docproperties.guidesCategories">[
    {
        "color": "#9b59b6",
        "comment": "Category 1",
        "index": 0
    },
    {
        "color": "#3daee9",
        "comment": "Category 2",
        "index": 1
    },
    {
        "color": "#1abc9c",
        "comment": "Category 3",
        "index": 2
    },
    {
        "color": "#1cdc9a",
        "comment": "Category 4",
        "index": 3
    },
    {
        "color": "#c9ce3b",
        "comment": "Category 5",
        "index": 4
    },
    {
        "color": "#fdbc4b",
        "comment": "Category 6",
        "index": 5
    },
    {
        "color": "#f39c1f",
        "comment": "Category 7",
        "index": 6
    },
    {
        "color": "#f47750",
        "comment": "Category 8",
        "index": 7
    },
    {
        "color": "#da4453",
        "comment": "Category 9",
        "index": 8
    }
]
</property>
  <property name="kdenlive:docproperties.kdenliveversion">25.12.2</property>
  <property name="kdenlive:docproperties.opensequences">{7beb0241-7c06-4d1f-89cb-be4e9ad332ec}</property>
  <property name="kdenlive:docproperties.previewextension"/>
  <property name="kdenlive:docproperties.previewparameters"/>
  <property name="kdenlive:docproperties.profile">atsc_1080p_30</property>
  <property name="kdenlive:docproperties.proxyextension"/>
  <property name="kdenlive:docproperties.proxyimageminsize">2000</property>
  <property name="kdenlive:docproperties.proxyimagesize">800</property>
  <property name="kdenlive:docproperties.proxyminsize">1000</property>
  <property name="kdenlive:docproperties.proxyparams"/>
  <property name="kdenlive:docproperties.proxyresize">720</property>
  <property name="kdenlive:docproperties.seekOffset">30000</property>
  <property name="kdenlive:docproperties.sessionid">{9daaa632-16e7-4628-a05c-aa099c7ec345}</property>
  <property name="kdenlive:docproperties.uuid">{7beb0241-7c06-4d1f-89cb-be4e9ad332ec}</property>
  <property name="kdenlive:docproperties.version">1.1</property>
  <property name="kdenlive:expandedFolders">66;50;67;39;61</property>
  <property name="kdenlive:binZoom">0</property>
  <property name="kdenlive:extraBins">project_bin:-1:0</property>
  <property name="kdenlive:documentnotes"/>
  <property name="kdenlive:documentnotesversion">2</property>
  <property name="kdenlive:docproperties.layout">{
    "allDockWidgets": [
        {
            "lastCloseReason": 0,
            "lastPosition": {
                "lastFloatingGeometry": {
                    "height": 0,
                    "width": 0,
                    "x": 0,
                    "y": 0
                },
                "lastOverlayedGeometries": [],
                "placeholders": [
                    {
                        "isFloatingWindow": false,
                        "itemIndex": 11,
                        "mainWindowUniqueName": "KdenliveKDDock"
                    }
                ],
                "tabIndex": -1,
                "wasFloating": false
            },
            "uniqueName": "timeline"
        },
        {
            "lastCloseReason": 0,
            "lastPosition": {
                "lastFloatingGeometry": {
                    "height": 0,
                    "width": 0,
                    "x": 0,
                    "y": 0
                },
                "lastOverlayedGeometries": [],
                "placeholders": [
                    {
                        "isFloatingWindow": false,
                        "itemIndex": 2,
                        "mainWindowUniqueName": "KdenliveKDDock"
                    }
                ],
                "tabIndex": 0,
                "wasFloating": false
            },
            "uniqueName": "project_bin"
        },
        {
            "lastCloseReason": 2,
            "lastPosition": {
                "lastFloatingGeometry": {
                    "height": 0,
                    "width": 0,
                    "x": 0,
                    "y": 0
                },
                "lastOverlayedGeometries": [],
                "placeholders": [
                    {
                        "isFloatingWindow": false,
                        "itemIndex": 3,
                        "mainWindowUniqueName": "KdenliveKDDock"
                    }
                ],
                "tabIndex": 3,
                "wasFloating": false
            },
            "uniqueName": "library"
        },
        {
            "lastCloseReason": 2,
            "lastPosition": {
                "lastFloatingGeometry": {
                    "height": 0,
                    "width": 0,
                    "x": 0,
                    "y": 0
                },
                "lastOverlayedGeometries": [],
                "placeholders": [
                    {
                        "isFloatingWindow": false,
                        "itemIndex": 12,
                        "mainWindowUniqueName": "KdenliveKDDock"
                    }
                ],
                "tabIndex": 2,
                "wasFloating": false
            },
            "uniqueName": "subtitles"
        },
        {
            "lastCloseReason": 2,
            "lastPosition": {
                "lastFloatingGeometry": {
                    "height": 0,
                    "width": 0,
                    "x": 0,
                    "y": 0
                },
                "lastOverlayedGeometries": [],
                "placeholders": [
                    {
                        "isFloatingWindow": false,
                        "itemIndex": 4,
                        "mainWindowUniqueName": "KdenliveKDDock"
                    }
                ],
                "tabIndex": 2,
                "wasFloating": false
            },
            "uniqueName": "textedit"
        },
        {
            "lastCloseReason": 2,
            "lastPosition": {
                "lastFloatingGeometry": {
                    "height": 0,
                    "width": 0,
                    "x": 0,
                    "y": 0
                },
                "lastOverlayedGeometries": [],
                "placeholders": [
                    {
                        "isFloatingWindow": false,
                        "itemIndex": 12,
                        "mainWindowUniqueName": "KdenliveKDDock"
                    }
                ],
                "tabIndex": 2,
                "wasFloating": false
            },
            "uniqueName": "timeremap"
        },
        {
            "lastCloseReason": 2,
            "lastPosition": {
                "lastFloatingGeometry": {
                    "height": 0,
                    "width": 0,
                    "x": 0,
                    "y": 0
                },
                "lastOverlayedGeometries": [],
                "placeholders": [
                    {
                        "isFloatingWindow": false,
                        "itemIndex": 2,
                        "mainWindowUniqueName": "KdenliveKDDock"
                    }
                ],
                "tabIndex": 2,
                "wasFloating": false
            },
            "uniqueName": "markers"
        },
        {
            "lastCloseReason": 1,
            "lastPosition": {
                "lastFloatingGeometry": {
                    "height": 0,
                    "width": 0,
                    "x": 0,
                    "y": 0
                },
                "lastOverlayedGeometries": [],
                "placeholders": [
                    {
                        "isFloatingWindow": false,
                        "itemIndex": 0,
                        "mainWindowUniqueName": "KdenliveKDDock"
                    }
                ],
                "tabIndex": 0,
                "wasFloating": false
            },
            "uniqueName": "screengrab"
        },
        {
            "lastCloseReason": 2,
            "lastPosition": {
                "lastFloatingGeometry": {
                    "height": 0,
                    "width": 0,
                    "x": 0,
                    "y": 0
                },
                "lastOverlayedGeometries": [],
                "placeholders": [
                    {
                        "isFloatingWindow": false,
                        "itemIndex": 1,
                        "mainWindowUniqueName": "KdenliveKDDock"
                    }
                ],
                "tabIndex": 0,
                "wasFloating": false
            },
            "uniqueName": "audiospectrum"
        },
        {
            "lastCloseReason": 0,
            "lastPosition": {
                "lastFloatingGeometry": {
                    "height": 0,
                    "width": 0,
                    "x": 0,
                    "y": 0
                },
                "lastOverlayedGeometries": [],
                "placeholders": [
                    {
                        "isFloatingWindow": false,
                        "itemIndex": 3,
                        "mainWindowUniqueName": "KdenliveKDDock"
                    }
                ],
                "tabIndex": 0,
                "wasFloating": false
            },
            "uniqueName": "clipmonitor"
        },
        {
            "lastCloseReason": 2,
            "lastPosition": {
                "lastFloatingGeometry": {
                    "height": 0,
                    "width": 0,
                    "x": 0,
                    "y": 0
                },
                "lastOverlayedGeometries": [],
                "placeholders": [
                    {
                        "isFloatingWindow": false,
                        "itemIndex": 4,
                        "mainWindowUniqueName": "KdenliveKDDock"
                    }
                ],
                "tabIndex": 1,
                "wasFloating": false
            },
            "uniqueName": "projectmonitor"
        },
        {
            "lastCloseReason": 0,
            "lastPosition": {
                "lastFloatingGeometry": {
                    "height": 0,
                    "width": 0,
                    "x": 0,
                    "y": 0
                },
                "lastOverlayedGeometries": [],
                "placeholders": [
                    {
                        "isFloatingWindow": false,
                        "itemIndex": 2,
                        "mainWindowUniqueName": "KdenliveKDDock"
                    }
                ],
                "tabIndex": 1,
                "wasFloating": false
            },
            "uniqueName": "clip_properties"
        },
        {
            "lastCloseReason": 2,
            "lastPosition": {
                "lastFloatingGeometry": {
                    "height": 0,
                    "width": 0,
                    "x": 0,
                    "y": 0
                },
                "lastOverlayedGeometries": [],
                "placeholders": [
                    {
                        "isFloatingWindow": false,
                        "itemIndex": 4,
                        "mainWindowUniqueName": "KdenliveKDDock"
                    }
                ],
                "tabIndex": 4,
                "wasFloating": false
            },
            "uniqueName": "notes_widget"
        },
        {
            "lastCloseReason": 2,
            "lastPosition": {
                "lastFloatingGeometry": {
                    "height": 0,
                    "width": 0,
                    "x": 0,
                    "y": 0
                },
                "lastOverlayedGeometries": [],
                "placeholders": [
                    {
                        "isFloatingWindow": false,
                        "itemIndex": 9,
                        "mainWindowUniqueName": "KdenliveKDDock"
                    }
                ],
                "tabIndex": 0,
                "wasFloating": false
            },
            "uniqueName": "media_browser"
        },
        {
            "lastCloseReason": 2,
            "lastPosition": {
                "lastFloatingGeometry": {
                    "height": 0,
                    "width": 0,
                    "x": 0,
                    "y": 0
                },
                "lastOverlayedGeometries": [],
                "placeholders": [
                    {
                        "isFloatingWindow": false,
                        "itemIndex": 10,
                        "mainWindowUniqueName": "KdenliveKDDock"
                    }
                ],
                "tabIndex": 0,
                "wasFloating": false
            },
            "uniqueName": "onlineresources"
        },
        {
            "lastCloseReason": 0,
            "lastPosition": {
                "lastFloatingGeometry": {
                    "height": 0,
                    "width": 0,
                    "x": 0,
                    "y": 0
                },
                "lastOverlayedGeometries": [],
                "placeholders": [
                    {
                        "isFloatingWindow": false,
                        "itemIndex": 12,
                        "mainWindowUniqueName": "KdenliveKDDock"
                    }
                ],
                "tabIndex": 1,
                "wasFloating": false
            },
            "uniqueName": "effect_stack"
        },
        {
            "lastCloseReason": 2,
            "lastPosition": {
                "lastFloatingGeometry": {
                    "height": 0,
                    "width": 0,
                    "x": 0,
                    "y": 0
                },
                "lastOverlayedGeometries": [],
                "placeholders": [
                    {
                        "isFloatingWindow": false,
                        "itemIndex": 2,
                        "mainWindowUniqueName": "KdenliveKDDock"
                    }
                ],
                "tabIndex": 2,
                "wasFloating": false
            },
            "uniqueName": "effect_list"
        },
        {
            "lastCloseReason": 0,
            "lastPosition": {
                "lastFloatingGeometry": {
                    "height": 349,
                    "width": 1918,
                    "x": 1,
                    "y": 150
                },
                "lastOverlayedGeometries": [],
                "placeholders": [
                    {
                        "isFloatingWindow": false,
                        "itemIndex": 2,
                        "mainWindowUniqueName": "KdenliveKDDock"
                    }
                ],
                "tabIndex": 1,
                "wasFloating": false
            },
            "uniqueName": "transition_list"
        },
        {
            "lastCloseReason": 2,
            "lastPosition": {
                "lastFloatingGeometry": {
                    "height": 214,
                    "width": 200,
                    "x": 4,
                    "y": 64
                },
                "lastOverlayedGeometries": [],
                "placeholders": [
                    {
                        "isFloatingWindow": false,
                        "itemIndex": 2,
                        "mainWindowUniqueName": "KdenliveKDDock"
                    }
                ],
                "tabIndex": 2,
                "wasFloating": false
            },
            "uniqueName": "undo_history"
        },
        {
            "lastCloseReason": 2,
            "lastPosition": {
                "lastFloatingGeometry": {
                    "height": 0,
                    "width": 0,
                    "x": 0,
                    "y": 0
                },
                "lastOverlayedGeometries": [],
                "placeholders": [
                    {
                        "isFloatingWindow": false,
                        "itemIndex": 12,
                        "mainWindowUniqueName": "KdenliveKDDock"
                    }
                ],
                "tabIndex": 2,
                "wasFloating": false
            },
            "uniqueName": "mixer"
        },
        {
            "lastCloseReason": 2,
            "lastPosition": {
                "lastFloatingGeometry": {
                    "height": 0,
                    "width": 0,
                    "x": 0,
                    "y": 0
                },
                "lastOverlayedGeometries": [],
                "placeholders": [
                    {
                        "isFloatingWindow": false,
                        "itemIndex": 6,
                        "mainWindowUniqueName": "KdenliveKDDock"
                    }
                ],
                "tabIndex": 0,
                "wasFloating": false
            },
            "uniqueName": "vectorscope"
        },
        {
            "lastCloseReason": 2,
            "lastPosition": {
                "lastFloatingGeometry": {
                    "height": 0,
                    "width": 0,
                    "x": 0,
                    "y": 0
                },
                "lastOverlayedGeometries": [],
                "placeholders": [
                    {
                        "isFloatingWindow": false,
                        "itemIndex": 5,
                        "mainWindowUniqueName": "KdenliveKDDock"
                    }
                ],
                "tabIndex": 0,
                "wasFloating": false
            },
            "uniqueName": "waveform"
        },
        {
            "lastCloseReason": 2,
            "lastPosition": {
                "lastFloatingGeometry": {
                    "height": 0,
                    "width": 0,
                    "x": 0,
                    "y": 0
                },
                "lastOverlayedGeometries": [],
                "placeholders": [
                    {
                        "isFloatingWindow": false,
                        "itemIndex": 7,
                        "mainWindowUniqueName": "KdenliveKDDock"
                    }
                ],
                "tabIndex": 0,
                "wasFloating": false
            },
            "uniqueName": "rgb_parade"
        },
        {
            "lastCloseReason": 2,
            "lastPosition": {
                "lastFloatingGeometry": {
                    "height": 0,
                    "width": 0,
                    "x": 0,
                    "y": 0
                },
                "lastOverlayedGeometries": [],
                "placeholders": [
                    {
                        "isFloatingWindow": false,
                        "itemIndex": 8,
                        "mainWindowUniqueName": "KdenliveKDDock"
                    }
                ],
                "tabIndex": 0,
                "wasFloating": false
            },
            "uniqueName": "histogram"
        }
    ],
    "closedDockWidgets": [
        "project_bin",
        "library",
        "subtitles",
        "textedit",
        "timeremap",
        "markers",
        "screengrab",
        "audiospectrum",
        "clip_properties",
        "notes_widget",
        "media_browser",
        "onlineresources",
        "transition_list",
        "undo_history",
        "mixer",
        "vectorscope",
        "waveform",
        "rgb_parade",
        "histogram"
    ],
    "floatingWindows": [],
    "mainWindows": [
        {
            "affinities": null,
            "geometry": {
                "height": 1011,
                "width": 1920,
                "x": 0,
                "y": 69
            },
            "isVisible": true,
            "multiSplitterLayout": {
                "frames": {
                    "6913": {
                        "currentTabIndex": 0,
                        "dockWidgets": [
                            "timeline"
                        ],
                        "geometry": {
                            "height": 430,
                            "width": 1520,
                            "x": 0,
                            "y": 467
                        },
                        "id": "6913",
                        "isNull": false,
                        "mainWindowUniqueName": "KdenliveKDDock",
                        "objectName": "timeline",
                        "options": 0
                    },
                    "6944": {
                        "currentTabIndex": 0,
                        "dockWidgets": [
                            "clipmonitor",
                            "library"
                        ],
                        "geometry": {
                            "height": 467,
                            "width": 661,
                            "x": 595,
                            "y": 0
                        },
                        "id": "6944",
                        "isNull": false,
                        "mainWindowUniqueName": "KdenliveKDDock",
                        "objectName": "clipmonitor",
                        "options": 0
                    },
                    "7006": {
                        "currentTabIndex": 1,
                        "dockWidgets": [
                            "mixer",
                            "effect_stack",
                            "timeremap",
                            "subtitles"
                        ],
                        "geometry": {
                            "height": 430,
                            "width": 398,
                            "x": 1520,
                            "y": 467
                        },
                        "id": "7006",
                        "isNull": false,
                        "mainWindowUniqueName": "KdenliveKDDock",
                        "objectName": "effect_stack",
                        "options": 0
                    },
                    "7142": {
                        "currentTabIndex": 2,
                        "dockWidgets": [
                            "project_bin",
                            "transition_list",
                            "effect_list",
                            "clip_properties",
                            "undo_history"
                        ],
                        "geometry": {
                            "height": 467,
                            "width": 595,
                            "x": 0,
                            "y": 0
                        },
                        "id": "7142",
                        "isNull": false,
                        "mainWindowUniqueName": "KdenliveKDDock",
                        "objectName": "effect_list",
                        "options": 0
                    },
                    "7321": {
                        "currentTabIndex": 0,
                        "dockWidgets": [
                            "projectmonitor",
                            "textedit",
                            "notes_widget"
                        ],
                        "geometry": {
                            "height": 467,
                            "width": 662,
                            "x": 1256,
                            "y": 0
                        },
                        "id": "7321",
                        "isNull": false,
                        "mainWindowUniqueName": "KdenliveKDDock",
                        "objectName": "projectmonitor",
                        "options": 0
                    }
                },
                "layout": {
                    "children": [
                        {
                            "children": [
                                {
                                    "children": [
                                        {
                                            "isContainer": false,
                                            "isVisible": false,
                                            "sizingInfo": {
                                                "geometry": {
                                                    "height": 440,
                                                    "width": 95,
                                                    "x": 0,
                                                    "y": 0
                                                },
                                                "maxSizeHint": {
                                                    "height": 524287,
                                                    "width": 524279
                                                },
                                                "minSize": {
                                                    "height": 90,
                                                    "width": 80
                                                },
                                                "percentageWithinParent": 0.0
                                            }
                                        },
                                        {
                                            "isContainer": false,
                                            "isVisible": false,
                                            "sizingInfo": {
                                                "geometry": {
                                                    "height": 440,
                                                    "width": 103,
                                                    "x": 0,
                                                    "y": 0
                                                },
                                                "maxSizeHint": {
                                                    "height": 524265,
                                                    "width": 524270
                                                },
                                                "minSize": {
                                                    "height": 90,
                                                    "width": 80
                                                },
                                                "percentageWithinParent": 0.0
                                            }
                                        },
                                        {
                                            "guestId": "7142",
                                            "isContainer": false,
                                            "isVisible": true,
                                            "sizingInfo": {
                                                "geometry": {
                                                    "height": 467,
                                                    "width": 595,
                                                    "x": 0,
                                                    "y": 0
                                                },
                                                "maxSizeHint": {
                                                    "height": 524323,
                                                    "width": 524293
                                                },
                                                "minSize": {
                                                    "height": 275,
                                                    "width": 274
                                                },
                                                "percentageWithinParent": 0.3102189781021898
                                            }
                                        },
                                        {
                                            "guestId": "6944",
                                            "isContainer": false,
                                            "isVisible": true,
                                            "sizingInfo": {
                                                "geometry": {
                                                    "height": 467,
                                                    "width": 661,
                                                    "x": 595,
                                                    "y": 0
                                                },
                                                "maxSizeHint": {
                                                    "height": 524323,
                                                    "width": 524293
                                                },
                                                "minSize": {
                                                    "height": 236,
                                                    "width": 326
                                                },
                                                "percentageWithinParent": 0.34462982273201254
                                            }
                                        },
                                        {
                                            "guestId": "7321",
                                            "isContainer": false,
                                            "isVisible": true,
                                            "sizingInfo": {
                                                "geometry": {
                                                    "height": 467,
                                                    "width": 662,
                                                    "x": 1256,
                                                    "y": 0
                                                },
                                                "maxSizeHint": {
                                                    "height": 524323,
                                                    "width": 524293
                                                },
                                                "minSize": {
                                                    "height": 381,
                                                    "width": 447
                                                },
                                                "percentageWithinParent": 0.34515119916579773
                                            }
                                        },
                                        {
                                            "isContainer": false,
                                            "isVisible": false,
                                            "sizingInfo": {
                                                "geometry": {
                                                    "height": 440,
                                                    "width": 82,
                                                    "x": 1832,
                                                    "y": 0
                                                },
                                                "maxSizeHint": {
                                                    "height": 524287,
                                                    "width": 524287
                                                },
                                                "minSize": {
                                                    "height": 90,
                                                    "width": 80
                                                },
                                                "percentageWithinParent": 0.0
                                            }
                                        },
                                        {
                                            "isContainer": false,
                                            "isVisible": false,
                                            "sizingInfo": {
                                                "geometry": {
                                                    "height": 440,
                                                    "width": 167,
                                                    "x": 1747,
                                                    "y": 0
                                                },
                                                "maxSizeHint": {
                                                    "height": 524287,
                                                    "width": 524251
                                                },
                                                "minSize": {
                                                    "height": 90,
                                                    "width": 80
                                                },
                                                "percentageWithinParent": 0.0
                                            }
                                        },
                                        {
                                            "isContainer": false,
                                            "isVisible": false,
                                            "sizingInfo": {
                                                "geometry": {
                                                    "height": 440,
                                                    "width": 92,
                                                    "x": 1822,
                                                    "y": 0
                                                },
                                                "maxSizeHint": {
                                                    "height": 524287,
                                                    "width": 524287
                                                },
                                                "minSize": {
                                                    "height": 90,
                                                    "width": 80
                                                },
                                                "percentageWithinParent": 0.0
                                            }
                                        },
                                        {
                                            "isContainer": false,
                                            "isVisible": false,
                                            "sizingInfo": {
                                                "geometry": {
                                                    "height": 440,
                                                    "width": 81,
                                                    "x": 1833,
                                                    "y": 0
                                                },
                                                "maxSizeHint": {
                                                    "height": 524287,
                                                    "width": 524287
                                                },
                                                "minSize": {
                                                    "height": 90,
                                                    "width": 80
                                                },
                                                "percentageWithinParent": 0.0
                                            }
                                        },
                                        {
                                            "isContainer": false,
                                            "isVisible": false,
                                            "sizingInfo": {
                                                "geometry": {
                                                    "height": 508,
                                                    "width": 478,
                                                    "x": 1074,
                                                    "y": 0
                                                },
                                                "maxSizeHint": {
                                                    "height": 523905,
                                                    "width": 523960
                                                },
                                                "minSize": {
                                                    "height": 90,
                                                    "width": 80
                                                },
                                                "percentageWithinParent": 0.0
                                            }
                                        },
                                        {
                                            "isContainer": false,
                                            "isVisible": false,
                                            "sizingInfo": {
                                                "geometry": {
                                                    "height": 508,
                                                    "width": 378,
                                                    "x": 1536,
                                                    "y": 0
                                                },
                                                "maxSizeHint": {
                                                    "height": 524174,
                                                    "width": 524011
                                                },
                                                "minSize": {
                                                    "height": 90,
                                                    "width": 80
                                                },
                                                "percentageWithinParent": 0.0
                                            }
                                        }
                                    ],
                                    "isContainer": true,
                                    "isVisible": false,
                                    "orientation": 1,
                                    "sizingInfo": {
                                        "geometry": {
                                            "height": 467,
                                            "width": 1918,
                                            "x": 0,
                                            "y": 0
                                        },
                                        "maxSizeHint": {
                                            "height": 524323,
                                            "width": 1572879
                                        },
                                        "minSize": {
                                            "height": 381,
                                            "width": 1047
                                        },
                                        "percentageWithinParent": 0.5206243032329989
                                    }
                                },
                                {
                                    "children": [
                                        {
                                            "guestId": "6913",
                                            "isContainer": false,
                                            "isVisible": true,
                                            "sizingInfo": {
                                                "geometry": {
                                                    "height": 430,
                                                    "width": 1520,
                                                    "x": 0,
                                                    "y": 0
                                                },
                                                "maxSizeHint": {
                                                    "height": 524314,
                                                    "width": 524287
                                                },
                                                "minSize": {
                                                    "height": 117,
                                                    "width": 80
                                                },
                                                "percentageWithinParent": 0.7924921793534933
                                            }
                                        },
                                        {
                                            "guestId": "7006",
                                            "isContainer": false,
                                            "isVisible": true,
                                            "sizingInfo": {
                                                "geometry": {
                                                    "height": 430,
                                                    "width": 398,
                                                    "x": 1520,
                                                    "y": 0
                                                },
                                                "maxSizeHint": {
                                                    "height": 524323,
                                                    "width": 524344
                                                },
                                                "minSize": {
                                                    "height": 159,
                                                    "width": 141
                                                },
                                                "percentageWithinParent": 0.20750782064650677
                                            }
                                        }
                                    ],
                                    "isContainer": true,
                                    "isVisible": false,
                                    "orientation": 1,
                                    "sizingInfo": {
                                        "geometry": {
                                            "height": 430,
                                            "width": 1918,
                                            "x": 0,
                                            "y": 467
                                        },
                                        "maxSizeHint": {
                                            "height": 524314,
                                            "width": 1048631
                                        },
                                        "minSize": {
                                            "height": 141,
                                            "width": 221
                                        },
                                        "percentageWithinParent": 0.4793756967670011
                                    }
                                }
                            ],
                            "isContainer": true,
                            "isVisible": false,
                            "orientation": 2,
                            "sizingInfo": {
                                "geometry": {
                                    "height": 897,
                                    "width": 1918,
                                    "x": 0,
                                    "y": 0
                                },
                                "maxSizeHint": {
                                    "height": 1048637,
                                    "width": 1048631
                                },
                                "minSize": {
                                    "height": 530,
                                    "width": 1047
                                },
                                "percentageWithinParent": 1.0
                            }
                        }
                    ],
                    "isContainer": true,
                    "isVisible": false,
                    "orientation": 1,
                    "sizingInfo": {
                        "geometry": {
                            "height": 897,
                            "width": 1918,
                            "x": 0,
                            "y": 0
                        },
                        "maxSizeHint": {
                            "height": 16777215,
                            "width": 16777215
                        },
                        "minSize": {
                            "height": 90,
                            "width": 80
                        },
                        "percentageWithinParent": 0.0
                    }
                }
            },
            "normalGeometry": {
                "height": 0,
                "width": 0,
                "x": 0,
                "y": 0
            },
            "options": 0,
            "screenIndex": 0,
            "screenSize": {
                "height": 1080,
                "width": 1920
            },
            "uniqueName": "KdenliveKDDock",
            "windowState": 2
        }
    ],
    "screenInfo": [
        {
            "devicePixelRatio": 2.0,
            "geometry": {
                "height": 1080,
                "width": 1920,
                "x": 0,
                "y": 0
            },
            "index": 0,
            "name": "HDMI-0"
        }
    ],
    "serializationVersion": 3
}</property>
  <property name="kdenlive:folder.39.61">2</property>
  <property name="kdenlive:folder.39.66">4</property>
  <property name="kdenlive:folder.39.67">6</property>
  <property name="xml_retain">1</property>
  <entry in="00:00:00.000" out="00:00:07.967" producer="chain20"/>
  <entry in="00:00:00.000" out="00:00:07.967" producer="chain21"/>
  <entry in="00:00:00.000" out="00:00:07.967" producer="chain22"/>
  <entry in="00:00:00.000" out="00:00:07.967" producer="chain23"/>
  <entry in="00:00:00.000" out="00:00:07.967" producer="chain24"/>
  <entry in="00:00:00.000" out="00:00:07.967" producer="chain25"/>
  <entry in="00:00:00.000" out="00:00:07.967" producer="chain26"/>
  <entry in="00:00:00.000" out="00:00:07.967" producer="chain27"/>
  <entry in="00:00:00.000" out="00:00:07.967" producer="chain28"/>
  <entry in="00:00:00.000" out="00:00:07.967" producer="chain29"/>
  <entry in="00:00:00.000" out="00:00:49.067" producer="chain31"/>
  <entry in="00:00:00.000" out="00:00:41.467" producer="chain32"/>
  <entry in="00:00:00.000" out="00:00:42.500" producer="chain33"/>
  <entry in="00:00:00.000" out="00:00:50.367" producer="chain34"/>
  <entry in="00:00:00.000" out="00:00:41.833" producer="chain35"/>
  <entry in="00:00:00.000" out="00:00:39.200" producer="chain36"/>
  <entry in="00:00:00.000" out="00:00:07.967" producer="producer9"/>
  <entry in="00:00:00.000" out="00:00:08.067" producer="chain37"/>
  <entry in="00:00:00.000" out="00:00:07.967" producer="producer3"/>
  <entry in="00:00:00.000" out="00:00:07.967" producer="producer4"/>
  <entry in="00:00:00.000" out="00:00:07.967" producer="producer5"/>
  <entry in="00:00:00.000" out="00:00:07.967" producer="producer6"/>
  <entry in="00:00:00.000" out="00:00:07.967" producer="producer7"/>
  <entry in="00:00:00.000" out="00:00:07.967" producer="producer8"/>
  <entry in="00:00:00.000" out="00:00:07.967" producer="producer2"/>
  <entry in="00:00:00.000" out="00:00:32.333" producer="chain39"/>
  <entry in="00:00:00.000" out="00:00:34.600" producer="chain15"/>
  <entry in="00:00:00.000" out="00:00:20.000" producer="chain18"/>
  <entry in="00:00:00.000" out="00:06:28.367" producer="tractor8"/>
  <entry in="00:00:00.000" out="00:11:28.400" producer="{fb9b3217-9871-462e-b2b6-eae8a6430db1}"/>
  <entry in="00:00:00.000" out="00:00:27.300" producer="chain19"/>
  <entry in="00:00:00.000" out="00:00:07.767" producer="chain30"/>
  <entry in="00:00:00.000" out="00:00:14.967" producer="chain38"/>
  <entry in="00:00:00.000" out="00:00:20.000" producer="chain40"/>
  <entry in="00:00:00.000" out="00:00:11.233" producer="chain41"/>
  <entry in="00:00:00.000" out="00:00:20.000" producer="chain42"/>
  <entry in="00:00:00.000" out="00:00:14.967" producer="chain43"/>
  <entry in="00:00:00.000" out="00:00:09.167" producer="chain44"/>
  <entry in="00:00:00.000" out="00:00:16.667" producer="chain45"/>
  <entry in="00:00:00.000" out="00:00:09.567" producer="chain46"/>
  <entry in="00:00:00.000" out="00:00:08.767" producer="chain47"/>
  <entry in="00:00:00.000" out="00:01:39.333" producer="chain48"/>
  <entry in="00:00:00.000" out="00:00:48.367" producer="chain49"/>
  <entry in="00:00:00.000" out="00:00:07.967" producer="producer44"/>
  <entry in="00:00:00.000" out="00:00:04.967" producer="producer45"/>
  <entry in="00:00:00.000" out="00:00:41.967" producer="chain50"/>
  <entry in="00:00:00.000" out="00:00:40.300" producer="chain51"/>
 </playlist>
 <tractor id="tractor9" in="00:00:00.000" out="00:06:28.367">
  <property name="kdenlive:projectTractor">1</property>
  <track in="00:00:00.000" out="00:06:28.367" producer="tractor8"/>
 </tractor>
</mlt>
